<mxfile host="app.diagrams.net" modified="2022-09-14T07:04:11.392Z" agent="5.0 (Windows NT 10.0; Win64; x64) AppleWebKit/537.36 (KHTML, like Gecko) Chrome/105.0.0.0 Safari/537.36 Edg/105.0.1343.33" etag="hxkD5IBZpWI0CB1gdqZv" version="20.3.0" type="github">
  <diagram id="4d93_hR6b8W55I3h4sD-" name="Page-1">
    <mxGraphModel dx="981" dy="526" grid="1" gridSize="10" guides="1" tooltips="1" connect="1" arrows="1" fold="1" page="1" pageScale="1" pageWidth="850" pageHeight="1100" math="1" shadow="0">
      <root>
        <mxCell id="0" />
        <mxCell id="1" parent="0" />
        <mxCell id="k4ere-3MM8fGe5aid2qk-1" value="" style="shape=image;verticalLabelPosition=bottom;labelBackgroundColor=default;verticalAlign=top;aspect=fixed;imageAspect=0;image=data:image/png,iVBORw0KGgoAAAANSUhEUgAABDkAAAMcCAYAAABaSH4fAAAgAElEQVR4nOzdaYxc53n2+f85derUemrtZq9ks7mpSYqbRFGyaIqyFYmJ5NhO7CTyOAniCZL5kAWDyQDz4YU9wmtgMEaABAkwSBzEft9kxlHk2OPYE9uRKIkiJYqUTGrhIlJkc282u5u9VNe+n/lQ6jJbbEqiRLK36wc0yDp1qvhUs9FVddX93Lfhuq6LiIiIiIiIiMg8Z872AkREREREREREbgWFHCIiIiIiIiKyICjkEBERWShyOSiVZnsVIiIiIrNGIYeIiMhCcfIkDA7O9ipEREREZo1CDhERkYXiH/4BnnsOKpXZXomIiIjIrLBmewEiIiLyCZXLMDEBR49CKASjo9DRMdurEhEREbnjVMkhIiIy3xUK8O67jT9HR+HSpdlekYiIiMisUMghIiIy32WzjSqObBaGhuDMmdlekYiIiMisUMghIiIy32WzcPhw488LF+DYsdlekYiIiMisUMghIiIyn5VKjeqNgwchnW78/cQJGB5WA1IRERFZdNR4VEREZD7LZBrVGydO/PLYxYuNLSuBAHi9s7c2ERERkTtMlRwiIiLz2ehoI+S4VqEAZ89CsTg7axIRERGZJQo5RERE5rPLl6dXcQCkUvDyy40qDxEREZFFRCGHiIjIfFUqNUbHHjo0/XgqBfv3w5UrjXNEREREFgmFHCIiIvNVOt3YlnL69PTj+Xwj/BgYgFxudtYmIiIiMgsUcoiIiMxXw8MwOTnzda7bqOS40fUiIiIiC5BCDhERkfnqzJnGyNiZuC68+eb1TUlFREREFjCFHCIiIvPVvn1w/PjM17kuHDzY2MpSq93ZdYmIiIjMEoUcIiIi802t1piccvgwnDs38zmu2wg4zp/XlBURERFZNBRyiIiIzDfFYmOrSqHw4eeOjjYakIqIiIgsAgo5RERE5ptcDo4ehWz2w8+9cqUxgUVERERkEVDIISIiMt/kco2moh9lG8qlS3DixO1fk4iIiMgcoJBDRERkPqlWYXwcfvELSKc//PyBgUbIkcmoAamIiIgseAo5RERE5pN8vjEW9uBBmJz88PNHRxsNSM+cgVLp9q9PREREZBYp5BAREZlPRkcbIYfrfvTb5PONvhzF4u1bl4iIiMgcoJBDRERkPhkagnffvbmQI5WCQ4cavTxEREREFjCFHCIiIvNFtQrnzjWajt5MyDExAfv3N6pAqtXbtz4RERGRWaaQQ0REZL7I5RpNRF9//eZCjslJeO21xqSVfP72rU9ERERklinkEBERmS9GRhpbTz4O14UrVz7aRBYRERGReUohh4iIyHxx4UIj6Pg46nU4fhwGB2/tmkRERETmEIUcIiIi88UbbzTGwX4c9Xpjy8q5c42/i4iIiCxACjlERETmOteFWg1eeAHeeuvj3Ue93ujlcfo0lMu3dn0iIiIic4RCDhERkbmuVIIzZ25N09DRUbh8+ZPfj4iIiMgcpJBDRERkrisUGlNVstlPfl9DQ3D+/Ce/HxEREZE5yJrtBYiIiMiHKJcbk1FaWmDNmunXjY01vt7PMKC7GwKB6cc9npnPFxEREVkAFHKIiIjMdaYJfj888khj68q19u6FPXuuv41hwGOPwdKl04/7/eDz3b61ioiIiMwihRwiIiJzXTwOX/gCVCqNJqTXyudnDjlME774RbjvvunHDaMRdIiIiIgsQAo5RERE5jrLagQdMwmHb3y7RALa2m7PmkRERETmIDUeFREREREREZEFQSGHiIiIiIiIiCwICjlEREREREREZEFQyCEiIiIiIiIiC4JCDhERERERERFZEBRyiIiIiIiIiMiCoJBDRERERERERBYEhRwiIiIiIiIisiAo5BARERERERGRBUEhh4iIiIiIiIgsCAo5RERERERERGRBUMghIiIiIiIiIguCQg4RERERERERWRAUcoiIiIiIiIjIgqCQQ0REREREREQWBIUcIiIiIiIiIrIgKOQQERERERERkQVBIYeIiIiIiIiILAgKOURERERERERkQVDIISIiIiIiIiILgkIOEREREREREVkQFHKIiIiIiIiIyIKgkENEREREREREFgSFHCIiIiIiIiKyICjkEBEREREREZEFQSGHiIiIiIiIiCwICjlEREREREREZEFQyCEiIiIiIiIiC4JCDhERERERERFZEKzZXoCIiIjcWfV6nUqlgsfjwTRNTFOfeYiIiMjCoFc1IiIii0yxWGRgYICJiQnK5fJsL0dERETkllHIISIisgi4rsvVq1d56aWX+Ku/+iv+7M/+jHfeeUchh4iIiCwo2q4iIiKygKXTaQYGBjh58iTvvPMO77zzDseOHePs2bP80R/9EbVabbaXKCIiInLLKOQQERFZYFyg4roMDwxwIpvl4MGD7N69m7fffptMJgNAIBCgv7+faDSK4zjTbu/3+4nFYs3Lpmni9XqxLAvDMPB4PNi2DYDH42n29hARERGZbQo5REREFpgyMFKv8399+9v87OpV3n33XWq1GvV6vXlOoVDg61//OqZpYhjGtNuvWrWKz33uc83LwWCQJUuWkEgksCyLWCxGZ2cnAOFwmEgkQigUuiOPTUREROSDKOQQERFZYLxAi2nyxK5dVIaHqVarnDhxYto5lmVxzz330NraSq1WY2RkhOPHj5PP5zlz5gxPP/1081yPx4PP58Pr9WIYBl6vF7/f37zO6/USDAZZv349bW1tRKNRQqFQMxgJh8P4/X5aW1tV8SEiIiK3lUIOERGRBcYE/IbBxrvvxty+ne7ubg4dOsSJEyc4f/48ExMTWJbFI488woYNG7Btm1Qqxfnz5ykWi837KZVKlEolarUarutSLBYpFotUq1VqtRqjo6OUSiVyuRwTExOcPHmSaDRKMBgkEAgQi8WIRCL4/X58Ph/RaJREIkFrayutra3EYjHC4XDzfMdxrqsqEREREbkZCjlEREQWIAOIxmJsf/BBNm3axMMPP8zu3bt55ZVXOH78ONlslq1bt/LQQw8Rj8evu73ruuRyOXK5HKVSCdd1yWQyZDIZSqUS1WqVs2fPUqlUGBsb4/Tp01y4cIFisUgqlWJ8fJzz589Tq9Uol8sUi0VKpRKxWIzu7m5WrlxJZ2dnM+yIRqMsWbKEeDxOOBzG5/Nh23bzy7L0kkVEREQ+nF4xiIiILHDhcJhNmzaxYcMGfuM3foPnn3+ef/mXfyEQCNzwNoZhEA6Hr+u14bpu8++f+cxnmsemvsbHx0mn0+TzeYaGhsjn81y+fJlTp04xMDDA66+/ziuvvML+/fsxDKNZuTH152OPPcaWLVtYvnw5S5cupa2tjc7OTlpaWm71t0VEREQWIIUcIiIii4BpmpimSXd3N0888QQbN26kt7f3A4MO4LrtIx+2nSSZTBKNRqnVaixbtoxardbc0lIsFpmcnGRsbIyxsTFyuRyZTIbh4WHOnz/PmTNnOHr0KMePHycQCOD3+7FtG7/fT0dHBw8//DAdHR10dHQ0qz6CwSAej+cTf39ERERkYVDIISIisogEAgG6u7vp6OgAuOUBgdfrxev1fuA5xWKRdDpNsVikUCiQSqUYHh7mypUrXL58mYmJCbLZLNlsltHRUc6cOcMbb7zBpUuXSCQSxOPxZj+PVatW0dPTQ0dHB/F4nEgkgs/nU4NTERGRRUohh4iIyCIzVdUxW/x+f3M6y/vl83nS6TTj4+OMjo5y4cIFXnvtNd566y3K5TLnz5/n3XffpVgsks1m6enpYd26dfT19dHV1cWSJUtoa2sjkUgQCoUIBoP4/X719BAREVkk9IwvIiIic0YwGCQYDNLW1gbAjh07+OpXv0qpVOLq1atcuHCBixcvcubMGQ4fPsz+/ft58803p/X22Lp1Kzt37mTjxo2sW7eO5cuXz9hcVURERBYew722g5iIiIjML9/8JnzjG9cftyzYuxcefPDOr+k2qNfrVCqV5hjbQqFAJpNhcHCQoaEhhoaGGBgY4Be/+AXDw8PU6/Vm49Rly5bR19fH3XffzcqVK1m2bBnJZFLVHSIiIguQnt1FRERkzjNNE5/Ph8/nIxqNNo+vWbOGTCZDKpVibGyMBx54gPPnz3PlyhVSqRSDg4O88847HDt2jNdee42Ojg5aWlro6elhw4YNdHR00NraSiQSwbbtWXyEIiIiciso5BAREZF5ayr4aGlpYdWqVdx///3kcjnGxsYYGhri3Xff5ZVXXuHYsWOMjo5y6dIlJicncRyH+++/nzVr1tDT08OyZcvo6uoiFosRCoXw+Xya2iIiIjIPKeQQERGRBSUUCjW3qWzbto0nn3ySsbExTp06RX9/P/v27ePVV1/le9/7HgCu69Lb28vjjz/Ozp072bBhA11dXTiOM8uPRERERG6WQg4RERFZ0CzLIpFIsGnTJtasWcP27dsZHBykv7+fs2fP8sYbb3DmzBl+9KMfsWfPHoLBIGvWrOGRRx5hw4YN9PT0EI/HP3Q0roiIiMw+hRwiIiKyoBmGgW3b2LZNNBqlvb2d5cuX09fXx8jICA888ACnT5+mv7+f4eFhzp49y6FDh7h06RLLli2jpaWFNWvWsG3bNtra2mhpaSEQCMz2wxIREZEZKOQQERGRRcfn89HR0UFHRwebNm0im81y+fJlzp07x5tvvsnRo0fp7+/njTfeYHBwkPb2dh5//HF6e3tZu3YtPT09JBIJwuEwXq8X0zRn+yGJiIgIGiErIiIyvy2SEbJ32sTEBP39/Rw7dozvfve7HDx4ENd1cV2XTZs28fDDD/PZz36WTZs20dLSgs/nwzAMDMOY7aWLiIgsaqrkEBEREXkfx3FYu3Yty5YtY/PmzVy8eJFz585x4MABjhw5wjPPPMOzzz5LKBTioYceYseOHWzatInu7m4sSy+vREREZouehUVERETex7IswuEw4XCY1tZWVq1axejoKHfffXdzK8ulS5c4fvw4u3fv5p133mHlypVs3ryZu+66i97eXtra2vB4PKruEBERuYMUcoiIiIh8ANM0cRwHx3Ho7e3l/vvv58qVK5w8eZL9+/dz7NgxLl68yIkTJ3j99dfZvHkzd999N319faxcuZLW1laCwSAej2e2H4qIiMiCp5BDRERE5CZMBR5r1qzh85//PKdPn+bAgQM8++yz/PznP+fNN9+kXq/T2trKn/zJn/DYY4+xZs0aHMfBNE1Vdsgn5rqufo5ERG5AjUdFRETmMzUenXXFYpFMJsPo6CinTp3inXfe4cUXX2Tv3r20t7cTi8XYunUrjz/+OPfccw8dHR0aQSsfi+vWqVarFIoFPB4L27bxWt7ZXpaIyJyiSg4RERGRT8Dv9+P3+0kkEnR0dNDX18ddd93Ftm3bGBwc5MiRI7z22mtcunSJZcuW8eCDD7Jx40Z6e3tJJpP6RF4+kOu61Ot1yuUSxWKBUrlErVojFk9odLGIyAwUcoiIiIjcAh6Ph1gsRiwWY8WKFezYsYNz586xd+9eDh06xOnTpzl+/Dhnz55l06ZNbNq0ifXr19PV1UUikVB1h0zjui7VWpVqpUKp1Ag48oUctVqdgD+I1/LiMdXnRUTk/RRyiIiIiNxiXq+X1tZWWltb2bx5M5cvX+bQoUP8x3/8By+//DIHDhwgFAqxbds2vvSlL7F9+3ZWrFiBZVnq27HITe0kr1Qq5PI50ukUuVy2eX0wGCKRSGpUsYjIDei3o4iIiMht5PV66ezs5JFHHuHee+/l6NGjvPzyy7z88su8/vrrnDx5knXr1vHpT3+aXbt2sXr1ahzHme1lyyyoVquNio18jnwhT6VSoVarNa/3+fwEg2H8fr+2qoiI3IBCDhEREZHbyDAMfD4fPp+PRCJBLBZj6dKlbN68mcOHD/Pmm29y9uxZBgYGeOutt9i6dSv33Xcfd999t3p2LAL1ep1KpUKpVKRYLFAsFSmXy1QqFVy33jzPMAyCgSBOOKyAQ0TkAyjkEBEREbmDEokEiUSCdevWcd9997F//35effVV3n77bV5++WVOnjzJiRMneOihh7jvvvtoa2sjEolg2/ZsL11uoVqtSqVSpVwpUywWKBTylEpFqtXqjOf7fD6CwSB+v3q3iIh8EM9TTz311GwvQkRERD6mfftgz57rj5smfO1rsHTpnV+TfCSWZdHS0sKWLVu47777WLlyJcVikf7+fg4cOMDrr79OLpfD5/MRCoXw+/14PB5VdsxjjX4bLq7rks/nSE1OMDExRjaboVIpU6/XZ7ydaZrEY0lCobB6cYiIfAj9lhQRERGZZS0tLezcuZNNmzZx5MgR9u7dy/79+3nmmWf4+c9/zv3338/nPvc5fu3Xfo1wOIzHo6ka843r1imVimSzOfKFHJVyhWqtcsNgY4ppmvj9AYLBkKp5REQ+AoUcIiIiIrPM6/U2x886jkN3dzebN2/m4MGDHDhwgMOHD3P58mVeeuklHn30UTZv3kx3dzc+n2+2ly4fwHVdqtUqpVKj10apVKRULFGuTIUb7ofeh9drE4vFsW1bVTwiIh+BQg4RERGROSSZTJJMJrnrrrvYuHEjvb29/OIXv+DkyZP827/9G8PDw5w/f56tW7eyevVqWlpa9An/HFOv16lWq5TLJYqlIsVinkKhQLVabY6I/Sgsy8LvD+CEI2o2KiLyESnkEBEREZmDQqEQmzZtYu3atfT397Nv3z5+8IMf8Nprr/HGG2+wZcsWvvSlL/HQQw/R1taGbdt6IzyLpvptNKalVEln0mSzaYrFwse+z0bA4Wh7kojITVDIISIiIjKHeb1eVqxYQTKZZNu2bezdu5ef/OQnvPTSS7z99tts376dL3zhC+zcuZMlS5bM9nIXrUqlQj6fI5fLUiwVqdWqH9pv44N4PBbBYIhQKHwLVykisvAp5BARERGZwwzDwO/3Y9s20WiUSCRCR0cH+/fv54033uDQoUNcvnyZ1157rTl2tqWlBa/XO9tLX/BqtRrlcpliMd/ouVEsUq6UbzgG9mY4jkMwEFQVh4jITVLIISIiIjIPNKZs+Fm1ahVtbW2sW7eO/fv3s2fPHo4ePcq///u/c/bsWUZGRtiyZQvLly8nmUzO9rIXtHq9RrFUIDU5QblcplarfeL7NAwDy2MRDjn4fP5bsEoRkcVFIYeIiIjIPOM4Dhs3bmTDhg3s3LmTH/3oR/zkJz9hz549nDx5kkceeYQnnniC7du34/f78Xg86tdxm7h1l0rlw0fBflSWxyIUCuP3B1TFISLyMXieeuqpp2Z7ESIiIvIx7dsHe/Zcf9w04Wtfg6VL7/ya5I4xDINIJMJdd93F1q1b6erq4vDhwxw6dIijR48yOjpKNBrFcRyNm70NTNPEshpBRLVa+cSVHIZh4A8EaFvSjtfr1chYEZGPQZUcIiIiIu/jFkfJDhzh//1vr1O++0H6HryXHT2h2V7WjHw+H+3t7TiOQ2trK/F4nAMHDnD69Gm+//3vc/jwYX71V3+Vz3zmM6xcuRLLsvTm+RYxDAOv10skEqNWr+O6GSqV8se+P5/PRygUxuu19X8kIvIxKeQQERERmcallr/KxKn9fP//3kP0t7pxNm2Z7UV9INM0cRyHvr4+WltbWbt2LXv37mX37t28+OKLjI2NMTY2xo4dO+jr6yMej2Pb9mwve0EwjEavFMeJUK/XSKeruO7Nb13xeDwEAkHCobACDhGRT0Ahh4iIiMg0dcrZCUYunuOdWgefbW2ju2V+NIA0DIOWlhY++9nPcvfdd7Np0ya+9a1v8c477zAwMMDhw4f5vd/7Pe69917a29uxbVUM3CrBQJByqUQul6VavfmQw+fzEwyG8PsDt2F1IiKLh0IOERERkWmK5CZHGDhzjmrwbiIJh2ho/jWATCQS/Mqv/AqrV6/mpZde4mc/+xkvvPAChw4d4rd/+7f58pe/zD333KOg4xNzqdfrTKQmSKcnP3ZfDseJEPAHb/HaREQWH4UcIiIiItdyixQyEwxfnKC2optER5Skb/5NJrEsq9mUNBwO09XVxcqVK3n55Zd56aWXGBoa4qGHHmLXrl10dHSoMenH4LoutVqFVCpFNpehVCrhuu5N3YfH4yEYDBEMBLEsvTQXEfmk9JtUREREFrdakWI+w/joKKMXz3Dp6gDvvnGQwydHyIff5cTBg7zszbGur4fO9jgRn4V3HhU+2LZNb28vyWSSnp4eli5dyp49e3jzzTe5cOECw8PDPPzww6xfv55kMjnby5036vU65XKZfD5LajJFtXrzY2QbjUttYtEYXq+tMb8iIreAQg4RERFZpFyolylMXOTCudMceutdzu77/9j79mnevpBiMlvDH/8Zz58+yfn9W3n4tx7h0zvvZ1NPgrawjTWPgg6ASCTCPffcw5o1a+jt7eWHP/whL7zwAgcPHuTUqVN89atf5YEHHsBxHDwej7awfADXdSmXy6QzKVKpCarV6oznTX0Pb1Td4fFY+HwBQqEwhqGAQ0TkVvA89dRTT832IkRERORj2rcP9uy5/rhpwte+BkuX3vk1zRf1GvXUMfY984/84/ee5b+db+WeR7/EFx9ZzV2xACdOOzz2X/4rf/hED33lo7zw35/mX054cTrbWLY0QcQz/0KAqZGnPT09rF+/no6ODo4cOcKxY8c4efIkk5OT9PT0EAqF8HjmXx+SO8F1XarVCuPjV8lk0h/Yg8PrtfHZPqq1mUOQUChMPJbA5/MpVBIRuUVUySEiIiKLTz1HJX2e157+7/zg1RHOR7byu088wWObOkkMXuGCZVOylrF81To29a0nsMSgnLnC/3lwP28eWc+mtcvo7p4fE1feb2rc7Jo1awgGg8TjcV5++WVOnjzJ97//fUZGRti1axf33nsvbW1ts73cOaVarVIsFpicTJEv5KhWqzes0vD5/DhhB78/SD6fJZNJU6lWmtfbto9gIIjfPz9/jkRE5iqFHCIiIrLI1KlkRxg9uZcf/eQXnAg9wJqHH+Orv7KZZeE8g6cnmEgXqXTeTU97nPbuFhK+UT498Drx508yMniVwYkyzNOQY0owGGT16tW0tbXR29vL888/zwsvvMDPfvYzhoeHuXLlCjt37qS7u1uVBjQCjnwhTzo9SSaTxnVn7r9hmiY+n59wyCEcdvD5fHi9XlzXJZvLUqmUMQyDUDBEIBBUxYyIyC2mkENEREQWmSqF0Yuce+U/+Y8TPlb+1j08+tBmVkcMqKcZvXSJkckyvs0bWNkVJhqw8NpBItE4jlmmUi5RKM+8/WC+MQyDaDTKzp07Wbp0KV1dXfzDP/wDP//5z+nv7yeVSvH444+zdOlSgsHgomyM6eJSr9UpFPKk0ynS6ckbnmsaJrbtIxFPEgqFm9NSAoEArhvHxSWTqeHxeN4LQOZ3UCYiMhcp5BAREZFFpkB+cpgLxy9Q9m2jZ9kyVnUGwK1CYZih/suMjhRIblhCwvbgN1xq1cYUjfF6neBsL/828Hg89Pb28pWvfIVVq1bxzDPP8Morr/A3f/M39Pf38+Uvf5mtW7cSjUZne6l3XK1WI5WaIJOZpFQqfeC5gUCQWCxOOOxcFwgFAgGqVQcwsG0vPp9fVRwiIreBQg4RERFZZFzq9RqVchXXjhEKhQj7zUYj0qsXOD1kMuFZxqc2LiXps7Aok0mPMnRugHK1nfZECx3xhfUJ/FRD0ng8zrZt2wiHw6xatYpnn32Wl156ifHxcS5evMiuXbtoa2tbFG/OGxNUSmRzWdLpScrl0owjYg3DwDAMIk4Ux3FuuAXFMAyCwSBeuzEqdqrKQ0REbi39dhUREZFFxsT0WNh+C6Oco1goUijVcO0y2cFznB/3kPV1s6E3Scg2qabOcenkMV77xWXo+VXWrO5mRdI32w/itjBNk0QiwX333Uc8HsdxHH72s59x7NgxxsfHGRsb49FHH2XFihU4jjPby71tXNelWMyTzWbJ5rKUSsUZG4wahoFlWQQDIaLRKIFAENO8cQBkWV4sy3s7ly4isugp5BAREZFFxsIbcIi3JwhlzjJ49hynLq6ht7vK8MWzDOdMqtEWOmNQy49x+dgrvL7nIM+fMOn6vYe4Z/MyeqMLu5LB5/PR19dHR0cHS5cu5Z/+6Z949dVXOX78OKlUis9//vOsXbuWcDi84BqSuq5LpVJmcjJFOpOhes1ElGs1Ag4vgUCQZLIF27Y/MOAQEZE7QyGHiIiILDJ+nJYe1n7602z613/mwIs/Ihc1CP/2RvyXrlD0tOC0Jej0X+TUKy/w3D/+Gy+dNSg8/j/zv3/1U3xqRZKFWccxncfjIRaLsWvXLrq7u/npT3/KD3/4Q7797W9z7tw5fud3foddu3Zh2/aCCTrq9TrlSpmx0avkCzlqtRs3mPV4LCKRKIl4EsuyFsz3QERkvlPIISIiIouMidfponXzl/mfvh5lwzv9vH3mx/wf/+v38A4e5dRwgPqF4/zXVBv+9vWsWP8Fvvx4L8u23c/9y+Mk/B4Wy9tZ0zQJBoP09fVh2zbt7e0888wzHDlyhFwux5UrV3jiiSdYsmQJtm3P9nI/kVqtRr6QI5WaoFAoUKtVb7hFxbZtIpEYTthRwCEiMsco5BAREZFFx7Ad/G3reeDzETr63qbn9QPsfmk/B88VMdqXsrRvJb1tSUJ993D/+rXcs6qTro4INiyagONajuPQ19dHIpHAtm1+/OMf09/fz7/+679SLpfZuXMnK1euJBQKzfZSP5ZqtUo+nyWdyZDLZWdsMApgmh58Ph+OE8EJO9i2TwGHiMgco5BDREREFiEDw7SwE72sfqCXles28tg9bfwvb/8/jDz423z2f/wKf7GjHfPD72jR8Pl8dHd389WvfpVQKMQPfvADDhw4wLe//W1SqRSPP/4469evx+ebP2/8XdelVquRy2ffq+DIf0DAYeL3+4k4UWKx+HUjYkVEZG7Qb2cRERFZ5FxqpRzZ0WEuVMP4IjE6YsH4xhYAACAASURBVEG9SJrB1FaNz3/+8/zFX/wFTz75JIODg/zlX/4lf/u3f8vp06epVm/cx2KuqVarZDIZrl4dIZ/P3TDgAAiFwiTiSQUcIiJznCo5REREZJGrUSlmmbg6wmitk+WJNjpb/LO9qDnLMAwCgQDr1q3jK1/5ColEgu9973u88MILFAoFvvKVr/Dggw/S1tY220v9QMVigWw2QzqTplIpz9h/AxoNWJ1wBCcSIeAPKuAQEZnjFHKIiIjIIlemkB3nyvnL5JKbSHa20B7VS6QPE4lE2LBhA5FIhFqtxnPPPcehQ4eoVqsUCgW2b99Od3c3Hs/cGqvqui7FYoFMJk02l6VYLMx43tSI2GAwRDQax+/3z7nHIiIi19MzuIiIiCxyVWo1l1LdYeX2daxe3UprQJ/WfxS2bbN69Wr+8A//kGXLlvH000/z4osvUq1WKZVKPProo7S3t+PxeOZEn456vU6lUiY1mSKbzVCplGc8zzAMvF4voZBDLBbH7/PPifWLiMiHU8ghIiIii5xDS9+j/Np/2cHDro3PZ+PT+9mb0t7ezuc+9zm6urr45je/yWuvvcbQ0BAjIyP88R//MZFIZNarIFy3TqGYZ2xslEIhT6124/4bpmkSjcaIRmJ4vbYCDhGRecTz1FNPPTXbixAREZGPad8+2LPn+uOmCV/7GixdeufXNO80Jq1Yth+/z4vXYy7KMbGfxFRD0lgsxtq1azEMg8HBQU6cOEGlUiEcDhOJRPB6vbOyPtd1SWfS701QKbzXYPT6HhymaeKz/SQSSZxwBNu2MQxV9YiIzCeq5BARERGRT8yyLJLJJDt27MA0TWzb5sUXX+QHP/gB4+Pj7Nq1i61btxIMBu/YmpojYnNZ0plJ8vkctVptxnNN09McEes4ESzLUgWHiMg8pJBDRERERG6JqV4W27dvx+v1UqvV+OlPf8oPf/hDcrkcjuOwdu1abNu+7VNKXNelWq2QL+QZGx+lXC7dcESsx+PB5/MTcSIaESsiMs8p5BARERGRW8rr9XLvvffS1tbGypUr+c53vsOPfvQjJicn+frXv05nZyd+/+0d01urVcnlslwdHaFWq90w4DBNk2AwRCwWJxQMKeAQEZnn9FtcRERERG45n89Hd3c3X/ziF/n93/99VqxYwb59+/jWt77Fm2++ST6fvy3/7tSI2PHxMcbHx6hWqzcMOCzLIhx2SMSTBANBBRwiIguAKjlERERE5JYzDAO/309PTw9PPPEEruvy4x//mGeffZZqtcoTTzzBjh07aGlpuWW9L+r1OuVyicn3RsSWyqUbnuvz+QkFQ4TCDgEFHCIiC4ZCDhERERG5rdauXYvH48E0Tf7+7/+ep59+mitXrmCaJp/5zGcIh8N4PJ5mo1CPx3PTwUetVqNUKpHLZZhMT1KtVm5wpoHXsnAch4gTu+3bZkRE5M5SyCEiIiIit92qVat48sknsW2bv/u7v2P37t0MDw+TTCbZuHEj0WiUWq1GJpMhHA7f9LjZfD7HRGqCXC6D614/HnaKaZrE4wkcJ4rP5/ukD0tEROYYz1NPPfXUbC9CREREPqZ9+2DPnuuPmyZ87WuwdOmdX5PIDKa2r3R3d9PR0UEul+Ott97irbfeoq2tjXA4zPnz5/nrv/5r2traiMfjHxp0uK6L69ZJZ9JMplMUCvkb9t8wDINgIEhLyxLCYQev16sRsSIiC5AqOURERETkjrBtm2XLlvHYY49hGAaGYbB7927++Z//maNHj1Iul/nJT37Chg0baG9vJxgMfsC9uVQqFXK5DJlshmKxQK1WnfFM0zQJBIJEnAiO42CaN78dRkRE5geFHCIiIiJyR3V1dfHEE08QCoU4c+YML7zwAgcPHiQcDnPp0iWOHDnCxo0bWXqDSiTXdalWy+TzOcbGx6hWKzNWcEwFKX5/kGg0Rjjk4PHo5a+IyEKmNtIiIiIicse1tLSwfft2/vzP/5xly5YxNjbGhQsXcF2XI0eOcOHChRvetlqtMDk5ydj4KOVy6YZbVEzTxO8P0NbWRsSJYlkKOEREFjr9phcRERGRO65YLDIwMMDevXsZHx+f1iz06NGj9Pf3UygUCAQCzeOu61KplBkbHyOfy1K54QQVsCwvoVCYeCyGz/ZpRKyIyCKh3/YiIiIicseNjY1x+vRpBgcHKZVK065LpVIMDg4yPDzcPFar1cgX8kykxsnlMpQr5RtWcNi2j4gTIRqNEQgEFXCIiCwiquQQERERkTuuXC4DsGHDBjweDyMjI6TTaYaGhgAYGhrizJkzLF++nFqtRqGYJ5NJMzmZem+qyvVjYk3DxPJaOE6EaCSK3x+47hwREVnYFHKIiIiIyB3X29vL8uXLefLJJzl+/DhHjhxh7969fOc738F1XS5cuMBbb73FI488QrFYYGJinEwm/YH36fV6icXiRKNx9d8QEVmk9NtfRERERO64qcknACtXrqStrY177rmH3/zN32RgYIDz589TKpUYHhmiUMhft6Xl/ULBMJFIlHA4jMfjuRMPQURE5iCFHCIiIiIyq0KhEKFQiCVLlrB69WrGx8c5dfrUe9Ubk1Sr1Q+coBIMhnCcCOFQGK/XvsOrFxGRuUQhh4iIiIjMCYZh4PVaxONx1q1bRzqdolDI3/B8y7Lw+/zEYnECgSBey3sHVysiInORQg4RERERmSNc6vU64xNjZLPpZnPSmZimid8foG1JO7ZtYxiaoCIiIgo5RERERGQOcF2XUrnI+PgY+XyOSqVyw3O9Xi+OEyHiRPF6FXCIiMgvKeQQERERkVlVq9UoFPJksmmy2Qy1Wm3GEbGGYWBZFtFIjLATwe/zY5oKOERE5JcUcoiIiIjIrHBdF9d1KRbzTKZTpNOTM4Yb0Nie4vXaBINBotEYtu1rTmcRERGZopBDRERERGaF67pUKmXGxkbJF/I3DDgAbNtHJBIlEU+8V72hgENERK6nkENERERE7rhKpUI2myU1OUa5XL7hiFiAQCBENBrDcRwFHCIi8oEUcoiIiIjIHVUql8hls6QzkxQKhRueZ1kWwWCIcMghGAxpRKyIiHwohRwiIiIicke4rku5XCaTzZDJTFIo5Gc8zzAMPB4PwUCQeCyB3x/A4/Hc4dWKiMh8NLdCDtdtfBlG40tEREREFoxKpcL4xBjZbPoDR8Sapkk45BCNxgiFwndwhSIiMt/NmZCjXi5SG7tCefAsdvcaPLEWTF9gtpclIiIiIp+Q69YpFAuk02my2TTVanXG8wzDwDAMkokkoVAEn8++wysVEZH5bs6EHG61QjU1QvHUQUpn9uEJRvHEu/EkV2Al2vBEk5i+4GwvU0REREQ+ssaI2Gw2QyabIZ/P37CCwzBMbNuL40QIhyPYtu+9JqMiIiIf3ayHHK7rUiqVuDp4hdSFi1RHRvGkTuEzTPyRNgJLVuBracVq6QanhZoVomr5qVo+6sat35vZmMHuxbKsOfHEOjVKzePxYNu29qOKiIjIvOC6LvV6jWKpSGoyRT6fp1abuYLDNE1s20c47BCPxbEsL4a2LouIyMcwJ0KOkZERXnh5P6dOnSIWXUIi0kGbUaSlOIRz7CUCxYuYhkUl0Ek+uppspIus00bBG6JWh2r9xjPVb5bX6yUWixGNRrHt2S+RnAo5AoEAyWSSYHDmahbLmvm/0jCMGcOamV44TB3TiwoRERH5pGq1GoVCnrHxUYrFIvV6bcbzDMPA67WJxeLEovE58SGTiIjMX7MectTrda5evcq+fft47rnn8Hg8WAZ4DRerXiFAibuTLuuX+FmzpMCy5DDtE34qppezk3X2XSjwbH+OfOXWBB1T3bw9Hs+ceJJdsmQJy5cv5+jRo1Sr1RnXFI1Geeyxx/D7/dddl0wm6ezsnHbMsiwcx8FxHLzeX45i83q9OI5DOKwGXyIiIvLxVatVMplJJlLjlMtl6jf4QMo0TQL+ILF4nGAwOCdee4mIyPw26yGHaZp0dHTw67/+6/T29pLNZslkGns20+k0qYkxzk0Oc+H8OHvPD7MkNMpdSZueZJiyL4k30sbGzVEsXxDH7yXi9RAMBvBGEh+rcWm1WiWXy1GtVqnX67fhEd+ccDhMNBolEomQyWSu28daq9UwDIPh4eHrtrKUy2XeeOMNJiYmph03TRO/34/P55t2G4/Hg8/nw+fzNY9FIhHa29unBSVT58VisWZIYhgGgUCAQCAwLTiZOqZtNiIiIguf67qUK2WymQzZXJpSqdSsSn0/y7IIBELEojECgcANq1JFRERuxqw/m5imSWdnJ1/4whd49NFHSaVSpFIp0uk0ExMTXLlyhbNnz3L+/HnGxsa4XK9i+KtU7QD+cALDbmEJFoFQiBWJAFvafHQmI4w5vZRDrQQCARzHwbZtbNvG5/Nh2/YNt2RUq1UmJyepVCrUajOXVd5JrutSrVYpFovkcjnK5fK066vVKvl8nuHh4etCmWKxyNmzZxkfH592vFKpkMvlqNVq0154VKtVKpXKtI7nUyFHV1fXdWvzeDzTvo/hcJhwODwtJAmFQoRCoeYLl6n/D8dxmud4vd5pQYjH48Hr9eL1eqdtoQkEAtpKIyIiMkfV63UqlTKZbIZ0OvWBAUfjuT9ExIkQDjt6fhcRkVtm1kOOKR6Pp/nmd+nSpdddP1XZMTExwYULF7h69SqDg4NcPnmS//zP/ySXy/Gpbj/+zQ71hJcfp5ZyydtNV1cXq1evpquthSUtSVpalxBPJjE8XgzDxDDNZt+Kqa0qyWRyFr4Dd065XGZ0dJRSqTQtyEmn06RSKXK5XPNYJpNhdHSU0dHR5rF8Ps/AwAAHDx6cViXiuu51L2bef6y7u5u77rqLvr6+5rFwOEx7e3szxPD7/cTjcSKRSDP48Hq9dHV1NcMSwzCwLGtaCHJtievUCLprXzS9/7KIiIjcGq7rUqmUSWfSjI1d/cBqWMMwCYfCRKNxgsHQHVyliIgsBoZ7o4h9jqnX69RqNWq1GqVSqVl1UCwWmZycJJVKUStksKs5MhOjvDs4wZmBYS5cuMDJkyf537bH2dIVYqxkMJBxmUyux2pZTqy1rVmpkEgkCIfDBIPBBf1meKo65P0vQKa+v9cGH/V6nWq1Oq26o16vUy6Xm9t6pu5zYmKCYrE47dyrV68yOTnZvFwulykUChSLxeaxixcvcvDgwWZIYZpmsy/KFMMwplXghMNhduzYQTwex7IsbNumu7sbv9+PZVl4PB4ikUiz74hlWYTD4WlVJSIiC8I3vwnf+Mb1xy0L9u6FBx+882uSRSebTZPOpMlms1SrM4+IBbAsL/FYAscJY9t+9eAQEZFbbt682zNNsznedaYGm8VikWKxSKlUIpvN0pnNsiWVYnR0lMHBQe7yDOLPDRIZuUR38SytY2mKuVPkLzn0Y3Gg5idVtSm4jTfMmzdvprOzk0gk0py2Eg6HF8Se0UYXc++Hn3iT8vk81Wp1WkiSy+WmBRrlcpl8Pj/t2Pj4OA888EDz8tR2mmq12gxkCoUC+Xy+GXa5rks6naZYLOLxeCgWi/z0pz8FaFblXNt3pDGazm6O4Q0EAqxYsYJ4PN4MQRzHaYYgHo+HYDDY3EZjmiaBQAC/Xy/IREREptTrdXK5HOn0JPlC7oYBR+N5OUA47BBxoni9Xj2fiojIbTG/361fw+/3N8OPtra2665PnTtJceA0ibFzWBMnqefTZNJZrly9yoWLZ7g0UmAw62W4EqToWhTTE/jCEWp1l2QyyapVq5pveOPxONFolGAw2Ozx4fF4mm+iTdPE5/MtuifvmcbbxuPxm76fUqnUbLLaKH9thB7ZbLZZWVIoFKb1IUmn04yMjDR7ltTrdTKZDJOTk7iuS71ep1gsNgMSv9/P4OAgsVisOSr42uqdays/PB4PlmURDAabnd+DwSBLlixpbpnxer3N66YuBwKNxremaTarTURERBaGX34IkZpMkc/nqNWqM545FXBEIlEiTgSvV8+HIiJy+yyYkOPDxHr7oLcP3Dr1coXK0HkCA+8SPf8GKyJFPlMpUQp0kgms4ErFpj9vsvsXR9j32iFc12Xbtm3NqpBVq1axfv16Ojs7m4GH3+8nmUwSj8fx+Xy0tLQ0t06Y7+v7MfWnekTM7P0TXj6qP/3TP23+vVKpMDY2RqFQaG6vGR4eblaDFAoFBgYGyGaz1Go10uk0R48e5fTp02QymWYvkandXO+/3NnZycMPP9ys/AgGg7S3tzcrPRzHobu7GwDbtgmHw83AZ6pSZOr//tqfh2svw8y9RURERGZbrV4jm8syPj5GqVS8YYPRqS2o8XiCcMiZ99WwIiIy9y2+ZxrDxLRt7I7leFvaCazbhlv6H6iMDFAaGSAweJbw+cOs7NnCZx/6E0otPWSzWXK5HCMjI4yMjJDP58nn85w+fZpz584xMDDQbIQ59ebVsixWr17NmjVraG9vJ5FIEI/HaW1tpbOzs1kl8HHezMuHsyyLZDI5LZxYunQp9Xq9efnaCTq1Wo1CoUCpVGqGIhMTE83O8MVikbGxsWaz1mKxyOjoaLNa5/Tp03z3u99tBhJTW6uAZkPbqR4jd911F6tXr6alpQWAaDRKIpEgEokAjUokx3GafUhisdiMW7RERERmQ71ef28SXopy+cYTVEzTQyAQJJFI4vf7NU5eRETuiMUXcgAYBobtw7B9mKEo0I7ptGO1rSSwbB1O32bMQAKrfQWeZCflcpnM6AiTgRq5cBW6tlOo1UlNphkbG2N8fJxsNku5XKZYLJLJZCiXy1iWRalU4tKlSzz33HNUq1WCwSCO4zS3uXR0dLB582aSySSxWIxYLNasBlls211upU/ad2Qq9Jja3jI1qrdWq00LQaZMTk7yqU99qnnbqd4w0Nh+c20fEtu2KRQKDA0NAfDqq68yMTHRDLyuHcNrWVazIsjn87FixQqSySQ+nw+v10symZw2HjkSiUzbLuPz+VQFIiIit0Rjy2iFyckU2Vym+cHATDweD6FgmGg0RjAQnFalKCIicjstzpBjBp5QBE8oAm09wFbcUgFMD4Zp4vf78UbCBHwG1SA4fWswQxEMj9XY/lKtkE6nKVeqFEplUqlU803w5OTkew25GuNvK5UKV69epVgsUigUiEajjI2NUavViEQiJJNJWltbWbJkCS0tLcRisWYviGAweFsahsr1PB4P4XD4Y912KiDJZDJAoyluNpsln88DkEqlmJycbPYPqdVqzRd+9XqdfD7f3DJTLpebFSe2bTMyMtJsljrV5NXr9WLbNoFAgFgs1qwAmWqcahgGiUSiWTkyFZxMBSl+v7/ZAM7j8ShgExGR67hunXK5RDabJpWaoFqrzljB0ahm9RIMBIlEIoTDjsINERG5oxRy3IDhC0y/7LXxOHHceg2MX74BdCsV6ulRQtUyji+AEWthWVcHhmmBYTS+gD/4gz9oNtC8evUqIyMjXLlyhYsXL9Lf38/u3buZmJigXq/j8Xjo7e1ly5YtrFmzhra2NpYtW0Z3dzexWAyfz9fs9TE1+UPmjqmA5KOGJL/7u78L0Aw1xsfHm1Uj6XSaVCpFqVSiXC5z+fJl0uk0uVyO8fFxdu/eTalUAmhuxZm6r2svb968mfvvvx9o9DyZ2j4FsGTJEhzHwe/3Y9t2s1JkqiJkqrx46ucNmNZbZuo6vYgVEVmYprZ4ZjJpxifGpk1Ru1Zje6ZFOOyQiCfw+bTVUkRE7jzDvdFGSpmuXqdeKUKtiukPgWkCBtXRy2QP/gflsy9i2BGsrnvwrbgHu6MHjxPH8P6y58bUG8+pT+ArlQqVSqW5tWGq58fo6CiXL1/mypUrnD17ltOnT+P1evF6vfT19fHII4+wcuVKli5dSmdnJ8lkcva+L3JLua7b3BIz9fMytWXm2j4iUz9HUxNnyuUy2WyWbDaL67pks1kmJiaao5VzuRyFQgGg2UtmbGwMmN4Idap/iGmaxONxtmzZQkdHB7ZtE4lE6O3tBSAUCr33CV0jyEkmkziOMzvfNJHF7pvfhG984/rjlgV798KDD975NcmC0WjWnSeVmiCXz1KtzjxBBRrbMUOhCMlEEq/Xq/BbRERmhUKOT6heyFAeOE350lvU0pPUSxWoFjDMAp5IB56WlVitPVjxNjzh6LTQ4/0KhQK5XI5cLkcqlSKVSjWrPcbHx0mlUtRqNTweDwMDA/h8PhzHoaWlha1bt9Lb20t7ezvxeLzZuFIWh1qtRrlcplwuN8OQYrHYDEXy+Xwz5BgdHWViYoJcLgfAxMQE5XK5uc0ml8tN+5QuHA43m8xduXIFAK/X2+wrAxAIBLBtG8uyWLlyJa2trc2Ry1MhyfvH8Pr9/mazVRH5BBRyyG3SGBGbZ3JygnyhQLVaueG5oWCIUNghFAzj9/v1GkRERGaNtqt8QmbAwb9qC962HqpjQ1SuXqA6dIraxDiVkYtUJ7NUhs7hccJYsTY80XZMpxUr0YZhTZ8THwgECAQCtLS00NPTAzRGoebzeUZHRxkfH2doaIhz5841tytcvXqV/v5+UqkU8XicWCxGW1sb3d3dtLe309LSQiQSIRgMThtbKguLx+Np/vzcrPHx8ebUmKmQbarR6uDgIADlcpkrV640m6dWKhXK5XJzRO/Q0BCVSgXTNJmYmCCRSGDbNtVqtbmdqvEJX6gZckz1EAGaP7tTfUKmmvNO9RexbRvTNDFNk2AwqJ9jEZHbrFwpk8/nyWbTZHPZGzYYNU0Tn+0jEokSCjnN8FtERGS2KOS4FQwDTySJJ5LE17se3F+jmh6ncvk0pbNvU75wmOL4u+CNYrWswbfiPkLbduEJX/NCYKqg5n1v3rxeL9FolGg0ysqVK987tdG74eLFi5w7d47+/n7efvttnn/+eS5fvoxlWfT29rJ161Y2btzI6tWr6erqajYxtSwLy7L0RlEASCQSN32bdDpNOp1u9goZGxsjnU7//+zdaXCch33n+e9z9dP3ATRuAiAIggRPSKRIUaRkWZZ8yEfsxPFkp/IilcqLVF6karZ2dmumpmriqnmzb7ZqNpWqrcxWUmN7Y8eOnTiJ4lNlWRd18RAlguIFECdBHH3fTz/Hvmh0ixQBipR4gOT/UwWLIh40uqFGu5/f8z9wHKc1N6RYLLbmhjQHqV49J8R13dab5l27drXW6nqeR09PD7FYDF3XicViRKPRazYSNVfyXj0z5Oo1vc0ZIVev9JXnuxBC3BzXdSkWC+RyWSqV8rrHqaqG32+SiLcTDIZkOLoQQogNQdpV7hDPccC2cOtVvFoFJ3sFa2EKO3UFFIg+/e/QYsnVg12cSgnVMFGMm7sC0mxJaLYo1Go1UqkUc3NzTE1NMT8/z69+9Svm5uZarQLf+MY3OHLkCNu2bWNoaAifzyc768Un8tFZIVfPEbFtuxVgOI7TmhtSrVZbrTGWZZHL5Uin0wCtYaq1Wo1SqcTx48eZn58HaM0IaQYWzYCuv7+f3bt309PTg6qqdHR00NvbC0A0GiUajRIKhTBNs7WWWYgHkrSriNukEUY7ZLJZCoUc1WoVz1u/giMcitDW1hgwqqpSLSqEEGJjkEqOO0TRNNACaGYAwgnUcAIt3oNbyuO5Nmrgw80bnlWl9Nr3UUNJfJvH8PVt/fjbv6qMvymZTLJp0yZ27NhBNptlbGyM2dlZFhcXmZubY2ZmhomJCQBisRhPPvkko6OjdHV10dPTg9/vl9BD3JRm68itsG2bWq3WCkFqtVqr/aU5M8S2ber1Op/97GfJ5/O4rkuhUMCyrNbXZ7NZPM9rhR+pVIpsNsubb75JPp8HaFV9NIO85nM7Go2yd+/e1grdUCjUqmQJhUKEw2F0XccwDILBIH6/bAYQQjwcPM+jVquSy+colYqrM56uDzgagbNKJBIlGoni9wdQVXnvIIQQYuOQkOMuUc0AqhmA9p7rP+l5uFYV9DJe3frwr+sWbqWIWymgBMJogcgNKz0MwyAejxOPxxkcHGRsbIxCocDCwgKzs7OcPn2aM2fOMD09zeLiIoqicPbsWYLBID09PWzdupW+vr7WHA/DMGQ9rbhtmm1St6K5Rre5iaharZLNZnFdtzWgt1qtkk6nmZmZYW5uDqAVmJRKpVbliOu6hEIhyuUygUAARVGuaZlprv1thhyhUKh1XF9fH6FQ6JrPaZqGruutAKX571IxIoS437iuQ61Wo1DMk8tlcRybtQp9m9V0wWCYWCxGwB+UgEMIIcSGIyHHBqD4AoSf/ENQGmFIk1stYV2ewJr5AK29C1/PZrRoB4puomgGiq6DcuMQIhKJEIlE2LZtG88++yypVIqpqSmmp6d55513ePPNNzl79iyWZXH48GEOHjzInj17GB4eJplMEg6HMU0TXdcl8BB3naZpJBKJW/66K1euUC6XsW2bfD5PLpfDsixKpRLnzp0DIJvNMjU1xbFjxwBaLTfw4bpn13XRdZ3PfOYz9PT0tKo7Ojo6MAyDQCBAZ2cnPp8P0zQJh8OtYaqmabaCwqtX8zYfV7P9Brjl8EcIIW6XZmVdNpehUCisu0Hlw4AjRGdnJ7omK2KFEEJsTDKTY4Pw3MbKTkVRWsGFnV2iev4YpeM/w02No5hR9M5RfEMHMfpG8HUPooVit/R9HMehXq9j2zbVapWVlRWmp6cZHx/n9OnTjI+Pt+Z4fO5zn+PIkSM8+uijDA0NEYlEpJ1F3Bds227NC2mGFc0/W1ajWsp13VZ1CDS2zORyOTzPo1AokMvlqFQqeJ7H/Px8a5vMwsICp06dolgsoqrqNYHF1W08jz32GKOjo4RCIUKhEF1dXa3foa6urtaKXV3X6e3tld8t8cnJTA7xCTUrOJZXFqlUqrius2YFB4Df9BOJRInF4hiGTwIOIYQQG5aEHBuYa1VwssvYS9M42RnsfBankMct58HJoEWS6Mlh9M5t6Mk+9LZOVDN4E8jpYgAAIABJREFUS9+jXq9TKpVIpVJcuXKF6elpJicnmZ6eplwut9aJxmIxDhw4wPDwMAMDAwwMDBCJROQKtHhgVKvV1R50r9Xi0gxLstlsKxwsFossLS1hWVarfQZoDU2tVCpAY25JswKqUCiwuLhIoVBAUZTWlqNmKBIKhVAUhWQyydDQEG1tbaiqSjQaJZlsDCgOBoMEg8FWO4wMUxUtEnKIT6Bu16mUy+QLjRkcjuOseZyiKPj9AaLRGOFQGJ/PlIBDCCHEhiZnqBuY6gugdg5gdPTj1irYq4FHfeE8TuosbqmAVTlPfWUJNWhiJPswerZhdA2j+kPXraNdy9VzPIaHh9m/fz+pVIrp6WnOnTvH+Pg4Fy5cYGZmBkVRGB8fJxwOs3nzZoaHh+nu7qatrY1EIiGhh7iv+f3+Wx40eqOQY2lpqTU8NZ1OMzk5SSqVwnVdyuVyq5LEsixWVlbwPK9VTRKJRK7ZYAPrhxw+n4/Ozk5Cocb6Rl3XWy0zhmFcM4DV5/PJikchBLZdp1gsUizmKZWKrVa9j9I0DdP0E4nEiIQj1ww7F0IIITYqOSO9HygKqj+Ir3sQX/cg7H4Sp1qkvjiDNTVO7dI7WBMnqSom/h3PED7y71HMAIqiges2WmE876ZmePj9fvr6+ujr6+Pw4cMUi0Xm5+cZHx/n7NmzvP7667z33ns4jsPY2Bhbt25leHiY0dFRtm7d2jrxMgwDwzCumTsgxIPG7/fT3d19S19j2zYLCwutbTH5fL41TDWfz7O4uEipVKJcLnPmzBmOHz8OcE3bTXNtr+d5RCIRHnnkkdaGJNM02bRpE9AIRmKxGNFoFNM0iUajhMPh1ueuria5uu2mGVY2Pye/w0I8GJqvHaVSkVwuTblcXvdYVVXx+/3Eogkikai01AkhhLhvSLvK/cpz8Wwbz7bwrDJOIU19aRY1FMMc3N0YYKooOKU8Tm4F17IwOjehBcMff9tXaV5NbpbvZ7NZLl++zOTkJPPz8/zmN7/h5MmTmKbJ9u3bOXToEPv372doaIjNmzdLdYcQH3F1QHF1YAFcU73RnB9Sq9WAxqDUYrFIrVbDsiyWlpaoVCrU63VWVlao1WqUy2Xm5+d59dVX8TzvmjkhH/3z5z73Ofr7+1stMYlEorU5phmSRKPR1qYlsYFJu4q4SZZVI5fPksvlqNetdedvAMSicaLROKFQSAaPCyGEuK/I2ef9SlFRDF9jpaw/hBqMo0U7QNVQfGarVcUtZqhNnqJ++RzhI7+HFtx2S9+meVLUPPmJRqN0dHQwNDREPp9n7969TE5Osri4SDabZW5ujnPnzlEul4lGoxw4cIB9+/YxMDBAd3d3a92mEA+rqyslbkV3dzf1er21Baa5JrdxVbbUWrNbKpX4+te/DjRW6ZbLZSzLolwuUy6XqdVqeJ7XmhWSTqd5++23SaVS1Ot1DMNoVXtc3e4yMjJCV1cX0WiUQCBAe3v76qaFIG1tbQCttbsSbAqx8ZQrZYqFPIVift2Ao7kJKhqJEQ5H8fv9EnAIIYS478g70QeBoqAYPjSj/fpPGSZaOIEXS6Ia1/bS1iaO4VYrqJEkWqQNNRhFNUy4wRsaTdMIh8OEw2F6e3sZGRmhVCqxuLjIzMwMExMTXLhwgQsXLrCwsMDRo0eZmpoiFovR2dnJ8PAwg4ODtLe3E4vFME1TQg8hboJpmtcMGr2Z1bqVSqVV7dEcJNwcrnr58mWq1SqlUonZ2VkWFhaoVqvXbJwpl8uk02lUVcW2ba5cuYJhGK0tTZ7nEQgEWiHH1XNDmttkmmt3/X4/uq5jmmYr7GyupxZC3Dmu51KtVFcHjBZa1WEfpShKI+QMhYnF4pimBBxCCCHuT/Lu8gGnt3Wjt3UDn73uc5V3f4W1vIDeNYLR1d9YSRvtRA1EUAwTdANFUW84wFTTtFZJ+8jICM8++yzFYpGpqSnOnTvHW2+9xbFjx5iYmMCyLPbt28fBgwcZHh5my5Yt9PT0EIvFCAQCreGIQojbIxAIEAgE1vzc/v37r/s727YplUqk02kAVlZWyGQyuK7L/Px8a37I/Pw8x44do1gstlpsoLGi2nEcTNNkz5499Pf309bW1gpGA4EAkUiEtrY2TNMkkUgQCoXw+XyYptm6itwMPgzDaLXXSBgixK1zXId63SKTSVEqF7Fte83jGr9jBuFQhPb2JLpuyCweIYQQ9y2ZyfEQq144QW1qHGtunPrUS40TjJ69mFuewte/A6NnCC0UawwsvQWe52HbNvV6nVqtRiaTYXp6mgsXLnD69GlOnTrFmTNn0HWdQ4cO8fTTT/P444+zY8cOIpGIBB1C3CPNGSHNTQvN1pir/9wMNWq1GvV6nUKhQCaTAeDKlSurvf51pqencRyHVCrF2bNnmZycxLbt62aEdHR0sHXrVnbv3o1hGHR0dNDf3w9AX18f4XAYn89Hb2+vXFVej8zkEGvwPJdypczKyjK1ahXHddZtUTEMX2NLWjjWGhouhBBC3K8k5HiIuaU8TjGLW1jGTk9hpxdxaxaeVcfNX0bRXbTkEEbvHoyOAbRoEjUQaswBuQXNq8O5XI6VlRXm5+eZmJhgamqKTCZDLpejWCySSCR44oknrpvhISc2QmxMV6/BBVrzP1zXJZfL4TgO1WqVTCZDPp9vzQipVCqUSiVKpRK2bbcqOLLZLEtLS61KklAohK7raJpGMBhEURS2bNnCzp07Aejt7SUabcwNiMfjrdlB61WvPLAk5BAfYds2xWKefCFPpVJubWb6qMbMLR9tiXaCoRA+wycBhxBCiPue1P8+xNRQFDUUhc5+fJv3YmeXcbJLOOnL1Bc1nOwcdnYFt/Y+9dnTGP17MAdG0dt7b+n76LpOLBYjFosxMDDAnj17yOVyzMzMcPHiRc6ePcsHH3zAwsICb7zxBpOTk8TjcbZv386WLVvo6+ujvb1dJrwLscGoqnrNrJBIJHLD42u1WmtOSDPwKBaLFIvFVkXI/Pw8s7OzuK5LtVrFsizq9TqpVKo1M6T5dc02Fr/f39oCEwwGiUajxONx2tvbiUQirZkgzft69VwQOaETD5LGtiabQrFAPp+lXC6vu0FF13X8ZoBQOLxaRanL74MQQogHgoQcojG4VDcwkr0YyV7gEeDLWIsz1BcuUZ89jTX1NqChxztaIYfnOnjVEp7joIWiqwNLP/4NkmEYJJNJkskk+/bto1qtsrS0xLFjxzh69CgnTpxgdnaWnp4eduzYwZ49e9i5cydbtmwhFosRDAbx+eRqkxD3m2bAEI/Hb3hcs0IknU5TKpUol8ssLS2RyWRIp9OtlbknT55kZWXlmjYa13UxTZP+/n62b99OR0cHoVCIYDBILBYjGo0Si8Voa2vD5/O1Kj+aW6RUVUXTtNZHs7VGiI3O87zVELBEJpNqbVJai6qqBALB1TWxsbt8T4UQQog7S9pVxLo81wHHxnPqYFu4loXqD6EGI4CHnUtTfu8lvEKa8Gf+oNHKot16btacAWBZFpZlsbS0xPnz5zl16hT/8i//wrlz54hGozzxxBN84Qtf4NChQwwPD0vQIcQDrPm6cPWckKs/mhteSqUSxWKRfD5PPp8nl8uRSqVYXFykVqsxMzPDuXPnmJycvGYWSLMq7PDhwxw4cIBwOExfX19rkHIymSQajRKJRK7ZarMhSbuKoFEplS/kSKdX1m1PgcYMjkbYlyAYkApJIYQQDx6p5BDrUlQNVK2xaQVQ7DrK1W+GPBfV8OP6IyhXlX17dh23XEDRDRSfH0U3bvx9Vvvxm5sgmispR0ZGeOSRR7h06RJTU1NMTU3xgx/8gB/96Eds2rSJr3zlK+zZs4eenh5CodAd+zkIIe6+5uvCx2lra6Ner7c+LMuiVqtRLpexbZtCoUAulyOfz5NOp7Esq1U9Vq/X0TSNxcVFzp07x09/+lPq9TqGYeD3+zEMA8Mw6O7uZs+ePQQCAbq7u0kkEq05IM1KEL/ffxd+KkKsrVIpk8/nKBQLrW1Ha/EZPiKRKOFIBL+siBVCCPGAkpBD3LSPhhWqGcDXuxXXrjeCEKXxZsmtFKhNjeNkL6H6o2iJfrREN1oojmr6Qb3xiYvP56O9vZ329na2bNlCLpdjenqa9957j1OnTjE5Ocnk5CTf//73GRoaYnR0lNHRUQYHB2lvb5eTDSEeIs22ko/7vfc8j2w229r6lEqlqNfrZLNZ0uk06XSaZDJJNpvFsixs2yafz1Or1bhy5Qqe56GqKrZtt1piotEowWAQv99POBxmcHCQYDBIKBQiHo+35oU0V2TL1gpxuzmOQ7VWpVBoDPC2rNqaxymKgs/nIxwKE4vF8flMCTiEEEI8sCTkEJ+QghoI4xsYve4znlWlvjxNbfzf8PCjdWzH3DSKnuxGj7ajBGOovuBqlYfeCkfWout6K/DYt28fy8vLTE5O8vbbb/Pd736X48eP09PTw759+9i3bx+7d+9m06ZNrWGDMlhQCAGNk7xEItH69+aa2o8qFAoUCgWq1Spzc3NYlkUul+PSpUuUy2WOHTvGxMREq2WmGXr4fD4OHTpEIpEgFouRTCbx+/0kEgkSiQThcJhQKNR6bWpWiVw9/0PXZfCjuHmN7UUV0pk05XJx3QoORVFWKzhiRCNR/P6HbPuQEEKIh47M5BC3n+vi1WvUU/NYcxexpk9Tn30XNz+JEujE6NmDb8sBzKHd6MluVDN4CzftttZSrqyscObMGd555x3eeOMNTpw4webNm3nmmWd4/vnn2bNnD7FYDMO4cbuMEEI0NWeANLZUNE4am687zcGO1WqVQqFAPp9nZWWFbDZLsVhkcnKSXC7H+fPnefvttwGumQOiKApPPvkke/bsobu7m02bNhGPx4nH4yQSCXp7e2+qRec6MpPjoeO6LsVinmwuS6lUvOH8DV3X6ezoIhgMoetSTSSEEOLBJyGHuGM8q4ZTLuAWM7jFFZzsPPXUMk52BbeUAopo0R705FaM3lH8w3tRzJu7wuR5XqucfGVlhdnZ2dZWltnZWVKpFPF4nC9/+cscOHCAzZs3097eLm/uhBCfmuu62Lbdan1prrktFAqtyo/l5WUqlQqlUqkViDSPq1arrTXaiqJgGAamaRIIBBgZGaG/v5+Ojg76+/sJh8OtFdzRaHTt1zAJOR4ijQAuk0lTKDYqjhzHXvPIRhtXgGg0RjgUloBDCCHEQ0PaVcQdo/hMdJ8J8SR4W3ErRYz0FeyVGezlSziZaZxqnfryPGh+zM07UFgNOTwPz7Ya21rWmOHRPDFotrIMDQ0xMjLCpUuXOHnyJMePH+fy5cv84he/4N1332V4eJhHH32UzZs309XVRTQavcs/DSHEg0JVVXw+X2sF7Vo8z6NarbaCjmKxSL1eZ2lpiZWVFVZWVuju7iabzVKr1VqbYi5fvkw+n0dVVarVKoFAgHA4TCQSIRwOMzIyQldXF5FIhFAo1Bh8aln47vLPQNx9ntdYrVyulMnn81RrFVzXXfNYTdMIBkNEI1FCoTCaJq1QQgghHh5SySHuDdfFKWSwLk9ipxdQVJXgI59FDYQB8OoW1sJ5tEAMNdKO6r/5lpZyuczCwgInT57kBz/4AePj4/h8Ph599FHGxsbYu3cvW7dubW1GkD54IcS9sry8TKFQoFwus7y8zMLCAktLS0xPT/Pqq69SqVSwbbu1Mvczn/kMmzdvJhqN0tHRQTKZZMc//APD3/3u9TculRwPDM/zsOo1isUi2Wyaer2+ZsDRbI3y+wMkEm1EwhGUG8y9EkIIIR5EEnKIe8fz8FwHXBcUUDQDVsMGJ7dE6v/7z+gdIwT3Pod/9LFbuFmvVU5eLBa5cOEC77zzDq+88grHjh3D5/Px2GOP8a1vfYsDBw7Q2dkpczuEEPeE67qteQqu617zUa/XWVhYYGVlhUwmw8LCApcvX+a1117jrbfeap3Q/h+1Gv+ltsZWDQk5Hhj1ukUmmyabzbTmw6xF13WCgRDt7e2YZkA2qAghhHgoScghNiTPqlC98DaKEUJv60NP9gDglovUV+awVy6jdw5gJHtQ/WuXi0PjpKFUKpFOp1laWuLdd9/lwoULzMzMMDU1RSwW49ChQzz33HPs2LFDBpUKITaUarXaamepVCqtio/FxUVyuRxLS0s8/qtf8cxLL133tZ6m8Yv/9J9wn3iCvr4+Ojs7SSaT+HzS3HK/cN3GoO18PkepXMKyausGHD6fSSgUJhFP4PP5UD9mXbsQQgjxoJKQQ2xMnodrVcHzUDQdxWi8KbezK9QmTlI59xaqCXqiF72tHy3ehxZrRwvHUQxz3ZtdXFxkZmaGM2fO8Morr3DlyhU8z6O9vZ0tW7awf/9+RkZG6OnpIR6P361HK4QQt8RxHAqFAplMhsh//+8k//IvrzvGVVX+8vd+j7Pt7QC0tbURj8cZGhpicHCQ9vZ22traCIfDEu5uQI5jU61WyWYzlCtlbLu+bsDh9wcIhyKEwmFCwfWDfyGEEOJhoH3729/+9r2+E0JcR1FQdKPxcdVKRdeq4OaWsJcnsS+/i31lEntlAbtYwCmlwLbAsfEcB/BAVa/pRw6Hw/T19bFz504ee+wxhoeHSafTHD16lGPHjpFOp8nlctRqNTRNa5WDN/8shBAbQWPugp9EIkHw2DFYq5JDUTh3+DCnczlOnDjB+++/z5tvvsnc3ByZTIa5uTmy2SzlcplqtUq9Xse2bTzPa732iXvDcWwqlQqFQp5sLoPrOmsepygqhuEjkYgTi8YI+G9uQ5kQQgjxIJNKDnF/ac7xsGs4xRzWwhS1S6eoTb6Ds3QCxRfH6BnDN/wEvsFRfL3DaMHImjfV7HsvFArMzMzw9ttv8/Of/5xTp05h2zZHjhzhm9/8Jo899hjd3d2Y5voVIkIIcc/cYIWs9etfU9izh+XlZaanp5mYmOCDDz7g3Xff5fjx46iqSn9/P2NjYzz++ONs27aNwcFBent7aWtru/uPRQCQzWXI5TKUy+V1qzcATNNPe1uScLixIlYIIYQQEnKI+5Xn4Tk2brWMW87hFFZwc5exMyvY6SXs3BWoXEYNd+EffZrAnmfRQtHWYNOrOY6zWhKcZXZ2tnUScPr0abLZLJ2dnTzyyCM888wzbNmyhUQiIT3tQoiN4wYhBy+/jPP441iW1Vpnm8/nSaVSzM/Ps7S0RDabJZvNsrKywszMDADJZJKtW7eyb9++VujR3d2NYRhS1XYH2bZNvpAnn89Rq1VwnPUqOBTCoTDRaExWxAohhBAfod/rOyDEJ7LazqKFY2jhGHrHJjxrB04uhZ2aw16+hJOZwq3WQLl2+JpnVXEqJbx6DT3WjmaYhEIhQqEQXV1dbNu2jV27drF161ZOnjzZGlh67tw5+vr6ePTRR9m7dy99fX0EAgE0TYa7CSE2Lk3TCAQCBAKBVnVGM9zNZDKkUikWFxeZnZ3l3LlzLC0tUalUmJ+fJ5vNomkawWCQrq4utm/fzuDgIJ2dnUSjUQIB2eBxe3hUazWKxQKFQp5arXaDFhWFcDhCLBojGAyj6/JWTgghhLiaVHKIB5Pn4tZt7JV5FMNAi3eiNoeXZpawFi7hZK4Q2PUEerxz3ZuZnZ3l/fff59VXX+UXv/gFhUKBHTt2cPjwYcbGxhgeHiaZbJQKSzuLEOKe+JhKjptdIet5HqVSicuXLzM9Pc2lS5c4deoU586dY2FhAdd12bt3L6Ojo2zevJmenh4GBgaIx+OEQiGCwSC6LhUFt87Dsixy+UZFTb1urXmUoihomoZpmrS3dxAMBGWDihBCCLEGCTnEg6359L7qTXdt+gPKp16idvFNEt/83zEH99zgy73WGtorV65w9OhRvv/97/Pyyy9jmibf+ta3+OIXv8iBAwcYGhq6049GCCGud5tCDmi85jU/mnOLlpaWmJiYYHx8nDfeeKM1vDQYDHL48GGOHDnCwYMH2b17N8lkUqrbbknj57y0vEShkF834ADQdZ1QKEx3Vw+qpqIgFTRCCCHEWiTkEA8dt1LEyadxyxmM7i2ogQ8Hk+Z//T9wKhWMrhGMriH0jj7UQAgPBcuyyGQyTExMcP78eSYmJjh79izpdJpYLMbjjz/O008/zdatW2lra5MSYiHE3XEbQ461WJZFuVxuraxdWFhgfn6e2dnZ1hyjYrFIMpnk0Ucf5dChQ+zatYvu7m6CwaBUdqzDdR1qtSqpdIpqtUK9vv6KWF03iEajxGIJ/KZffqZCCCHEDUjIIcRVCr/5DtbSHKCguEW0WDt6cgtacggt1okWSWCjUigWmZ+f5/jx45w5c4b5+Xmq1SptbW0MDQ2xc+dO9uzZQ2dnZ6uEWwgh7og7HHJ8lGVZ5PN5lpaWmJyc5PTp01y6dIlcLoeqqvh8PqLRKL29vTz66KMMDAzQ1dVFNBqV18JVjRWx5dUho3k8z10z4Gj+PMPhKOFQmEBAQiMhhBDi42jf/va3v32v74QQG4VqxlDMEF45Q/3yCezFi9i5LG6pjFNcwatmUZ06AdOksyPJrt272bN3L909PWSzWU6dOsX58+dbA/vy+TyO42AYRmsrgbxBFULcVq+8Ai+9dP3fqyr88R9Df/9t/XbNQaQdHR1s27aN/fv389hjj7F161Y0TeP8+fOcOHGC8fFxCoUCy8vL5PN56vU6juOgqmrr42HTbAMql8vkC1kKhTyu6655rKqqmKZJNBonHkvg90sFhxBCCHEzpJJDiKt5HuDhOQ6uVcVensWau4h16V1qEy/jVpcxesbwDT+F0TuC2TeCFmsHw6Rer3Px4kVef/11fv7zn/PCCy+gKArf/OY3+cM//EOefPJJIpGI9KsLIW6vu1zJsZarZ3mkUikuXrzI8ePHef3113njjTewbZuxsTGee+45nnrqKUZGRojH43f8fm00juNQKhVJpVeoVMo3PDYQCBKLxUnE2yTcEEIIIW6BhBxCrKX5ht2q4lXLuJU8bjmNtTSFk8vgZJZxMpcwhw8T2P0kvr4RPM+jUqmQzWaZmZnh9OnTnD9/npMnT7K8vExvby9f/epXOXDgAMPDw61VjkII8alsgJDjavV6nUqlQj6fJ5PJcO7cOSYmJrh48SJvvfUWgUCA4eFh9u/fz5EjRxgeHiaRSDzwrSxW3aJUKpLJpLGs2roVHACxaIxwJEYwEMQwjLt4L4UQQoj7n7SrCLGW1bYSRTdQ/UG0SAI90YMW60aLJNHCMbRQFK1tE3pbD1ooiqKA5tQxM3O0KRZDux9lcGiIWCyGqqoUCgVWVlY4c+YMU1NTOI6Dz+fD5/M98G/uhRB30F1uV/k4zTWn0WiUrq4uent72bRpE93d3UQiEYLBINVqlenpad577z1OnTrFlStXUFUVTdMwDOOBq3irVCsUiwUKhTzVauUGA0Z1QsEwsViCYDAkAYcQQgjxCUjIIcTNUhRUM4geS2J0D2FufgS9rRstGEXRNPA8nGKO6tm3cDMLJLbvo7d/gD179rJ7107aEzHS6TTj42c4f+ECqVSKQqFAtVrF8zx0XUfXdSlLFkLcmg0WcnyU3+8nmUyydetWjhw5wq5du0gkEmSzWd5//33ef/99pqenyWQy5HI5HMfB8zw0TcPn893T+/5peZ5LvW6Ry+UoFHJUq5V1jzUMg1AoTDzeCDgk/BZCCCE+GWlXEeJ28Vzs7ArVi++CaxN89HOohg8UFbdWoZ5LYXsK4xcv8cvfvMQ//uM/cvbsWXbu3Mnzzz/PN77xDfbs2YNpmvf6kQgh7icbrF3lZnieR61WY3Z2lhMnTvCjH/2If/qnfwLgi1/8Is8//zyf/exn2b179307oNTzPOr1GisrK5RKRep2fd1jVVUlHkvQ3p7EMO7vYEcIIYS41yTkEOK28fDsOm6lCJ6HGk6gqAqgUF+conT8V9Smj1IhTE7v4opjcvZKmrdPn2dyfgFN03j88cd55plnePTRR+nr67vXD0gIcT+4D0MOANd1qdVqFAoFFhYWmJiY4MyZM1y6dInZ2Vmq1So7duzg2WefZf/+/QwMDNw37Rue51EuF8lkM1QqZWzbXrNFRVEUDMPXmMERjqxuULk/Qx0hhBBio5B2FSFuGwVF1VDNAKoZXG07WW09cW1wHFTFxWcEieoKHWqJLm+JBCXadIWwoVLO5/jg/EXOXZwgn8+j6zqmad73JdtCANi2jeM6qLJK+fba4O0q62mc4BuEQiE6OzsZHBykv7+f7u5uQqEQjuNQKBT44IMPuHDhAktLS1Sr1dZr4kac29FYEetQKpXI53MUS0Vs217z2MaKWD+JeIJwOIppmvdt1YoQQgixkUjIIcRdoJpBjK5BjJ4daOEOFM9BKS8TspYZao8yNriJnQOdKMVFLn5wmksXzpJbucJipoDtOCiKgq7r+Hw+OTkU9y3LsqjXLRy78ZxWJOy4Pe7TkONqiqLg8/lIJpOMjIwwOjrK0NAQkUiE8+fPc+HCBaamppiZmaFUKuE4DoZh4PP5UFV1QzyPPM/DcRzKlRK5XJZyuXE/16KpGn7TTzgcpa0tga4bEnAIIYQQt4m0qwhxj3iug5NdoTZ1htrFd7Am38LOnMUx4qSsAMdmMvyXfxtn8+genn/+eb7+9a+zZ88eDMPYEG/ohbhV1WqVfCFHsVggEW8jHA7L/IHb4T5tV7lZ8/PzHD16lH/+53/mhz/8IY7j8KUvfYk/+qM/4tlnnyUWi22INhbHcahUylxZvEy9Xl93gwpAMBAkHk8QjcYl3BBCCCFuMwk5hLhnPDzbxq2W8CpF3HIWO7uAdWWWamaFdMXizWqcd94b5/z589i1Kl86coADTz/Hzkf20dvbe68fgBC3xHVdisUCqfQKruNg+v2EgmFCoRCGIVVKn9gDHnJYVmM7yeLiIufPn+edd97h2LFjzM3NkUgk+NM//VOeeuop+vv771nYUa37WkFrAAAgAElEQVRWKZY+fkWsqqoEAiES8TaCwaBsUBFCCCHuAGlXEeKeWZ3h4fOjhqJosQ60WBd6rBOzs5/owDY27Rijq6eHSCSCzymzs3oGNTfHykqKhYKN3+/fsL3pQnyUoih4XuOKd7lcol63se069bqF67ooirJhWg/uKw9Au8qNaJpGKBSivb2d/v5++vr6SCQSqKpKOp1mamqKS5cukUqlWjM+7lbY4XkelmVRKOQoFPLUatV1Aw7D8BEOh4nFEhJwCCGEEHeQhBxCbBSKgmL40CIJ9LZufG3dRGNxhoaG2LZtGyMD3ezWFyimFnlvYo43zy+QzWZRnTqGXUWrlVDURnCiSPmz2KAaQYayOq/Apl6vU61Vse1Geb+iIGHHrXrAQ46mxqBOk+7ubkZGRti+fTvJZJLJyUkuXLjA9PQ0KysraJrWmmF0J8MO13WwrBrFYp58IUetVl332Eb4EiEejxMOhSWYFkIIIe4gCTmEuA8Eg0E6+wbRtxwmHxnmgytFfvHib/je975HdXGGUGaaWH4en+lH9YdRDB9K82KinCiKDURVVVRVpVqr4jg2rusCULfrlMslLMtCUWgN2ZWg4yY8JCHH1UzTpKuri/3793PkyBFisRhnzpzhb//2b5mYmMDzPDo7O0kkEnfseVSpVshk02Sy6XU3qEAjtIvFEsRjCYLBkDynhRBCiDtMQg4h7hOKoqCZJrFkByOjOzn0xBOMjo7iL63gX/mA9sJp1Jm3qJ19DWv2PE65jOe6qGYARb/3Q/mEuJqqatRqNWy7fs3fu65DzbIolUu4noemaWialPXf0EMYclzNNE0GBgYYGxtjbGyMy5cv8/rrr/P6669TLBZJJpOEQqHbWj1RLBbI5jKUSsV1N6i0Nsa0dxKNRjF9pgQcQgghxF0gIYcQ9wul0Yri8/uJxmJ0dXXR19dHV1cngViclYrNm2+/TWrxMm4ph6+SwVk4RX3hAnZ6EbdaxXM9VMOHIieN4h5SFAVN07BWQ45mNQd8uIbTtuvX/LPZviIniWt4yEMOXddbMzs2bdpEe3s7wWCQTCbD66+/zrlz56hWq0QiEUKh0CduhfI8D9d1yBdy5PM5KpXyuhUciqLg9/uJxxJEItHWqlshhBBC3HkScghxH1IUBcMwaGtro3doBH/3MCtKjDNzacqewUq2wNzUBXKXjuFmV1CrFZRqGSczg1fNAwqqL4gifeHinlBQVa0xk8NuzOVYi23XsSwLq24B4OHJvI61POQhR5Ou68RiMUZGRhgeHiYQCHDmzBnGx8dZXl7Gsiw0TWvN6ri1yg4P27Epl8ukMykqlfK6FRyqqhLwB4hGY8RicXTdQFEk4BBCCCHuFgk5hLjPqapKLBZjy9ZtPPbZL1EK9fLCe3P8v794i+m8Q2xgjGiiC19xgcqx71E7/zYoOkb3NlR/sHEjngd4jX8qsPo/QtxRiqLi2DaVSnndYzzPw7brlErFxmBHT2ldFZegY5WEHNfQNI1EIsGuXbv46le/SiAQ4K233uJnP/tZa+1sPB4nGAzedHWQ67qUSkVWVpZvuEFFURRM008y2UksFkfTdHmeCiGEEHeZhBxCPCCa1R3d3d3s27ePJ448iRJK8G9HT/Lrd89xyTJJ7PsyidEjRLfuw+joa83qcMp57NQV6svzqMEwiu67x49GPAw0TcNxHSzLwnXXvip+Ndd1qVlVypUyjmuja7qEHSAhxzpUVcXn8zE0NMTY2BibNm1iYmKCF154gfPnzwPQ19eHYRjrPoeaIVsmkyaTzWBZ1roBh6pqBAIBOjs68fuDskFFCCGEuEck5BDiAdEs4w8EArS1tdHT20tHzyYC0TiqP8RSocLb45Okqh5OIEoo3kYkGgXATl2mdmkca/p9fD1bUAORe/xoxMNAUZRGAZHrUr3B1fGmxkwEF8exsVfbXBzHAUVB1x/iOTMScqypOfslHA6TTCbp7u6mo6MDgEuXLjE+Pk4qlUJRFILBIMFg8Jqvd10Xy7LI5TMUCwUsq7buc9QwTMLhCIl4Y4OKDMsVQggh7h0JOYR4ADXDjr6+PrZt20ZPTw+2bXN6/AyLmRxL6Sz5QhFd19E0DbVWgmIGr1rA1z/aCDk8D891sKZP4GQX8ep18DwUVW30lz/sV8/FbdFsFyhXytcMIL2RxtV1m1qtim3beN7q1yk8nMNJJeT4WD6fj/b2dkZGRhgYGCCXy3Hp0iVmZmZYXFzEdV38fj+BQABN01YDjiqFYoFcLku9Xl8z4GhW0IXDEWLROOFwROZvCCGEEPeYhBxCPOCCwSADAwPs27ePQ4cOsby8zG9/+1t++ctfsri4SDgcJt47QGxkjOD2g2jBRhWH53m4tRLZf/jPVM6+g1u28FwHRTdWB5Y2TiSVxpnlPXyE4vZqzGaxrQq1Wo1qrdYY/rnOR912qLseirdamaEotzTRRV0NzSyrhm3bNx10NNl2nUqlQqlcQlVVVE1Df9jmIEjIcVOubunbv38/O3bsIJVK8eMf/5izZ89i2za9vb0EAgFs2yaXy5JOr6z7nGxWikSjsdUKjuCaxwkhhBDi7lK8j6sPFkI8EFzXpVarkUql+OCDDzh69CgvvfQS2WyWsbExvvKVr/ClL32JUCiEpml4rotnVaiMv4a1MImTvoyTngSniN6zG9/gAYyeEYyuftRACEWV/vMHglfGqc3y2v/9f/GjV8/w5kLlhoebvdvoPvR1/v2+7ezdO0Rvb5zILeYLjuNQLpdIpZYp32AI6Y0oqy0rPp9JKBQiGomj6/rDsbbzv/03+K//9fq/13V4+WU4fPju36cNznEcKpUKy8vLvPbaa7z88suMj4+jqir/8T/+b4yMDOPz+bCdtVfEAvj9AeKxBKFwGEM3Ho7nmhBCCHEfkKZRIR4SzRaWTZs2EYlE6OrqYmhoiHfeeYcLFy7w13/91/z2t7/lK1/5CmNjY3R3daHpJubwfvSOQdz8Ek7+CvbKDJ4N9csXsaaOo5oaWqwXrX0Io2sILdbRCD2kJ/0+5eK5ZXKz57l4+l1OTJdueLR+cZbI9BVyr3fSO/YUjz31FL/zmd1sCqoY6s2lHY3nZpBAILi6Uta65Xvted7qjI7GzI5arUYgECIYDGL6zIerskN8rOasjmAwiGmadHV1cerUKS5fnicUDuK4zroBR/P5Gg5HCIcjNxxcKoQQQoi7T85ChHgIxWIx9uzZw+joKLt37+bnP/85L774Ii+++CLFYpGZmRn27dvHyMgI0WgcM54ERsHzqKeuYC/PUr9yEXsh3fhzahlt6Qr24hS+LY/i6x1GiyTu9cMUn1qMWMcgW8eG6QqoGNddqPZw6hVq+RTL509zcmKO9+cKuL4w33y8n+6QD99NXNxuVmEEg2GsuvWJQo4m13WoVh2q1Sq1mgWei65p6KubhIS4mqqq9PT0EI1G2Lp1CwtXLhONRtfdjKKqKsFAkEg0TigUwmfIJiohhBBio5GQQ4iHlKIo+Hw+9u3bx86dO/na177Gj3/8Y3784x9z9OhRHn/8cf7oj/6IvXv30tbW1ir9N5I9GMkeAjsONgaTLlzCmj2PNXWS6ulf4nmgheMfhhyui+fUG99T98n8jvvKZob2fo3/8P/8B77cb9JmfvS/nU01e5krHxzl5X/5Ht/5t+Mc/c2P+T+LETb1/S88vaWNTvPmS/iDwSA1q0qxWPjYTSs3o1arUKn48PsDEnKIdTmOg2XVQIFEYu1w1vM8FEVdHWDaid/vlxWxQgghxAYlIYcQAp/Px8jICH/2Z3/GM888w29+8xtee+01/vzP/5wvfOELfPGLX+TgwYN0dnZe83WKquLr7EePdxLYvg+vVgYjgBaKAY3VoHZ6kcoHr6GgENr/RVR/qDEQUTwANHyRbnr3PsdX+zfTnvgf9P7TG/z0xD/x9y8/RldwNx2D4ZseRKqqKqbPTzAYolwufeqgIxZLEIvG8PsDn+p2xIOpsZLYIZVeplgs3rCCqFaroao60WgMn88n8zeEEEKIDUxCDiFEa15HIBAgEonQ1tbG1q1beeutt5ibm+M73/kOb7zxBl/+8pfZuXMnsVhs9U2+gmKYaIYJoSgAnuOgqM3NK4DngePhqQpctXrWq1u4VgVF1VF8pszwuC8pqJoPX6id9mCAg899gfRymvPfPc67/3KUd4eSbOsdptu4uZhDURRM0yQcjlCplD9xyKFrOqFwhOhqwCEnpOKjXNelWq1QKBYoFgtYVv3DVcRrHHvq1Pucfn+cul3nW7//LXbt2kVbW9tdvtdCCCGEuBlyViGEuEY4HGZsbIwtW7awd+9efvWrX/Hmm2/y2muvkUqlePrpp9m9ezf9/f3E4/Hrvl65uoRbUVADQXx9I6CoKFf1rzulHNbcObzyCmowihruQA23oYXjKD6/bGu5ryighOjYvp9HDl3gyZfe4X8ef5sz5/Yx9dgg3e033ypiGAaBQBCfYWLVa7e8UlbTNAKBAIl4AtOUlgJxPdd1qVQqFIo5crkcruusGaipqoquG+i6jmH4WF5e5r333sN1XJ577jn27dtHT08Puv6QrSwWQgghNjjt29/+9rfv9Z0QQmw8pmnS09PDwYMH2bJlC/l8nr/7u7/j/fffp1KpEI1G6ejoQFGU1sd1FAXV50dv70Fv624EF6vH2cszlE78ivLb36M28S71pQXcag1FU1eDEgW85uGKzPK4ayxcO82FX/+Sd867lNq2c/irhxiJ6QT0G/83UHx+sLK4y+/z4skVzOFdbB4ZZnenedPfXVEUUMBxXOx6Hcd1bunem6afaCRKJBJ7eCo4XnkFXnrp+r9XVfjjP4b+/rt/nzYoz/OwLItsLk0ul8Vd5/nVmFlkEo3G6OzoYtvINgYGBqhWq/zjP/4js7Oz6LpOT09Paz6HBB1CCCHExiCVHEKIGzIMg7GxMbq6unjyySf56U9/yosvvsjbb7/NN77xDT7/+c8zODhIMBi8tdvt3kLs83+Mve9z1OensC5foHr6V1Te+Z9o0U3o3bvwDY7hGxhFiyVRfTd/oizuFQMzFKO9J4mmX2Axl+VKroJLlFuJGzRVIxaNUa2Useq1W7oHlmVRKpcIhyPouvHwBB3iYzmOTblcJptNU6lWblgl5PP5icWixGNtaJqGpumt18GdO3fy/e9/n7/6q7/ixIkT/Mmf/Amjo6NEo9G7+GiEEEIIsR6p5BBC3JCiKBiGQTgcpru7m02bNhGPx7Esi7Nnz/Lmm2+Sz+cJh8OtWR03c0VT0XRUf6jRohLrwEj2oncOoCf6UIwwbrlIfeEc1qWj2HPnsNOLeLaNFm1DkRPXO+iTV3IAeOUVyosf8POXzpDv3MXm7Tt4aluC1dqcm6IoCqqqYtUtbNte92r7mt/f8/A8F9u20XXj4bjCLpUcH6ter1MqFclkMlSqFRxn/QqOcDhCLBYjHIri8/lalWqGYRCJROjq6iKZTKJpGhMTExw/fpxqtUooFLql10AhhBBC3BlSySGEuCmGYdDW1sZTTz3F4OAgJ06c4Le//S3Hjh2jVCqxvLzMk08+ycjICG1tbZjmTVReKAqqGUTtCELHJnyug1sqYC/PYC1MYC9ewMlewroyiVqs4LkKvk0j0BxS6nl4Tr0xtFSR4OPeU9ENk2A4TFCtkSqXKJRr2ICPmw85oDEPIRgMYlm1G269WItt2+TzOTRVA8XDb8rw0YdZrVajXC5RLOYplYvrHqdpGn7TTywaJxgMYRjXz5LRdZ3+/n6+9rWvsXnzZn72s5/x29/+lp/97Gek02mee+45RkZGCIVCMg9GCCGEuEck5BBC3LKBgQF6eno4fPgwv/zlL/n7v/97vvOd7/D+++/zu7/7u+zfv5/e3l78fv8tXdFUVA0tEkeLxDG37MVzbOx8Cmv6A+z04upcjg9vz7Mt7NQcaqQd1R+WDS0bioqmqmiqckvhxtWCgRC1apVisbDuYEjP47qtGI1qDo9MNo3ruWgJFZ/v1p6L4v7XXBGbzWUpFHJY1vqtT40NU0ES8TZCoRDqxww+DofDHDx4kJGREXbt2sXf/M3f8MMf/pDFxUX+4A/+gK1btxKPxyXoEEIIIe4BOSMQQnwiuq7T1tbG1772NUZHRzl69Ci//vWv+Yu/+AsOHjzI7/zO7/D5z3/+U13RVDQNPdqONnoAHLuxoUX/8Oqqk54l83f/K+aur+Df/Rzmpq236+GJT0UDEnS0Jeluj2DCLc3kaN2KpmGafoLBMOVysRV0NNtZotE4jl2nWCquOV/BdV2KxQKu69KR7JQZHQ+Zet0ik81QKORvWA2kqirxeIJYNI5p+m/6OaJpGolEgueff56enh5efPFFXn31VSYmJvj93/99nn76aQYGBm7XwxFCCCHETZKQQwjxiSiKgq7rxONxdu7cSTwep7+/n1deeYXTp0/zt3/7t5w/f54jR46wc+dOksnkJ/kuKJq+boWGEkwQPPgt9M5taOEP19m6lRL1lXncYga9vRc93tHY/CHuMJd6rUw+kyLngl/XMXT1EwUcTabpJxwOU6mU8DyvNRshHksQDIZxXRtd18nmsq0KjqvZtk25XGJlZZlEou2WTmLF/cnzPMrlEoVCjmKpRL1eX7MSqBmWxWJxopHYJ3puaJpGLBbjkUceIRgM0tnZydGjR/nJT37C5OQk3/jGN9i1axe6Lm+3hBBCiLtF/l9XCPGphUIhhoeH6evrY3BwkBdeeIGTJ0/y1ltvMTc3x8GDB9m3bx9DQ0MEg8HbdpKphhIED3yzsZpW+7DCw62WqS9MYE2fRg0HMJL9aPFetEgHaiiGGoxIa8sdYVOt5EldWaZkx+iKxEhGzE/crgKNWTDBQBDT9GNZNXRdXx0MGUfXDTzPRVU1HNelXC5h2/Y1J7Se5zVmdBRyaJpKNBrD7w9K68oDynVdKpUyuXyOYjGPbdtrHqcoKj6fQTAYIh5L4POZn+p1KRaLsXfvXjo7O4lGo/zrv/4rb7zxBtVqleeff56dO3fS1tYmAZsQQghxF8i7fCHEbdEcFLl//35GRkY4ffo0L7zwAj/5yU84duwYn/3sZ/nd3/1dtm3bRiQSQdf1T32iqagqij90/Sc8F8+uYaencc6cpGJE0Du2Y2waw+jdjK9nC1ooDroPRTNWB5fKSe+n5lYo51MszKSw1a1sHxhktDf6qUKORuWGj3gsTqGQx+8PkEi0t4ZCKoqG3x+gI9nJ4tIVyuXSdZszPpzRkQEUNM3A5/N9inslNiLX/f/Zu9Moqc773vffZ09Vu2rX3NXzSAMNLaCZBwmwBkuyfCNbsmzFceLjazvjTXJ9VtbKOm+8rv3inpOVlReJjp2bG6+cm9ixYisSlq0JIyFZAgmQBAKEQAgxNDRDQ0/VNQ97uC+KRkLdLTN3NzyftfRC1cXup3dVddf+1fP//x2KpRIjI0PkC/lPCTiqz6lQKExNouZ88HD1r3+fz0draytf/epXSSaTPPHEE/z85z/n8OHDfOtb32LVqlVEo1EZdEiSJEnSdSZDDkmSrjnLsliyZAkdHR3cfvvtPPPMM2zatImNGzfy7W9/m/vvv5/Ozs4JpxdcC2okQXDJPZhdK3Ezg5TP9lE+dYjSke0U3v5fiGA9RuMi9Lal6E1zMOrbUHzmdVnLrcTLnqT/g/fYuv0khdkP0jK7nub41TdeVFWVUCiEz+dHVbVxW/8VRUHXDSLhKJ7rkc1lJjyO67pkshmEIqhJJK/Zxa009RzHIZ/PMjBwjopdmbBHC1QDDp/PTzQaIxwK/9YGo5dLCIFhGKxfv576+nrmz5/PD37wA86cOcOjjz7K1772NbmjQ5IkSZKuMxlySJJ0zVUnFZj4fD7WrFlDLBaju7ubHTt2sGHDBvbv38/tt9/OHXfcQVtb2zX/VF2oGsIMofiDeOEESrQBvWEWTmoRzkgfbj6PW6pQPvEuxQPPokWb8Xetwzd7BYppXdO13Bpc8NL07drKttfe5vURi6bPzmdWc4KEdvUhghDV3Rd+vwqICXcACSEIBALVUhUhyGbTEx7LtitksxmEEETCUXTdkKUrM1ylUiGby5BJj1IqlybsvwHnR8T6TSKR6ojY69UnQwiBZVl0dXXh8/kwDIMtW7bw2muvUSqV+PznP097ezvB4AS70CRJkiRJumoy5JAk6bpRFIVEIsHq1atpa2ujvb2dp59+mlOnTrFp0yZ6e3tZt24dc+bMoba2Fr//GjcHFQpC96FFk2jRJF7zXLxSESc9hD10msrZw9j2IG42hZNP47kflTl45RJuuYDn2KhWVPbwmJBDpZgjO9jPwKndvPzcJp7f1U9/Yhlfu6OLuY0hrtX+GCEEQnz6p+6apl+4cHRdh1KxiONeXLriui6lUgnXTaEIFcsK4fMZyB0dM4/nedWAI5shkx0ln89PGnBomoZpmoRCUUJW6IaMdg0Gg3R1dZFMJgmFQmzfvp1t27YxPDzMgw8+yIIFCwiHw9d9HZIkSZJ0q5Hv2iVJuu5UVaW5uZn6+nqWLVvG5s2bef755/m3f/s33n//fe69915Wr15Ne3s7pmmiKMp1+XRdKCrCDKKYQfS6VvzzVuLZj1A5cxzFtC4qWXGyI1QGTuHmRzHnLkcEb8WLkTLlYorBUyfo8wwyxicfkxK5wVOcfPdtdr72Czbs6OMDbz6z7nyIL61uZ3bSvOHRQTXosFAUhaGhAYql4rjSBc/zKJfLDI8M4eGhqtUmptLMMfYY5nIZhoeHKH/KiFhVVTHNAJFIhHAoOun9rgdN06itreXLX/4yzc3NbNiwgR/96EfYto0Qgp6eHkzTlLuJJEmSJOkakiGHJEk3jKqqNDQ08Mgjj7B06VLeeOMNnnnmGf7u7/6O+fPn8/Wvf5077riDRCJx3fp1fJxQFITux2iaVd318bH6fCc1QOnIbuzBXoyWuSi3ZMhxhMO7jvDff//n/L0mUMZdh3m4jo1dLlEqZBHzPsfdn/9d/vzR+1nRYBFWp+bCTVVVgkHrfLPRYXK57IT3s+0Ko6MpXNe9pg0opeuvWCyQyYwykkrhfmK3zscJIYhEYoRDkWu/U+wyRCIR7rjjDmpqanAch40bN3L8+HG+8Y1vcP/998sRs5IkSZJ0Dcm/qpIk3TBCCDRNIxwOM2fOHMLhMO3t7bzxxhu89957/PCHP2Tbtm2sW7eOJUuW0NbWdiMWhdDG9wTRapoILFiLW+xBtWIAeJ6LW8ySe/VfQLPQ6uah1bSgxWsRhv+ikOTmUKZczDF4amSSr5uEG2bRvmoNK5rqmLP6dnqWL2ZFR4SQoUwQitwY1dIWQSAQxPVcFCHIZMc3Ix3bDZDNZhAIotEImiZ7dEx32VyGTCZNLpfFcX7bBJUQoVAE31WOiL1aiqIQCoWYN28ef/Znf0ZLSwvvvPMO//Iv/0KpVGL16tXU1dXdkDIaSZIkSbrZyZBDkqQpEQgEaG9vp7m5mZaWFrZu3cqrr77K4cOHGRkZ4ciRI6xatYo5c+YQi8Vu+MhPNRxHDccvvtHzwLZxcmmcUgo7W0Dtew8lHEKLt6CGG1CCEZRAGMXwwYwMPXQULUHrmge4PzCfpsHSp9w3QLihg/blq1nWVEfbrHpqEhaBaZIRaJpGMGAhEDiuS7FYHPepv+d9rEeHKrCCYdmjY5pyHIdisUh6dJRcPkdlkhIVIQR+n5+gFSIcjmDoxrSYZiKEIBQKsXLlSvx+P5qm8fLLL/PTn/6UdDrN2rVr6ejokEGHJEmSJF0lGXJIkjRlqp+26ixcuJDOzk7uvfdefv3rX/P000+za9cu9uzZwxe+8AV6enpobGzENM0pvwAQup/Amq9TOXOMSt+7FA/twM2dQU12ozcsREvUY9S1oIZrEWNhh2ogFAVmwg4B4UMxWln8+/+Nxb8/1Yu5erquY1khFEVhYHCAUqkwrjml57mUyyWGh4cRCDQtiiobzU4rjuNQKOQZHh6iUMzjOBOXqIz9TgmHI0Qi07fXyqJFi9A0DcMw+NGPfkQ2m6VYLPLwww+TTCanRSgjSZIkSTOV+v3vf//7U70ISZKksTKW2267jQULFqDrOtu2beOpp57izJkzaJpGXV0dfr9/ysoJhFAQqoYaDKMnm/DP6sFceDdGy1KEL4o90Etp3wsU9v6K0tF3sUeG8DwFxfAjdOMmLGeZGRRFQdd1XM/FcRxse+ISB89z8TwPoSj4/ddqLswNsGUL/OY3429XFPjmN6Gl5cav6RryPJdMJs3Q8CDFQmFcI9kxiqJgGH5qEtVpJpqmT+vSo2g0ypw5c+jp6eHVV19l3759eJ7HggUL0DRtWq9dkiRJkqYzGXJIkjQtCCFQVRWfz0ckEqG5uZnZs2eTTCZ5//332bp1K+++++6F2vZAIDA1n3YKUW1YqukI3Y/it1CCUbRYHUZ9G0ZrN2qsDeGL4GaGqZzcB0JDtaIoZujGr1cCPuoH41EdLztZ0OG67oWSFl3XZ8Yn6jdpyOF5Ho5jkxpNkc6MUiyWcL2JA46xCSo1iSSBQGDaBxwwtmaTZLK65v7+fnbs2EE6nSYajRIKhW5IA2ZJkiRJutnIkEOSpGnH5/NRU1NDR0cHLS0tlMtlRkdHOXPmDEeOHCGTyVCpVNA07bqOnL0kQqAYPtRgBC1Wj1Y7CzXWghZOovj8CFWgRRtRY/UoZhBcFyc7SuXMYdzsCIoZRqhyqseNoKoaqqKCENi2jet6wPjSFcdxsR0bRVXRVBVluu/AuQlDjmoJUYVMZpTR9CilCUYBj9F1g0AgSDgcIRwKo6rqtA84xiiKQiAQoL6+HsdxOHHiBB9++CHlcplAIEBNTY2cvCJJkiRJl0mGHJIkTUtCCAzDoK6ujuXLl7Nw4UJ0XWfTpk0cPHiQ/v5+XNfFsixUVUXTtCnv1zG2bjVgoSUaMFrm45+9ErWmCcVvIXZLXKsAACAASURBVBQFz65QGThF/t1XcdOD6A2dKLpR7dfhuXiuA55bvUibIRdqM4mmaeiajod7PugYf+HseS62XcFxXDRVQ9Om+Y6OmyzkcF0X2y6Ty+UYHDqHbVfG9VGB6mtNUVRCVphINErICiHEzAwMQ6EQzc3N1NfXc/DgQfbs2UOlUqG5uZlYLHZhYpAkSZIkSb+dDDkkSZr2NE2jpqaG+fPns27dOizLYs+ePWzYsIFjx45hGAbRaJRIJDLVSx1PCISiVhuPjnEreOUyaiiBXteKUHUQArdUwMmM4Bbz1XIY2fzyulAUBdNv4jrVoGOyJpbVoMM536PDf4NXeRluspCjUCiQSo2QSo1gTzIiFs5PzwmGSCQSmGbgfMAxc5mmSWNjI0uWLOGDDz5g9+7d9PX1sWTJEvx+/7QIcSVJkiRpJpAhhyRJ095Yvw6/308sFqOlpYX29naSySSnT5/mzTff5MCBA+RyOSKRCD6fb3pt8f7YJ7BCCIRmoFoxtHgdimldCEAq505Q2PsyhZ1PUD62F3vgNG6xiNB8CFVDyIuca6K6A0A537cBHMfFmeRi2nUdXNfBYxr36LhJQg7XdSkWC6RGR8jmsp8acPj9JuFwlGgkhs/nm56Py2Uaa5AbDoeJx+Nks1n279/PkSNHaGhoIBqNyh4dkiRJknQJptFVgCRJ0qdTFAXLspg9ezb19fXMmTOHbdu28frrr3P8+HF+9atfsX//fpYvX85tt91Gc3MzhmFM9bIvJgTC8KPFx+8MELoP1YrimCGcXAancIDKueOUj4eqfT0ijaiROtRIDYrfhOneK2Ka8/l8hLwwnifwPJdKpYL3icaW1dGl1bGzihCYgQD6NB1LOpNVKhUKxQK5bIZcrtpzZzJ+v0koFCZkhS99h40zykjfEQ689iaHi5CfuL3Hb+HHMGuZc8ca5jdFSAau/etPURRM02TlypVUKhUqlQrbtm0jFotRLpfp6enBNGfQ5B9JkiRJmgIy5JAkaUayLIvu7m66u7tZvnw5r7zyCi+99BL/+q//yp49e7jnnntYv3497e3tBIPBGTGSUU82o8Ub8HevpXzyEOXj71E5+S7lox8ifDWosQ70xrnoTbPQ4/UoZgThC6CY1lQvfcby+81qrxTPJZ0enbD/g+PY5PM5oNonRQ2qN8XOgenCcRzyhRyp1Aj5fG7C/hvA+d03GpFwFMsK4fP5Lv2b2KOMHNnBlv/3f/CT9wc4lilTutygQ9QRaVzLt/5nJ5GIdV1CjjGWZbF27Vosy+LMmTO89NJL2LZ9IeQ1DEM+ByVJkiRpErJcRZKkGS+RSLBw4ULWrFlDa2srv/nNb9iwYQPbt28nkUiQSCQIBAIzoqZdKAqKYaIlGvB1LMScvw7fnPUoVj1uZojS4TcovPOflD7cTeXcaTxPoNe2XtzzQ7osqlId5VmuVHCciZuRQrVHx9goWkOfRjuEZni5ymh6lNHR1KcGHEII/H6ThvpGgkELXb/MEbGqRaimju6VDQzv3kv/4ChDk28WmZi/jXDbfXz92+tY0BQirF3f0FTXdeLxOEuXLuXAgQPs3r2b3t5eZs+ejWVZ02+XmiRJkiRNE3InhyRJM95YHbthGFiWRWNjI7t27WLfvn089thj/OY3v2HNmjWsXr2a7u7uqV7ub6coCMVAaAYYfoQviGrF8bV24WTuxE6dwkmn8WwPN5/h42NQPcfGzWVQAhZCllVckrGeL9FoDIBsNo1tj+8H4Xke+Xy22tNDVJuRTvfdQdOV53nYdoVUaoRsLke5XPzUgCMYtIhGYufP+RWMjBYqmhkkVF9PjU8ncOGfK0Ajix54kM/cu4b1LR8rBXEyFEeOsO3xn/HS/lMcVoNorY0kIwamfv0fdyEEgUCAjo4OvvGNb/Dss8/y5ptv8ld/9Vd85zvfYfXq1SQSieu+DkmSJEmaaWTIIUnSTUEIgWmatLa2UldXR1dXFzt37uTFF18klUqxefNmDh06xLp165g7dy4NDQ1Y1gwo8xAKis+P4vNDvA7PnYubz+KkBnByKRRVh49NlXAzA+Te/AVGxwr0hjmoodgULn4mEdWJK2EH8Mhk0jiOy8cDJKj2jsjlqkFHlCiG4ZsRO4SmE8/zKJVK5HIZRtOjE/ZCgY9GxAaDQcKhMMGghXI1fWiEQGg6hhB8dJRqyNF22zruevCLPDw78NH93SyFwYMkT+3h0GCa3pJJsL2OuKnhv0HZ1sd7dJTLZYrFIi+++CL/+Z//SalU4s477yQej9+YxUiSJEnSDCFDDkmSbjo+n4+uri7a29tZt24dW7du5YUXXmDjxo0cPHiQ9evXs2rVKrq6ugiFQtN3asYEhKKiWhFUa+JxuW5uhMK+F/AUE8WquRByeHYFr1LEcxyE4UfRjYvCEen8joFAEEUoOLZDvpCvTlbxPhl0lBkdHUERCqFwGL/PP2OeP1PN8zxK5RKZTJrR9Mj5gGP8Do6xsiDTHyARr7mwg+Oqvrdj4xRypCvuR/04hApmE4l4nNrIJ8o/FBMj1Mpty7uo3fohweEgydYaYrqGcYM38Iz16IjH4+i6zksvvYTjOASDQdatW4ffL5+DkiRJkjRGhhySJN20DMOgqamJRx55hGXLlrF9+3aeeeYZHnvsMebNm8fDDz/MvffeS1NT06VPaZjmtNpO4v/lH1H8YRR/8MLtdmqAct9BnMwIRvM8jKYOFF/gU450axJCwe83qaur5+y5fvL5/ITjZV3XZSQ1hOu5iEhMTry4BJ7nUamUGRoaIJfLTlgSNEbTdILBIMmaWlRVu+qAAzycbIr0B7t542ye48UL3wgWLKBpbhNt8U++JVJQFINIsp54oI76UoL2phghTWEq9u4Eg0EWL15MR0cH8Xic559/nr/5m78hFovR3d09M3amSZIkSdINIBuPSpJ006pud69OZAgGg9TX1zN//nwaGhoolUrs2rWL5557Dtu2MU0Ty6o2NJzJhKKi+IMIw0RoKpzvXeDmRimf/IDSoW2UDm6kfGQXlbMncPJ5PM9F8ZkIVebe8NHzRtcNPNelYtsTllN4nofjOLiug6ZpUzfBZwY0Hh0bxTs8PEi+kMNxnEnv6/ebRCIRopEYhuG7RjsUXEqpPvr3vsS//+YD+kYKeFTHNodXfZEH1i9gzawoF89rEed3TjXQetsq7rx7HXcv7qAtaqArN/5xHnte+v1+6urqEELQ29vL5s2baWxsvNBgWZIkSZJudTLkkCTpljDWnLSxsZHGxkai0SiO49DX18fx48c5fPgwAwMDRCIRfD7fjBg5OyFRvTATinIh4ADAcxF4CFUgVPBscIsF7JF+7NN7sYdO4aZHcMtlwEPoxi09saVaLjFWxuRRqUwcdLiug+tUS1o0TUNRlBtfNjDNQw7brpDP50hnUmRzGRxnfAkQcP4C3iQcjhAKhavjfa/Za7BCfuAIx3a8wC929DGQKQEaqhGl5c6HuX/lXJY2WuN3aAgVxYxT19LKrLZGGsMG2hQEHBeWcz7oiMfjhMNhbNvm7bffZmRk5EL4IXcVSZIkSbc6+bGdJEm3DCEEuq4ze/Zs2tvbWbVqFVu2bOHxxx/n+eef58033ySdTrN8+fILW8Jvlk9GVSuKOnc5vs7FeMUc5f4TlE9/SOXUPson3qZ8bC9qohOtthM1XoNR24KWaEYJxm/ZHR7VqR5BFEXgOA75/MQ7EMqVMqnREYQiCIeicurKeZ7n4boOuVyOdHqUTDY96X0VRcHn8xONRLGs8LXfUeUWKKQHOXnoJOVS+fyNflS1gc6mWmrD5vk3RB64RTIDA4zkHfJmLW01Jn5NYTo9opqmsXDhQgKBAOVymSeffBLbtgkEAnzmM5/B57tWO2AkSZIkaea5Nd+5SpJ0y9M0jYaGBh555BHuvPNOXn31VTZs2MB3v/td5s+fz0MPPcSDDz5IT0/PVC/1mhKqhgiE8XV042vrwrM/h1fKUT59lPLJQ5R6d1LZ8goIhdBn/ojgmq+hhm/d6Q3VHh0BapMaZ/pPUywWcN2JdnS4DA8Poakauq6hyfG9uK5LOj1KKjVCsVT81PuaZoB4LHF+gsp1uDgvD5E6eYR3XjlMPj32+IXR1QWsmNNMS02gGmJ4NpSOsvNn/w8bdo2yu+cv+NE3e5ibMJluj6imaXR2dvKXf/mXpNNpNm3aRH9/P83NzXR2dsodHZIkSdItS4YckiTdshRFwTAMkskkd911F21tbdx99928/vrrbN68mbfffpvbb7+de+65hzlz5hCJTDzRZMYRAiFUUFSEquMZPnytPrRkM/45i3BG7sceOoOvrQfF/KiZoTM6hJNNgeui17cidN+nfJObR7U/h048niCVGiaXy01YbuF5HqPpFB4e0UjsfMPM6fT5/41TKhXJZNJkMmlK5dKkE1SEEIRCYUJWGNMMXLfdB14hQ25oiMPnHEpj/U4NExFrorYmgOVXwClQyfSx/6WneHLzYfbanSye20jE0Kak0eilUFWVaDTKo48+SrlcZteuXfzjP/4jf/Inf0JXV5cMOiRJkqRbkgw5JEm65WmaRn19PYlEgs7OThobG3nrrbc4dOgQr7zyCr29vaxYsYJly5bR2dlJIHD9LsZuuPOBhwiGUYJhvEQDNM3HGR1EMS2E/tFYTTs9RLnvA7xCGjVWg3qLhBxQ3dERDARx3Wq5ymRBR6lUHY8qEIRCEXRdv6WCDs/zKBaLZHMZMplRSqWJAw6ovu6soEUoFMHvN9G06/WWxMPJjTI6MsyxEpTGbnbTVPK72fLUv3D2jRBRUcLOD3B01+u8ulvDXFBLd2uMoK4yXV/tQghUVWXhwoU8+OCDaJrGW2+9xTPPPMN9991HT0+PDDokSZKkW44MOSRJks7TdZ26ujoeeughVq1axZtvvslTTz3Fjh07OHHiBCdOnGDNmjV0dXVRU1Nzc4Ud5wmhgG6g1TSO/6Lr4JXzONlhcMd6U3h4dgV74BioBoovhPCZCMNfPdZNcoFfvZjUCFlhBAqO41AqlcaVroxd5DuOg6KoBINBdN24JYIOz/MolYqk0yky2QzlcmnC+1WbumoEAkHi8Rp03bjOryObfGqQgcF+TgLlCzcPUDq3iScf2zT+n/jv4PZYPa1JH7o6vR87IQSWZbF27VpM0+TcuXO89NJLeJ6HaZrMnz//lgvbJEmSpFubnK4iSZI0AcuymDVrFnfffTfz5s3j3LlzvPDCC/z4xz9G13Wi0SixWAzDMH77wW4SWjiB0Tof/5zlKH4LhMBzXZzUWYZ/8pcUj7yLW6iAUFD8IYSm33QTWqqlKxo+n59isTDpKFTHcSgWC2i6jqHrKMp1LHiYBtNVPM+jUilzbuAs2VyGSqUy6X113SAcjlKTqMUwfNf54tsDspx85yXe2LyZ5w4MMb6jygQ617Pws5/l6w/MJq6JaVuu8nG6rpNMJlm8eDG7d+9m165dnDt3jqVLl2KaJqo6E34KSZIkSbp6cieHJEnSBIQQGIZBLBZj1apV1NfXs2rVKt544w02bdrE3r17WbNmDXfffTddXV1YlnXzX0QoCuITG/eFUFCCMQJ3fAt7ZBB7sJfyka0gyqixDrSG+RhN89GTTdXyl5ugIaeiqPh8fmoSSVKpEXL5iUtXHMchlRrBdRyi0Zu3R4fj2OTzOVKjKQqF/KTBz9hY3ngsjmWFrmN5yid4WTIDwwyfHuWjRylJY/ca7vrfv8bnO4PETAUne4rUh1v51x88y4d1URKNMWIKlxdwOGW8zCk+PHGU/dt3sO/VN9iVhooHEMZKdLLs8/dy+7LbmN+coCZw7UJAIQSmadLW1saf/umfsmHDBg4cOMDf/u3f8od/+IfMnj1blq5IkiRJtwQZckiSJE1irN49kUgQDodpaGigvb2d2tpaTpw4we7duzl06BCLFy9mxYoVdHV1EY/fYpNIhEAYJua89Tipc9jDfTiDcSrDfbilMpUTB7DPfIAaDKDGWlDjrWjxJtRwDMXww/Xc4XCdjD0vgkGrWq4iBLlcdlzQMVa+kTn/b8LhCJp2c5UNOI5DNpclkx4936fEnTDwUdVqMBQMWlhW6Abs4Bjj4aVPc+roaY4cy3zs9hix5AJWfPbz3NsVIBlQcEaPMFSX4uX/tRuluYm5rTVYgkvsx+FSyZ5l+OheXn/2Fd46cZxDZ9Jkcjr1c2ZTY1Uonuzj5Psv8dTgMfa9czd333MH96zvoiWgXLOeH4qiYJomy5YtI5/PI4Rg586dxONxPve5z7Fo0SIZdEiSJEk3PRlySJIkXQJd12loaKCuro6FCxfy9ttv89JLL7F582YOHjzI8ePHWbt2LQsXLqSuro5AIHDz7+w4TygKWiyJFkvi67gNz7GpDJyk0t9L5eR+7FPvUj5xBmHWocU70Bs78bX3oNc2XzS9ZSa50KMjFEaIsR4dxYl7dJSKOCnnQjCi6zO/xMnzPGzbplgqMDqaIp/PTThaF6o7X/x+k3A4QjgURlHUGxf0eC7O4AmO9Z7h4On8R7ebCQLxBtqTfgxdAQSKHsSMz2Lu0ruYs7KHFbMSXFprXQ+7MMjZD3bw5q9+xg8fe469FQtz+Wf5zJe/wf/5pbXMS5ZI73yWTf/6j/y3x5/knTeO05e20dsa+EpXBJ8iuFZnZKxHx7p16zBNk4GBATZv3owQAr/fL3t0SJIkSTc92ZNDkiTpMoxdKMyaNYvly5ezbNky+vv72bRpExs3bqSvr4+WlhYikQh+v3+qlzslhKKgBiMYdW34Zi/DXPhZtKYlKL4o9sAxyh9uAeFHizegWtGpXu5VGRsvaxgGhWJ+0gt9x3EoFAv4fH58xjVuRDoFPTlsu0Imk2FoaIBisTDpBBWAQCBIJBIlGond2IADDzybQu/rvPjqW7y6/xSFsS/NuoPuu+/jm78zh4Qm0AChW/iSXax56D7uWDWXzrhxCX1zPcAmfXgzL//033ns737F24UyuTlf4t4vf4Pv/vE9LEj4Ceh+gj4bnRFe3riHTOY4Z7UAqdB8HlhSj1+9drs5xhiGQW1tLT09PezcuZNdu3YxMDDA0qVL8fv9t0wIK0mSJN165E4OSZKkyySEQAhBJBKhp6eHZDLJXXfdxY4dO9i9ezd//dd/zZo1a7jvvvtYs2YNwWDw1vvUVIhqKQsKQlHwNXaix+vwz+nBK+dRQzWooQQAnl2mMniG0odvo1hRAvPWIPyBGTOZRVEU/H4/0UiM0XSKYrE44f3GenR4nkckHKlOn5mBSqUSmWya0dQIFbsyacChqirhcJSQFcLvN6fgNeDheRXSQ2cZymdJf+wrgWSYeFO158ZHb4QECBXNuIyLf6eEl36X1558mmeef4P9tk6ZRdz92Xt48O6FdAZUdKV6bCEUFEU5v2PDJX+snzPb3ufQ7y1kUVQhch2muPj9flpbW/nzP/9znnrqKXp7e/n5z3/Oo48+Sn19vQw6JEmSpJuSDDkkSZKukKZpRKNRotEoyWSSlpYW2tra2Lt3L++++y7Hjh3jrbfeYu3atcybN4+amppb86JCKChmEMUMQqxukvsI3FIRYZThY+fILeZxizkU3Y/iN0Gdfn+2xkpXLCuM63mAoFgsjLtfdbxsASEUBIJQKHR9p65cY57nkS/kyWWz5PJZSpOMiIVqeVcwaBEJR/D5pmrXgI3nDnPy4FEGz45QnfcigAQtjc3M60heRs+NiY9vF4c489aveXXbLrYfHWBUj0HDKpYuv42lc2sIfkpw4aSyFHrPMZB3KYe5zA6nl0ZRFAKBAMuWLWN4eJgXXniBX/ziF1iWxV133UVHR8et+TtJkiRJuqlNv3eLkiRJM1AymSSRSLBkyRIOHDjA448/zpYtWzh48CAnTpzgrrvuoqenh/r6ekKhEKp6I7ftT29C0dBCcXwt8xH+IML4qMzHyQxTPvUhwiuhRupQgnEUM4RiBquTWqbJbgghBD6fjzBh8Kq7NuwJdjk4jnO+f0W1R4ffb964KSNXwXUdSuUyo6Mpcp8yInZsgooVtIhEopimOXU7VtwSXvksx/cdZfj08PkbFSBJU7KBzoboJfbcmIRXpJTpY9+ml3jnw1McL+pokRqSt69m/rxGWiIXTxLyPBfXcXCpFrlQtnFzJYplF+eS5tpembEeHatXryaVSrFz5042bNgAgM/no6mpCeUmG/UsSZIk3dqm/zsrSZKkGUJRFCzLYsWKFcyfP58PPviAjRs38oMf/ICXX36Zu+66i0ceeYSVK1cSiUTkJ6hjFAUlYOGfu5RPdl90RvrJ7/k1pfefRQ21o7cswzdnJf7OxWix5EWByHTg8/mJRBQUVWFw8NyE41Rd16FQyHP2XD+1tXVYQWtal654nkuxWGR4ZJhsNoPrTjwiFqqvgXg8QeT8JJkp5ZZxc4P09w2RTk1cQnRV7AyloaPsfe0Qg2fSQA3h0Hwe/tJqlrTVELvouezhVEoU8zmKnsd1zDQm1dDQwIMPPkhtbS3f+c53+PGPf4xt23zzm9/E57tR024kSZIk6fqTIYckSdI1JoQgEAjQ1dVFLBZj3rx5vPvuu+zbt4/vfe973HHHHdx9990sWbKEpqamqV7u9DHBRZbR3EXks9+ismg99tnT2EOnKOx5jsLOf0eNtqPVz0Nv6sZo6kS1otXdHVNM0zRCVgjP8xgdHaFUGl/W4XkelUqZ4eEhXMchHI5Oy4tMz3MZTY+STo+ebzA68eW5EALDMIjH4gQCIdSpLivy8qRPf8D7zzzJr44NcfBCxlFtFFoslcgXK1SLi67oG2CPDjJ0eB+vnSvTXwIIoGl1NNVYBH2fDDAdSvk0w0PnGPJcygCWhVZfS21Uw6fdmMc+EomwYsUKvve97/Hkk0/yxBNP4LouX/3qV0kkEjdkDZIkSZJ0vcmQQ5Ik6TpQVZVQKEQwGCQej9PZ2UlzczPbt2+nt7eXJ554gt27d7NmzRpuu+02EokEhjHzR4tea0oghO6fjRpvxKk9iz18Eme4D3vkBG6hTKW/F3vwBOVDOmqsBTXWip5sRW+cNXVrVhR03SBkhfFcl4zITNijw3VdisUCaaGAEISs8LQpG/A8D9d1yGYzpNNpCoX8hLtSoDoi1jT9hEIRLKsacExtYFNi5Mib7Nz8K37y89fYcyZD+sLSPWCIE++8zCvPhoj5H+S+ORFi/svdVeVSyaUYPn2Co0WbjAv4wujxNlrrAljmJx/HItmRAfp7T1Jy3OpOjlgQrb2GGr+CcYMedl3Xqamp4bOf/SzpdJoXX3yRJ598kpaWFlavXk1tbe2NWYgkSZIkXUcy5JAkSbqOFEUhFosRi8Xo6Oigp6eHV155ha1bt3L8+HGOHz/O6tWrWbx4Me3t7USj0RnRo+FGEoqKGgihBkIYzbPxnApOdpTKqSNUTh2k0v8+5ZMHEGdPocbP4lUqF4ccnotnVxCaccMmtoz16AiFItWmqo4z4SQSx3HI5XO4nouqqpj+wJSXMVV3mVQoFPKMpEYoFouTlqgoioJpmoTDYSLh2DQJaWwKw2cZ7B+kT2vhtqUTjdAtUzlzjP1n86xrDxH1q5e5o8OmmE8zfO4saceuNjUNhdFb22hO+Ah8MrVw06TOnqbv4ClcxwU0/DVR4nNqSegC/QZmQoqiXChdAfinf/onnnnmGVRV5fbbbycWi924xUiSJEnSdSDfSUuSJN0gsViM1atXs3r1anbu3Mmzzz7L008/zU9+8hO+9KUv8dWvfpU777yTcHj6fKI/HQm12uBRi9Rgdq/Cc2zcXJrSyQ9xhvvH3d+zK9ipQbRoEqHf2N0yfr8fRVFQhMLg0OQ9OvL5PLbdT319I8FA8Iau8ZMcxyabyzAwcHbS3RtQDXL8fj/xWALLmk59RYI0rvwqv7fyq/zedfseZYq5UYZPn8W1z5fwxIKoc2uJ+RWMT4YWpSGG+05xdP85qqc0Ql2ygUVzG0koClNRZNXa2sr9999POp3mscceI5vNous699133xSsRpIkSZKuHRlySJIkTYGuri7i8Tjr169n27ZtvPLKK3z3u9+ls7OTb3zjG6xcuZL6+nq5q+MSCEVFCYbxt3fjNc2GjwVEnmNTPrmf0Wf+B+bSR/F3rUGvneiT/etH13Usy6JcKZLNZiecTOJ5LpVKmdHREfAgGLzxQYfneZRKJdKZFJlMBtedvD2mrusEAkFi0Rg+3xROUJkyNpVSgVwqd+E8BcMmDS01xFSFj6K0ag+Q9JH9HPjwMNtHoZqJtNNSM5sVs2vQFeUK+4JcvaamJr7yla9g2zavvfYajz/+OLW1tcybNw+/f3o19ZUkSZKkSyXfPUuSJE2BUCiEZVnU19fT0NBAMplk586d9PX18eMf/5g9e/awbNkyFixYQHt7+5SXMExrQiBUDREITfAlBSUQxde5Ci3e8NE0Fs/DyadxRs7hlkuosSRaKH5dGpeONeWMhGN4HuRyOSqV8rj7ua5LLperBgYCAmbghvW2cByHcrnEaDpFLpelXC6PK60Z4/P5CAYsQqEwphm4BQMOAA3d5ycYCaCo1Z9f1VT8pg9dCC6cEc+GylmO7HqHfe8doa8CLmB29zB7STfLmkzUKWxfYpom7e3tPPTQQwwPD7N3717++Z//mT/+4z9mzpw5WJY1dYuTJEmSpCskQw5JkqQpMjaFpbu7m46ODtauXctrr73G008/zWuvvcaxY8c4cuQI69evp6WlhWg0is/nm+plzyyKglbTSujuP0WoOugfhRhuLk3p+AHswROosThGbQdKqAYlEEHxBxG+AOIalQ0JoRAIBHFcF8+DbNbFcexx96tUymSzGTzPQ1VUDMO47qVLjuNQLBbJZNOk06PY9vh1VX8Gga4bWFaYkBUmEAhc13VNbz4CoTi1bQ2Y6lEUwHNdHNvB8Tg/tcXFrWTIn3ibbdveYdfBU+SFQb4poQAAIABJREFUDnqSzvUrWby6i9mRy+0Fcu1pmsbChQv5/Oc/TyaT4ZVXXqGuro6HH36Y7u5udH3qJxZJkiRJ0uWQIYckSdI0YJomCxYsYO7cuTzwwAP88pe/5Je//CXPP/88q1ev5g/+4A9Yu3Ytzc3NCCGm5bjR6WqyXR4ATi5F6fA27LPvoJi16C0rMGatwtc6D6OpE+ELfNSs9Bqc85AVQlEUXNclm01PuFuiUimTyVS/lkjU4Pdd37KBYrFAKjXCaDr1qfdTFJVYNE4oFJaTgNAJhGtp7JhLUn+bQQo4pQrFdI6i6+EAilemOHqKQxufYMO2/Ww7VQAjiVLzO3xh/WruWdjAdCoIufPOOwkEApRKJf7hH/6BYDBIU1MTNTU1U700SZIkSbos6ve///3vT/UiJEmSpCpFUQgEAsyaNYtFixbR2dnJwMAAr7zyCrt376ZQKBAOhzFNU/bruBpCoBh+9NoW/LOX4593J3rzYoQWwO4/SOGdn1M6uJ1y/3HsTBqvUkYx/KBqV12eoaoqhu7DdV0cx5mk90V1wonreiiK+PRQYcsW+M1vxt+uKPDNb0LLxD1IPM9jNJ1iNJUil8/heRP34FAUBb/fJB5PELLC6LouQzYEiuqCKJN+bzcnR7KcTftQ7SidS7uos2ycEzvZ+fTj/O0//5p3jg2RV1uonfcAf/R//RFfXjebrho/ujJ9zuPYpJxEIsGRI0c4deoUpVKJ7u5uNG2qxwJLkiRJ0qWTIYckSdI0IoRA0zTC4TDJZJLGxkaSySRCCFKpFIcOHWLXrl1UKhX8fj/BYBBVVeUFyBUQqobiD6KGatCi9aiRetRIDWooihKKIPQwnu1hD52gfOwNKif3IlQDxaq5qt4dilBQVRVN03BdF9edOOjwvGoI4lEtXdG0ScKFyww5PM+jYlfIpKvlKYViYcLSmeohqmU2kUgUywrJgONjhKqh+izipoaiuWTTo5zo7WXk3GEOvLWFrS9vZvMrb7L1vSKx7pWsvu8LPPjQ7/DI5xYzrzaIpU+vXiZjvWOi0SjBYJD33nuP3t5eIpEIjY2NGIYhH3tJkiRpRpAhhyRJ0jRlGAaJRII5c+bQ2tqKz+fj1KlTvPXWWwwODpLP58/3SdDRdV2GHVdKCISmo5gWWrQWvaETo2UxarwFxTDxSiM4gx9iD/WhJ9rRa2ch9GpvFK9cxCvm8SqlavBxied/7IJSEQLX9XAce8Kgw3WdatDhuhf6c4x7jC8j5PA8r9r3I5dlZGSYYrEw4fcVQqCqKqYZIBqJyYBjIkJH80epb28lmbAImoJiYYD0/tfY8urrvPrm+xwa8PDNWs/nHv0Kj37lf+PBuxcxL+HHr03P86iqKoFAgI6ODk6cOMEHH3zAyZMn6ezslD2BJEmSpBlDhhySJEnT2NjFZm1tLYsWLWL16tUkEgk2bdrEyy+/zNGjRwkEAoTD1UaQclv51RPnQw8tHMdo6MA3ewX+Bfeh1S/CaF2AGo5fuK89eIbK2eM46SG0SA1CvbwSIsPwoSrqhekmE3FdB9uu4LouPp8P7ZPf4zJCDtd1GR0dYSQ1POn3A1BVDb8/QLKm7sJuIWkCQkX449R1LmXNPffx5c+vpsc9wIHjg/QOQrB2Pj1/+T3+66PruX9BPREDXMfBQ1TDtWn4UhVCYJombW1tZDIZnnjiCSKRCC0tLRd2lUmSJEnSdCZDDkmSpBlCCIHf76etrY0VK1bQ0dHBwMAATzzxBLt27SKdThOPx4nFYvJC5BoS50fUqlYYxbQQykcX/JXTRykf309l4ARG67xq347LpGkamq5TLpdxHHfCZqTVHRgVNFVH07SLQ4dLCDlc16VSKTM4NEA2k5lwhO3H1xOyLJI1tfh8/us+3eXmIRCeg1nqY/vOYxzrG6DgOAyfDtA2r5X6pAPHd/HE3/+KI2oYJRYjaU7f8CgQCGCaJo7jsHHjRgKBAI2NjcRisalemiRJkiR9KhlySJIkzRBjuzqCwSC1tbXU19eTTCbx+XyMjIxw5MgRPvjgA3K5HIZhYJqmHP94TQiEUBCacVHAMUYxg9Uyl5pmhKrhuS5udojc6z+m0n8Ct1DAc7zqOFpFHTeWduxx1VQV27Gr5SkTBB3V/h0uAnFx0PFbQg63qYlischIaphcLkelUp7w+EIIfD4/oVD4fHPbgAw4LouCAAyjxMn9H3D65BlOZQuU0sNkho/ywe5tbN++i9dPh2lb0s3s1iQJ3/Q9v5qmYVkW0WiU999/n97eXmzbZu7cufh8PhmkSpIkSdOWDDkkSZJmIF3XicfjdHR0MH/+fAzD4OzZsxw8eJC+vj5SqRTlchlN0wgGgxP3cpCumhIIocUbLgQcAHgebn6E3JtPYadGcLJpnJHTOKOncfPVSS14IBQVoVTLFhQhMAwfnufhOM6kQcdY2YpAYBh6NXz5lJDD+S9fp5isIZNNMzo6MulxhVDQdYNwOEI4FME0A/L5cgWEIlADJiI1QCEzQv9oivToKU4eOsaxYwOMqFHq1n6ee1bNoavOwq9e/3PseR7DxRSDxRFS5QyOa6MIBUX89t8JpmleGCG7c+dO+vr6aGhooKmpSfZokSRJkqYtGXJIkiTNYJqmEYvFWLp0KUuWLCEWi7F9+3aeeeYZ9u3bh+d5tLe3y8akN1C1p4cfNdmFUP1UznxA8b0XKLz7LKUTH+KkR/E8gaLr1Z0horoDQAgFv9+PIgSlUmnSiSe2XamWrmjnS1def33SkCP3la8wHAwwmk5NGG6MrVfXDUKhMPF4Qn5KfzWEClqUmsY6kjENLd/PwdN5hNpNz7pH+YPv/B/816+tZkF9COsGBBwAjufwVv+7vNG/m/dGjlKwS+iKhqpoqEKh+qwQkz7mhmHQ3d3NmTNn2LdvHwcOHGDdunWEQiHZq0WSJEmaloQ32bseSZIkaUYplUqMjo5y5swZtm3bxsaNG9mzZw+JRIJvf/vb3HPPPXR2dmIYxlQv9ebnebiVEl6pgFfK4eZHKPf3Yg+cwR44hjN8FLw8as08jOYejLaF6LWtKEELxxPkCzkGBwcol0uTTj/RNJ1EPIH19/+A8X//9/FL0FROPf7v5Hp6cFxn0qVaVohIOEIgYMnGtdeIWylQyIwwMjzMQLqE65kEwlHiyRixsB9NEdyoQhXbtdly8m3+v5OvsjX9IX7Vh181WGo2sMxqY264ha7YLGoDcUxt4p4yruuyf/9+fvrTn/Kzn/2Mb3/72/zu7/4u8+bNu0E/hSRJkiRdOrmTQ5Ik6SahaRqBQICamhrq6uqoq6sjGo1SKBQ4dOgQH374IYODg9XGkqGQ7NdxPZ1vVqr4TJRAGDVUgxJOokXr0BL1aLF6hD8M+HBGB7AHjyEMC9WKoPkD1R4dmoZtT1664roOjuugb9uGf/uO8WtQFEa++AXK9XWTLFFgWSHCoQiWZcnyg2tIqDqGGSIcr6WhoZHGxiTJRAjLr6MKwY08y67ncjx9mldHDvJ29jhDlSxny6OcK43SWxjgvdxpdqaP8V7qMH3pUxTKBRzXQRUKmlAvlLVYloWqqoyMjLBr1y7i8Tj19fWEw+Eb+NNcf9lslrNnz14o85MkSZJmHhlySJIk3USEECiKQjQapbOzk+7ubpLJJH19ffT19XHy5ElOnz6N53koioKu6/h8vqle9s1PKCi+AGokgV7bjt40D7VmFqoVB2ywC2jxZrRoEsVnIgDNKVMZPIlTKuDpPibadmnbNv433yL41tvjv6gojD78EJWG+ouXIqqNS00zQCwaIxCwZOB1ExsLOXaMHuZQ4eyF2zNumVOVNB8WzrEn08v7o730Zs9wtpjiZGmYvuIww+UMnlOh7FTw6QbRaJRYNMaWLVtIp9MEAgE6Ojpm/A6g6mjlUXp7e9m5cye7du1i3rx5+P2XPy1JkiRJmnraVC9AkiRJuj4Mw6C1tZXW1lZuv/12duzYwXPPPccPf/hDtm/fzn333cc999zDokWLLkzrmMkXKjOJ0AyMulaMulZYcMe4r3uVMpWBU2iHtuMLJBCdyymWJx/7ejkURcE0g9QmazEMAyHkp9USnHNLnMuf5PX8Seiv3rbIrOcr8cXMDrcxN9pOUyjJ8ttX8sUvPcTPf/YzynaFnp4eZs2aNSODMtd1sW2bXC7Hvn37eO6553jxxRdJpVI88MADRCKRqV6iJEmSdAVkyCFJknQLqK2t5Z577qGrq4vPfOYzbN26lWeffZbNmzfzxS9+kXXr1jFr1iz5pn6aEKqGHk1iNHXhC8VxamrpP3sG13UnbSB6KVRVIxyOEIlEMAzZYFT6dB+Whvinc9vwDe3CrxrM9idY6Wsksqae9nO3MXRihP/4j//gL/7iL0gkEjOuvOP06dO8/fbbvPjii2zfvp3+/n7S6TS1tbVTvTRJkiTpKsiQQ5Ik6Rag6zrRaBTTNInH4zQ1NbFz507ef/99Xn31Vd566y2WL1/O2rVr6e7urk75mGEXLDcToaqowQj+joUohg/XDJKI1zCaro4GnizoOLKsjq0dUfZEDTyhkDHepXLu9IWvK4qKb9SH76wPVZGTMW4FrudyKnuW/fnTv/3On1BwKxTcClSq/3+mOMRx/SwJPcTJbsglVTLGEUL7n+Ezc5bTmWgjbFioisqN7Txy6XK5HCdPnuSdd95h586d7N27l8OHD3P69GkqlcpUL0+SJEm6Bj415PA8D9d1KZUm7u5+qXRdv7AVeszYFsHyVWy/Hasnn6gWtFgsYtsTj9+7nGN/cvul4zgUCoUrPq4QAlVVMQxj3AVEpVIdC3il53qyNbuuS7lcnrR53aUyTXPcuDjHcahUKld1rjVNG1f36nketm1f1fmA6nZ9TdMuOteO41w49pVSFAWfz4eiKBc998bO9dWej7H/xnieh+M4lEqlK34Mq2Mi9XHnA6BcLl/1a1HTtHFTOzzPo1AoXNVjOPZ6+eRzb+z3x5Uee6wvwUT9KEqlErZtX9XrxefzTfhaHHudX6lqqYE57nfe2HPacSafojEmHA6zfPlyGhoaaG1t5bXXXmPPnj309/fT29vLihUrWLZsGU1NTZimeWHdV/Pc8/l848phrsX5UFX1wvN6zPX82wXVc10sFq/4uGPPvWqpyG/52+WvNnX0ikVUVUNRqudwssfiVFecF25v4slm6/wthyF1+IrXKkkfl3KKpJwiFM9CDZDQGbbz2Ge2cNKXY36xk3ozzmwzSUS3COlB/KqPSvHK/76M9Rka+5v7cZf6t8vzPLLZLOfOnePo0aPs2bOH119/nffee49z586Nu38+n2fTpk0kk8krXrckSTeXJUuWjPudYBjGhO99x97bXM37SL/fP+59k23bF/67Upqmoev6Re9txt43jV0vXqnJrvnHrmGu1KVc81uWddHtvzXkKBaLHD9+nGw2e0WLEkJQX19PIpEgEAhcuN22bYaHhzlx4sQVHRfAsixqa2uJxWLj3oSePHmS4eHhKz52KBSitraWRCJx0e35fJ7333//io9rGAbhcJjm5uZxL4qRkREGBwev+FxblkUymRz3ArRtm9OnTzM6OnpVFxPz588nFApddFuhUGBwcHDCNwmXKpFI0NnZedFtY03Azp49Sy6Xu+Jjt7a2Eo/HLzrXpVKJoaEh+vv7r/iXj2VZtLW1XXSx6XkepVKJ06dPMzQ0dMVrrqmpoaam5qKO9bZtk8lk6O3tveJfbD6fj/r6emKx2Ljn3sDAAKdOnbriNQcCARKJBA0NDRfd7vz/7N15dFT3efj/913mzq7RaDTSjKTRSKNdAiGBEGY1GLPEFKhtHC+J8z3fnqz9IznNaX3SND5x0zbf9jQnzc9pkh47Te0G28GJ8YLBu7GNsYGwmUWsBiQW7fvs6+8PWWNk4QUJkECf1zkcmzvizkez3Hs/z30+z5NIcPLkyTFPCBVFwWq1kpeXN+rg5ff7aWtrY3BwcEzv48UZDRdLpVJ0dnbS29s7roBmcXHxqO9iJBKhp6eHtra2MZ9ETCYTVVVVo455fr8/Pe7LUVJSQkFBAV6vl1dffZXf/e53PP7443z/+99n2bJleL1eEokEnZ2dYz5+aJpGUVERFotlRDAiFovR0dFBa2vrmPYLQwGbnJwcsrKy0tuSySThcJjTp08TDAbHtF9ZlsnNzR117gIYGBjg5MmxBw70ej12u538/PxR7+PZs2c/8z0cKhgLqk65ZJBEEK4pSSKsS7FfN8D+jq3QsRWnzsz9WTOpthVTaivEpXcw0NFHKpKAeBKSl3e81ul0WK3WdND1Yh0dHVy48PkZKvF4nFOnTvHOO++wfft2mpqaPvPnOzs7+fa3v31Z4xQE4cb285//nPnzR9bQysvLo6CgYMS2eDxOb28v7e3t47r+LSoqIiMjY8QNs2AwSFdXF11dXWPaL0BWVhZ5eXmXnMM0NzczODg45n0Pz/nNZnN62/Dr0dzcPOb9ms3mdMfAi68jYWjZ4fDr0djYmN4+KsiRTCbTkfJYLEZnZyf//M//zJ49e8Y0KJ1Ox3e/+12WLVtGcXFxervf7+eNN97gJz/5yZj2CzBnzhy+8Y1vMHv27FEXir/61a/YsmXLmPe9YsUK1q1bx6JFi0ZsP3LkCPfff/+Y9+v1elm1ahX33XffqAnQvn372LhxI2+99daY9r148WLuvPNOli9fPmJ7X18fL7zwAps3bx5XUGn9+vXMnj17xLbW1lY2b97Mb37zmzHvd9WqVfz85z8fsS0ajdLU1MSjjz7Krl27xrzvhx56iBUrVoyYALW3t/Pqq6/y8MMPjzlg0NDQwE9/+lNcLlc6EyCVStHT08MjjzzCc889N+Yxf/WrX+WOO+6gpqYmvS0cDnPo0CEeeOCBy57EDisqKuJ73/sec+bMGRW827hxI//5n/855jHPmTOH22+/ndtvv33E9r6+Ph544AFOnz49pv3abDZWrVrF3XffTWVl5YjHTp48ydNPP82WLVvGNPmur69n7dq13HvvvSO2J5NJtm7dyvPPP8/BgwfHNG6An/zkJ9x9990jtvX09PD222/z8MMPj/l9rKqqYv369aOCPh9++CFPPfUUmzZtuqz9pVIpUqkUgUCA2267jXXr1rF79242bNjAa6+9RlVVFYWFhbz44otjDhzn5uby7//+79TU1IwYd39/P88//zy//OUvx7RfgGXLlnH//fcze/bsEeeujo4OHnrooTG/h0ajke9973ssXbqUwsLCEY/t2LGDv/mbvxnzmCsrK1mzZg333XffqEnbL37xC15//fVP/bepVIri4iLmL5jP6tWrrstij8KNrTce4vfdezH0HUKvaKhxiWSbH3a3weFuaL28Gxcul4tVq1Zx77334vF4Rjy2YcMGHnnkkc/dx/AFfCAQGNeNE0EQpq6f/exn/Nd//deIbd/61rf4/ve/P2Kb3+9n//79PPzww2O+IWI2m/nZz35GQ0PDiPP8uXPneO6553j88cfHtF8Ymnd9//vfx+12p+fP8Xiczs5O/vVf/5UdOy7Rkv4L+u53v8vKlStH3LwOBAK88847/OhHPxrzfmfOnMm3vvUtGhsbRwU5HnnkEZ599tn0348dOwZ8IsjR29tLZmZm+u+yLGM2m1m6dCllZWVjGpSiKFRUVIy6INc0jdLSUu65554x7ReGJm05OTmjAhwA8+bNG1fv9srKSnJzc0dtz8nJGdeY7XZ7er37J+Xn57NgwQJcLtcl/uXnKy0tHXVXGoYu1qurqwHGPLECLlmIy2q1UlNTM67XZPr06aO2qapKbm4uS5YswefzjXnfJSUlo7IWLBYLlZWV3H333WO+m+71ejGbzSNSZyVJwmQyMWfOnHG1nauvrx/xPYSh18PlcnH77beP+c70cNbCpZZnTJs2bVzvodfrxev1jtpuNBpZtWrVmCPORqORqqqqSxbDzM7OZvbs2VgsljG9jwUFBZf8bEmSRElJCcuWLRsRaLpcpaWlo7aZTCZ8Pt+43ke3233Jia3D4eCmm24aET2/XHPmzKG8vJy6ujpqa2s5evQozc3N7Nq1i0gkgs/nw+fzkZ2dfVn7zcjIwOl0jjoxGQyGcR8/Kisryc7OHpHRoCgKFouF5cuXj/k91Ol0lJWVXfL1LCwsHNeYc3JyKCsru+S5a+HChZ/7+trtmRQWetGpemQZQg2z6PnOt0mlUnzoaKNLN/ZUU0EYL4OkUm1wUmR24TblYJPNhLV+UoofioMweHlLVzIyMqiqqrrkd3HGjBlf6LuYTCbp6Ojg2LFjnDhx4gtlfwiCIFzs5ptvHjUfrq2tHfVzmqaRl5fHl770JTo7O8f0XHq9nry8vFHXezabjbq6unEt/Zg2bRomk2nEddPwnH/JkiUUFRWNed/V1dWjsv41TcPn843rusnj8eByuS553TRnzpwRc5sf//jH/OM//iNS6qI871gsNuLFHF5TNDAwMK5lDiaTCZPJNGLfw7UtxpMSo9PpMBqNo94oGJrMj2fNtKqqmM3mUWnK0Wh0XEsRZFlOL1n55BsVCAQIBoNjzi5QVRWTyTTqQiCRSDAwMDCu+gUwNIn6ZMAgEokQCoXGldZvMBiw2+0jtqVSKYLB4LheDxgKwnyylkgsFkvve6x0Ol06heziVK94PI7f7x/XZ89gMGAymUZ8YROJBNFolIGBgXHVbDGbzZesrTI4ODjmZVLwcV2VTx7Ykskk3d3dY34Ph+uIWK3WUZ+9cDiM3+8f87FJURQMBsOoYGgqlWJgYIBIJDKudYk2m23U8SMWixEKhQgGg2NeKqWq6qhJPZD+Ho7nxDd8/FAUhe7ubvbt28e2bdvYvn17OtBWVVXFrFmzcLvdl3xfLkWW5Y+6eYysRRSPxwkGg+O6s6ppGiaTaURGxPC5q7+/f1zHj0udu2Dote7r6xvzfmVZTn/2xnPuSqVSJJIxZL8fXSAIyGw88wZPJo6yTT/2gLYgfFF6ScYm63Hp7RBJ0tXRRbIvxHfqVjK3qI4yRzF2LYNgvx/GuDR9uObTJ9O24YufuxKJBK2trRw6dIi9e/dy4MABWlpa6OzsvOTxx2QysWTJklHHcOHKGBwc5Ny5cxw6dIjGxkbcbvcXOpcIwrV2/PhxWlpaWLx4MX/913896saJxWIZde07PMcNBoNjvo6UJCl93XTxNXskEiEYDI57njG8fPiTc5jh+eJYDV+PXfx9TiQShMNhBgYGxrzf4Tmu0WgcVZupr69v1DzU7XaPDHIIgiAIwsX6+vo4dOgQzz77LFu3biWRSLBy5UqWLFlCdXU1OTk56PWiFelEGSpslkSShopyvXt2N787/zbPd+0jFAyRSCTQ6/UYDAYk+RPv0fDp/+L3LpkklYhDKoWkqCArpJtkpCCeiJOIJ0gkEkPFxJIJ4rE4ieTHF3LDhZMVRUFVhgqcyYp80dOmPnpa8Zm5VmKJGMFklEhy7EE/AAUJnaSgk1VUWSFXMVKjz2ZJ1gzojfDu6++y+709PPhXf8MtNy8hPz9/0r3PPT09HDx4kGeffZa3336bU6dOEQ6HRxQJ9Hq9vPXWW+O6oyl8uqNHj/LMM8/w4IMP8vjjj3PbbbeNWkYrXJ7hgtihUAibzTbiJpwwdv/xH//B+vXreeutt0YFM4TJTbSQFQRBED6V1Wqlvr6ewsJCbr75Zt577z3ee+89nn/+eZYsWcKaNWtYsGABJpPpkmmEwtX1ySVAM101FNgKWHO8jvXr13P27FmWLp3D6tV/gT3z44y5VCJOMhxA0mlIqoYkK5BKEe1pI3buOKloGF1eCVqOB0k3lFUWjcU4ceIEZ86c5sKF1o8KOLdy4EDTiOKxFTU1lJaWkpeXR2lpKTOnzcR10fLPQDA41CVoHMv6hC8unkqwu+0gj194l7f6j41rXzmKiVmmXBoyKym3eSnOyCfPlI1ZMUAiiXvQRvREP0//YQPZdgc2m23STQxsNhsNDQ2Ul5ezdu1a3n33XV599VX27NkzrqxUQZhIJ0+e5Pnnn+eFF17g3/7t35gxY8ak++4JwrUkghyCIAjCp1IUBbPZjMFgwGg0kp+fT01NDbt27eLEiRP8/Oc/Z9OmTaxYsYKZM2fidrtHTbyFq+eTd+pMOiOFih5LkYrptgQvv/wyg0cu0KTfxZ133vlxh5tkkpQpBoqCJMsgyZBMEg2lCMfPELtwlFTzPlR7AaqzDNVZjGTPxV1UywyHD3+FP73UqGNJB93d3QQCAeLxOAaDAb1ej9FoxC7bKTXkUmD9uPr8r/73V8RiMVauXJmuTRKJROjr66OtrQ2LxYLRaESv12O1WsUdyXGKJ+N0GC5gUUbXY/o8eTordaZ8vGYXbpOTfGMWXkMWboMDh95Ght6CUf04WFVfM4OeW7v4/e9/z86dO3E6naMKlk+04WPa8B+Xy8WMGTPYs2cPu3fv5tChQxM9REG4bH6/n/Pnz3PixAkCgcC4lqcLwo1AXIkKgiAIn0tRFJxOJw6Hg6qqKqqqqtiyZQvbt29n165d9Pb20tLSwsyZMykuLk7X8BGT02tPlmUcDgc333wzAO+88w4ffPABVquV+fPnk5OTMxQ40D4x6ZUkZIMJNdtNKtRBvKOPeHcriVCcWFcrslHFnJWDNSMfOTcHxVyIbLIiKSqRaDRdI2dgYCAd8AAu2YI3Go0SjUbTywOCwSBnz57lwIED9Pb2kkwm0ev16bTrrKwsHA7HiHpIer0eh8OBLMvic3YFmCUFh2omV2/HqjNh1cyUGnOYY/His+SRb87FbshAr356sMTtdjNv3jz27t3LoUOHsNvt6ePBZHyPMjIyyMjIoKysjOnTpzNt2jR27NhBe3v7qM5HwpUz3OlGuHL8fv+46hwKwo1GBDkEQRCEL0yWZUwmEw0NDVRXV7NmzRq2bNnC+vXrOXz4MPX19SxbtozGxkZcLhcmk0m/hcVCAAAgAElEQVRkdkwASZLQ6/UsX74ch8PByy+/zKOPPorRaKSxsRGn0zmqeBeShGrLRrUtIFU9l2QkRKz1DLFzR4mc3kl43zZSiThq/mx0nno0tw+duwg1Mxe9wYz+ozX1n9ch7K/+6q+AoW5jw0ucotEo/f39dHR08MILL9Dc3DxUWDWRIJVKUV1dTV1dXbpDkdlsxuFwsHDhwnRNmOFib8MFvi/+3CWTSZLJJJIkiaDIR3SSjCapaLKKKqsUqWZmmj3Mz6rBZ83HZ/OQbcxCp3zx76/BYMDj8XDHHXfw//7f/+Ptt99m2rRpLFq0aFIXllRVleLiYoqLi1myZAnnz58fVRBduHIGBwfH3HVCuLTe3t5xNUYQhBuNuPIUBEEQxsRgMFBZWYnb7WbhwoXs3LmTbdu28aMf/Yjq6mruuuuucbcjE8avpqYmPcH8wx/+QG9vL6tXr/7MSZwkKygGE7KnDM3lxTh9PonB/0OsrZl45zli5w8R3vO/SKoOy5LvYKxdgWIe3er5UoYLDCqKkg42DLdArqur45577iEWixGJRGhtbSUajaY7YsViMdrb2xkYGCAvL4+FCxem99vW1samTZvIysqirq6O8vLy9GN9fX34/f509ocIvIFPzaDBUsiszApKMwspsrpxGmwYZT06RYcmqyjy5dfZMZvNzJ07l+XLl7Njxw42btyYbo1+PdTtsdvtWCyWS7bqFq6MaDQq6p8IgnBVibO8IAiCMCbDrVCH27jm5uZSVlbGnj17+OCDD/jTn/7Erl27mD17No2NjXi9XlEIbQIYDAaKi4tZvXo1AAcPHiQajbJu3TqsVuunTzwlGUmnR9LpkY0WFGs2is1FMr+chLeKeM9MEr2dqE4fsvZxXYZ4bzvJoB9J1aE685DkkZcalwowDHdkGc7QgKG2c4WFhcTjcSKRCOFwmHg8zuDgIJFIJN3edzhQotfryc/PT+/rYps3b+bFF19EURSMRiPZ2dnk5eVRUFCAXq8nMzMz3fZ5uE3dcF2QG0WlwYkhawZeixuXKRuPIQuPIYtcvR27PgOLZkZTxj+xH25XvmjRIlpaWti5cyfvvvsu8+bNw+l0XoHf5OpSFOW6CMZcz1KplKgZIQjCVSWCHIIgCMK4yLKM1WrFarXi8XiYPn06b775Ju+//z4tLS10d3dz/PhxZs+eTU1NDQUFBZjNZrFk4BqyWCzU1NQQDod5/fXXOXDgABaLhblz55Kbm4vh8zqdSNJQ0MKWDbZsUu4SUrEG4j3tKBnZ6Q4sAIneDqId55A0DTUrB+SxXWooikJGRsZl/Y61tbXEYjEyMzNHPKaqQ61sY7EYPT09xGIxEokEkUiERCKByWRC0zSi0SjxeJyamhqmT59Ofn4+8PFymoGBAVwuFwaD4bqZCEuShMvsZGnODBKkKLbk4TY7sejMl7UU5XJVVlZSW1vL3r17+eMf/4jb7cZut4ssGkEQBOGqE2caQRAE4YoxGo34fD58Ph9Lly7lvffeY/PmzTz55JPs2bOHJUuWsGTJEkpLS9OdM66XyeL1TlEUGhsbURSFl156if/5n/8hEokwf/58vF7vZaXnS7KMpDehuYtHPZaMRUkGepFCMqlkEgkglSKViJEM9ICsQ1L1SKoOSdGBLAHjD3gZDAa8Xu8lH7v33nu56667GBwcZHBwkIGBAQYGBujt7eX8+fMMDAzQ0tLCkSNH+PDDD7nzzjtxuVzpIEcwGOTEiRM0NTWxYsUKcnNzURSFZDKJ3+9PF1HU6/XIspzOBpAkKf3f4e3XmiIpVDtKqXaUXtPntdvtzJkzh1OnTvHLX/6SW265hfLy8lEBKGFqkyRJBLyvsIuXAgrCVCWCHIIgCMJVUVBQwJo1a5g7dy7btm3jjTfe4Omnn+app57iL//yL7n11lupqakhOzt7ooc6pdTU1KDT6UilUvziF7/gww8/5Gtf+xqlpVdmEmworkHvGaqHIWtDHSpS8Rix1mP0/ukfUOxl6Dwz0TyVaO5iZLN1KNhxlSmKgs1mw2q1kpubmy5GGo/H0/+NRqPEYjEsFsuIpVWqqpJIJOju7sZoNKYDQv39/Tz55JO88MILJJNJ5syZg8lkIj8/n6ysLMxmMzk5ORgMBux2e3opzlTh8/lYvHgxv/nNb/jggw+YPn36pGspK0wsTdNEoPsKGu6uJboDCVOdCHIIgiAIV4VOp0On02E0Grn11lspKiri4MGDHD58mEOHDnHo0CGqqqpYtmwZdXV1WK1Wkcp+DRgMBnw+H2vXrmVgYIDDhw/z29/+lm9+85vk5+ePuw6FpBmQtJHLXyRFQbFmY5h2G0l/kHjbSWLNfyaogZJVgi63Ap3bh2p3IRmMSGMoePm54/rojrEsy5f9OTMYDJSXl6eDJBfXAZk+fTqapjEwMIBer0dVVbq6ujh79ix+v58TJ06QSqXQ6/XY7XbKyspYu3YtPp8vvf+TJ0+iqmp66dCNchfWbDZTVlbGPffcw6FDh3jnnXeYNm3aDfU7CuOTkZExqs30F5GKBYn3n+XQ7m28sfMoh89cqrOIDqhk/u3LWLiomorMGz+YMtxZSwSOhKlOXE0KgiAIV5WqquTn55Obm0tFRQW1tbVs376dnTt3snPnTs6dO0d9fT0zZ86krKyM7OzsSd1u8kYwXKPjrrvuYsOGDRw+fJgnnniCO++8k+Li4it/F1BWkK3ZmOpXE+++QLzjQ+Idx0n0nSfW3kKiv59Y61HUDBtyZgFKphslw4litiKpGnyy3e01NhyAyM3NHbHdYDBQW1tLVVUVg4OD9Pb2AtDe3k5fXx+9vb309PQQiUSIRqMMDg4SCARIJBIj9vPBBx8AMHPmzHQ3olgsRn9/P2fOnEkHCw0GA6qqprNJVFX9/HoqE0hRFHJycli3bh0//vGP2bdvH2fOnKG8vFxMwgRg6Dt0+Z1swgQ6z9KyfQdH+rrpDkWJ+dvpP3uUd06YyK8oorzUiX2KfsQURRndIlwQphgR5BAEQRCuCVVVcblc5ObmMmfOHN5//32eeeYZnn/+eV566SVWrlzJsmXLaGhowOPxYDQaxdriq2i4Rocsyzz99NM8+uijWK1WVq5cSUlJyRVvoSmpOnTOfHTOfKicTTIaJtbWQvT8CWLN+4gcf4dgoBUlsxxdXg2adzqG4mkotmwkeXJ2OZFlOV1j4rM6h8RisXQ9EE3TRrXvvXDhApFIhPz8fLxeL5IkEQqFOH36NJs2bUKv15OVlZUu3Gm1WjEajZjNZrKystITxeFOR8Pfm1QqRSqVAiau9oHZbGbOnDl4vV7a29vZtm0bxcXFyLIsvttT1PDSsDFLBRhoP8+hrR8SvfNuvnp7Pvl9+zi48Zcc3VDGiv97B9+4v5Fqg/h8CcJUJYIcgiAIwjUlSRKapjFnzhzKy8u555572L59Oxs3buSVV17B5/Pxd3/3d8yZMweXyyWWsFxl06dPR1VVNE3j0Ucfpa+vj/vvv5+SkpKr+ryyTo+WV4wupwCmzyMRGiDaeorYhTPEzh8mtOckkqrDoDeh6CZnkOOLUlWVzMxMMjIy0ktmLva1r30NGLqrPfxYIpFAVVWqq6vTWSGnTp2itbWVvXv30t/fjyRJqKrK7NmzKS4upqamhhUrVuBwONDpdCQSCfx+P8CEtcRVFAWr1crtt9/OU089xRNPPMHq1atxOp3iuz1Ftbe3p5dxjYmUSW71XFb9pJ6k2Yxe10fb8Waa3jtK2N6ANduCTRMBDkGYysTZRRAEQbjmJEnCaDSiaRoZGRnk5uaSn5/P7t27OXr0KL/85S95/fXXaWxspLGxkZKSEjRNEym4V4Fer6e0tJS77rqLcDjMgQMHePTRR/nmN79JQUHB1Vs69FFbWknVASYkYway0YaWU0yiZDrEw6hOH7JhaL1+Khom1nmOSPMhVHsumncaisn62c8xSVxcD+RSbDbbqG0mk4mioiKys7MJh8PpP4FAgI6ODvr7+wkEAsRiMfR6PTqdDpvNNmIZSE9PDzt37qS9vZ3GxkZqa2vTj7W0tNDR0ZHORtHr9RiNxnRtnCuZZSHLMg0NDezcuZPNmzezd+9ebrrppilXiFUY0tnZSXNz8zj2oKDojZj1Hy2rC/XRf/4sTR90Y1rqwpVjI3OKnSqi0SiRSGSihyEIk4YIcgiCIAgTRlEULBYLpaWlOJ1Oqqur2bNnD2+99RZtbW28/vrrHD16lPr6empra/F4PCO6XghXxnCNji9/+cts2LCBI0eOsH79etatW3d1anRcgqQoKJZMFEsmOlfRqMdTqRSpWIxEXyey3oR0UdvZZCREKhpB0umGOrrcAMEwvV6fLlZ6KaFQiGAwSCwWY2BggHA4jF6vx2w2pwMdiqJgNBovGVxpaWnh0KFDJJNJuruHijYaDAYsFgs6nQ6Xy0VWVhZ6vT6dhWKxWMb8WSgoKKC6uprdu3fz1ltvUVxcjN1uF4HLKWj4s+t0Oq/AsrgUiYFOulq7ONxlxVOUR57DwlTrLXL+/HlaWlomehiCMGmIIIcgCIIwKdhsNurr66mpqWH58uW88847vPTSSzzzzDO8/fbbrF27lkWLFlFWVobVakWv14sJ0hWkqiqNjY1IksTTTz/NY489hs1mY/ny5elMmokkqRpqdh764hkotmxkkyX9WLy/k3jnOWSdgprpQjJakXT6oT+yAjdg7Qej0ZgOOLhcrkv+jMPhYOnSpXR3d4/qYBEOhxkYGCAUCrF582Z6e3tJJpMkEglSqRT19fWUlpaSkZGB1+ultLQUn8+Xfs5EIkF/fz8DAwO43W40TUvXARneBwxlcSiKgl6vZ9q0aTQ0NPDGG2+wdOnSaxZAEyYfk8lEVVXVmDqrjJQk3NNOW0cfx+USVntycduMTLUzw4cffsjRo0c/9VggCFONCHIIgiAIk4pOpyMvL4/bb7+dxsZG/vznP7Nx40Z+97vf8fzzz7N48WLWrl1LdXX1JdP8hfGZMWMGmqah1+v59a9/TV9fH1/96leveo2OzyMpCorZiqG0blSmRrztFIGdzxE7twMlqxytoA6tuA59UQ1KRtZHS2KmJkmSyMrKGrX8ZMGCBTQ2NpJKpfjWt76V7v4y3A1mYGCAYDBIMBjk9OnTmEymEROo7u5unnrqKTZs2MAjjzxCaWkpBoOBRCJBd3c34XAYGJrMOhwOZFmmsLCQ2tpa/vu//5tjx45RU1ODx+O5pq+HMDmYzWbq6uqwWCyf/8OfKgVE6es4R+uFLvplF84sMxbDFG2rIghCmghyCIIgCJPKcDFFVVXxer1YrVaKiorYt28fR44coampib179zJr1ixuvvlmZs+efclJnDA2mqZRUlLCunXriEQi7N+/n3A4zNe//nU8Hs/EZnRIMpJu9PNrnkok9S7infXEe3pJDPYQ2vs8of1Po2QWo8stQ80tQZdbiGzKQJpi7UsvlfFkMBjS7WdtNhvJZJJYLEYkEiGZTBIOh4lGo8Tjcfx+PzabjaysrPS/N5lM1NfXp4Mow0tkQqEQe/bsYcuWLbS0tKCqKnq9HrfbTU5ODoFAgKysLN5++20sFguLFy/GZDKll8YIN7bhz5Usy1egzlIKCDLQ3U1vb5hUphtnlgmzYarlcQiC8EkiyCEIgiBMWsOTI7fbTUlJCYcPH2bXrl3s2LGDvXv30t7ezvHjx5k9ezZerzfdTlMYn+EaHXfddRd/+MMf0jU6vvzlL1NUVDTplhiodheKNZukp5pYxzniHadIdJ8m3tdCMhQgcu44sc4WoqcNKHYPis2FmpWH6nBP9NAnDVmW03VAvgiDwcD06dMpKioaEeSQZRmbzYbL5SISiRCNRolGo/j9/nR9EJ/Px9GjR0mlUvT29mI2m1m9ejUFBQXp/Z85c4ZkMklmZmY6uJJMJkkmkwCivfR1KhAIXNkCmakQwX4/gcEEkjWLDEMYf0sTx2MQc1dSmqmgV6bG50Sv1+NwOEYUHxaEqUoEOQRBEITrgsvlwuVy0djYyOLFi3nmmWd477332LNnD0ePHmXevHlMnz4dj8eTLp4oJkFjp9PpaGxsBOBPf/oTGzZsIDMzc9LU6PgkSVVRrHYUqx1KppOKRUgM9BLrvkC0+RCxlr1Ejh5GMhWgc1VhqLhpZJAjlSSVSCAp6g1Zw+NKU1UVu90+qjCq2Wxm/vz5zJ8/n0gkgt/vx+/3093dzeDgIF1dXSSTSTZs2MDu3bsZHBwkKyuL+fPnjwhyHDx4kFgsRnl5eTrIEYvF6Ovro7W1FU3TMJlM6ba7w1kBiqKki1kqiiImfJNMKBRKZ3JckbpKqRQyCrIkIScG6D57giODzUTjJuR5JRRY5CkT5MjIyKC8vFxkRAkCIsghCIIgXGcsFguzZs2irKyMo0ePsn37dl588UU2b95MTU0Na9asYdmyZeTn54usjiugrq4Om81Gfn4+v/rVr+jv7+crX/nKhNfo+DySqqHac1BsDvTeSlKRVSQHu4m2NpMY7Bv188lIiERfF6ojD2ncHR8EGFr6ZLfbyczMJC8vL13YdOHChezcuZNEIsH999/PqlWrRtXXycjIIBQKjdjm9/vZunUr3/ve9wCor69nxowZWK1WCgsLsdlsZGZmpoMlDoeDzMzMa/PLCpfFYDBQXFw8zmO0DHIOhdNrqZl2EO2d/+KfHjjFbf/nDr58+3xuKTFgnCIBDgC73c60adNEkEMQEEEOQRAE4TojSRKappGVlcX06dPJycmhtraWffv2cfz4cTZt2sQLL7zArbfeyk033URFRQUOh2Oih33d0jSNwsJCbrvtNiRJYteuXfz2t7/l61//OoWFhVegBeRVIkkgSUiyPFR4VDMgGy3IFgfJaBj5otoeqViE6Jm9+N9/CtOsL6Mvmo6SIT4z4yVJUjqbajijIpVKodfrWbZsWfo7+5WvfAVVHXlJWlNTQzweH7E0ymKxUF9fzw9/+MP0PiVJIplMcuHCBU6fPk13dzcnT54EhtL3Z82axTe+8Q2ysrLQ6XSEQiG6u7vp6OigoKCAnJyca/FSCB8JBoNEIhFkWcZisVyBTBsdGaU3c8v/9fLovA6iehf5pUUUFTowqRc3mr4xDbeADgQCyLIsMhgF4SMiyCEIgiBcl4bX/mdkZFBcXExpaSkffPABu3fv5sCBA7z88sscPnyY2tpaGhsbKS8vx2azjZpMCZ/PaDTi8/m4/fbbCYfDHD58mPXr13P33Xfj9XonXY2OS5JkJJ0exaZn9LRKQtIZUTJyQNU+Xq6STJII9JMY7AVSKNYsFHMGyGIJxFhJkoSiKDQ2NnLq1Cn279/PhQsXyM3NHXEHOjs7e9S/1ev1FBcXc++99wIwODjIwMAAkUiE7u5ugsEgHR0d6YyRcDiMqqrpdrYAkUiEtrY2jh07hslkGhHkOHr0KB0dHeh0OnQ6HWazGaPRiKqqmM1m9Hp9+jFhbPx+P6FQKF1gevwTchldpgdvpgdv7RUZ4nUllUoRCASIxWITPRRBmFTElZ4gCIJwXZMkCZ1OR1lZGT6fj0WLFnHgwAEefvhhtm7dyq5duzhw4ACrVq1i2rRpuFwuzGYzsiyLO16XQVEUPB4P99xzD88++yyPP/44drudZcuWTcoaHZdD0mlo3hnoXOWgaunlKqlkglhvB9Ezh0iF/KjZLjRXEbLJhqSZkHR6UD+6cyo+S5elrKyMrKwsdu3axaFDh9JBhM+jaVo6MPFZWRjRaJT+/n4SiQR2u31EJslwAdOLgx8wVAdk7969GAwGNE3D4XBgMpmQJImMjAwsFgsWiwWz2YzJZMJsNqf/f1gikSCRSKQn8OIYM9LFmRzj764iXExRlHRxX0GY6kSQQxAEQbhhKIpCdnY2ixYtoqKign379rFlyxb+93//l2eeeYbbbruNe++9l4ULF2KxWERWxxjk5+dzxx13kJWVxT/90z+la3T4fL6JHtq4SKpuqOgofBywkKShZS3JBNHTO/Fv24ViykVX1IhWPAstvwzVmY+sGadcW9rxcrvdlJWVsWfPHg4cOEB1dfUVXVam0+nS+7s42JCZmUl9fT21tbWjvv/Tp0/HYrHQ19dHb28v7e3tnDlzhiNHjnDy5Eni8TiSJGGxWJgzZw5z585l0aJFzJo1K70Pv99PX18fTqcTvV4vCp9+Ck3TcLvd13VwdLKx2WyUl5eL11QQEEEOQRAE4QYzfIfQ7XZjNBopKChg7ty5HDhwgKamJv7lX/4Ft9vN2rVraWhooLCwkIyMjIke9nVDURRycnJYtGgR3/3ud3nvvff41a9+xf333091dfX1fYH9ibvukqyg2nMxTZuHVuAj0becRF8viUCA6Mn3Ce37A7LehC6vDp27GjWnENXhQtIMSJK4m/pZFEXB5/NRVFTEk08+ybx58/B4PFcsKPBpWRTDmV+XWnJSUFCAw+EgGo0SiUSIRCIEAgH6+/vTS2NCoRDxeBxFUdLtc4f19PSwadMmtm3bxgMPPIDH48FoNBIOh2lubqanp4dEIoHJZMJut6PT6dKZITfyEpjhDjs6nY6enh5CoRCyLGMymUTWwTilUqn0a3rllgAJwvVPBDkEQRCEG5KqqmRnZ2O326moqKC2tpZ3332XXbt2ce7cOZ577jn27NlDZWUl9fX1FBcXk5WVJSrTfwF6vZ78/HzWrl1LIBDgwIEDPP7446xbt47q6upRbUWvW5KEbDAhG0woWXmk4tNI9HUS72kl3nGSeLtEwt9HvKedxGAf0ofvomRmY6hagi7Xh6TcuBPXKyEvLw+fz8djjz3G+fPnCQQCExpwHF6O8mmCwSDhcJhoNMrAwAAmk2lE95bhTLKSkpIRywaSySShUIjjx4+nl9C0tbWhKAomkyld96O8vByr1ZpeKpOXl3d91Lv5HKdOnWL79u10dnZy+vRpTpw4QSKRYP/+/bS2tuLxeMjLy/vM1164tFQqhd/vJxqNTvRQBGFSEUEOQRAE4YamKApms5n6+nqqq6u57bbbeP/991m/fj0vvfQS27Zto6GhgYULF1JbW4vH40lPNMQdsU+nqioej4d7770XvV7PY489RjKZ5M4772TmzJk33IRFkmUkzYCc40GX4yFV3kAqHCTW3kL0wkmiZ3cTa/4zqVgUNasQ1VGYDnKkohFSyQSSoiDpNLjhez58MdnZ2fh8PiRJoq2tjd7e3kmdVWUymdL1N1wu16jHbTYbq1atYtWqVSO2K4qCw+FA0zSSySRdXV28/vrrxOPxdA2PVCrFLbfcgtPpxGg04vF4WLZsWTrIkUql6O7uJh6PYzAY0sGVVCpFPB4nHA6j0+mQZRlZlifVUryzZ8+yadMmXnnlFZLJJDD03v/xj3/E4XCwePFili5desMdM66FVCpFNBolkUiksxjFeUsQRJBDEARBmEI0TaOoqIj8/HxuueUWdu/ezaZNm/j973/Phg0buPnmm1m7di1Lly4lPz9fZHV8AQUFBdx5551kZWXxD//wD+m06YULF0700K4qSZaRjGY0bwWap5TUzCUk/f1EW0+heSqQ9Yb0z0Y7WkgGBpEtGWjuYiTRnQUAu91OQUEBkiRx5swZ2tvb8Xq9Ez2sK2448+nOO+9MFz194IEHiEQi9Pf309fXl+4Q4/f76e/v5/Dhw8yfPz+9j2QyybPPPktXVxcVFRXccccdAMTjcTo7Ozl+/Di5ubmYzWYsFsuIZTQTzePxUFdXx2uvvZYOcnR3d7NlyxbKy8uZMWMGZrN5gkd5/TMYDOTm5k6qAJcgTBTxLRAEQRCmjOH2lcN1JebNm0dhYSHLli3j2LFjnDhxgmeeeYaNGzeyfPly6urqKCsro6CgYKKHPmnJspyu0fGDH/yAV155hccee4xEIsHcuXNv7ECRJCFJCsgKkqJD0hnQGy3IehMXZ2ukgn7inWeRBgxoud50C9pUMkEqEkKaooVLJUkiJyeH++67j9bWVk6ePEljY+NED+uqGL7LfrFkMonNZsPtdpNIJIhEIsRiMWKxGMFgcET3GEmSmD17NpFIZESB1kgkwunTp9m4cSOnTp0iEomgqmq6HpHX6yUvLy/dbttqtZKZmUl2dna6c8zV5nK5qKioGPFcwxkIixcvZtasWSM61AhfXCqVor+/n3A4jNFoxGAwiEwOQUAEOQRBEIQparhmR1ZWFlVVVTQ3N/PBBx+wd+9empqa2LlzJ01NTRQWFjJz5kwqKyvT7WeFkfR6PQUFBaxZswa/38+ePXt44oknUFWVmpqaG6dGx2eRJCRVh2LJHPWQYssGUqAoMFyQNBEn0ddKcN9mFKsbJcuDanehWO1DrWmnSEHGjIwMFi1axOOPP87p06cJhUI3RB2KL0KWZfR6/RcKBEqSRGlpKalUakSwRFVVHA4HtbW1WK1W/H5/OlgiSRKBQIC2tjZaW1vRNI1wOIzb7ebmm29Gr9ejqirBYJDOzk4uXLiAz+cjNzc3vf9wOEwqlUKn0405Q8Bms1FaWsq0adM4ceIEfr8fq9VKRUUFS5cupaKiQmQfjFEymUwXHjWZTKKbjyB8RBxRBEEQhClteKJRXl6Oz+dj/vz5HDhwgJdeeon9+/fzwQcfcPDgQebPn8+MGTMoKirCbrdjNptRFEXcNfvIxTU6NE3jiSeewGQykUqlqKurw2q1TvQQJ4wu14Mu1zNiWyqZJDHQReiDLUgGN4qzBM1VjC4nD9nqRDZnIuvNSJp+aHnLDfo5MxqNlJeXEwwGOX/+PN3d3SJz6hKGW9d+ksFgoLKyksrKSmAoKBEIBBgcHKS7u5tgMEh/fz8dHR0EAgFaW1tJJpNEo9H00pFgMMjp06fZtWsXJpNpRJDj/PnzdHV1kUgk0DSNjIwMDAYDqqqiaRqKoqCqaro7jKZpozqmDAdBV65cSW9vL5FIBI/Hwz333MOsWbOuaOvgqSaZTDIwMG6xSRoAACAASURBVEAkEhHdVQThIiLIIQiCIAgfUVUVt9uN0+lk7ty5nDlzhh07dvDCCy/wz//8z2RnZ7Nw4ULuuOMOZs+ejc1mE3cgP6GgoIC77rqLrKwsfvCDHxAOhwFu+Bodl0vSaejc5Vj/4kFiZ48TPb0bf9MWkpFuVFc9mm8u+tIG9AUlyEYrknpjdmoZDnKYTCb6+/tpbW0lPz9fTNTGyGAwoNfrsdvteDxDgbVUKpUOaCSTyXQb3eFghKZpZGdnU1FRMaJbDMC2bdt44okneP/99wFYvHgxFRUV2O12vF4vZrOZnJycdCFWt9t9yWy34Yydl19+mUgkQkNDA1/5ylcmVe2Q652maVitVtGWVxAQQQ5BEARBGGF4AmC1WiktLU2ngu/fv58PP/yQ06dP8+CDD2K321m6dClLliyhpqbmmq1vn+xkWcbpdHLzzTfz4IMP8tJLL6VrdMybN29UXYKpTNIM6D2VaNkFGMvrSQy0E+04Q6K/n0R3M4GzuwnIMVRnNWpeDVp+GbrsfCSD6YYpXqooCjabLV1wtKOjY4JHdP2TJOmyjkUmkwmv10tOTs6ojKulS5fi8Xg4deoUQLpwaiwWo7m5mUgkwrlz5zh9+jQAt9xyCytXrhxRW+X8+fOcOXMGq9WKqqpUV1ezYsUKsrKy0hkgwtikUimCwSCxWAxVVbFYLCLIIQiIIIcgCIIgXJIsy5jNZsxmM263G6/XS3NzMwcPHmTHjh20tbWxbds2jh49SkVFBXV1dfh8Plwu16Rug3ktDHeTWL16NYODgyNqdEybNm3U3eKpSpIVFJMVTFZwuEnFy1DdlSR6O0h0nyHedZp47zkSQT/J5kMkB7uhfA46lxfJcGMUahwOKpaUlNDe3k53d/dED2nKUVUVq9V6ySVlHo8Hp9PJjBkzAOjr6yMQCBAOh+np6SEcDuNyuXA6nSQSCXJzc0cEMqPRKOfOnePDDz9k5syZ3HTTTeTk5ODz+Thz5gxHjhwBhjrtDC+HGa5TYjab0ev1aJomMuY+RTwep6mpic7OTmRZFkEjQfiIOGIIgiAIwudQFIW8vDzy8vKYMWMGS5cupampieeee44///nP7Nq1iyNHjlBbW0tNTQ1lZWXpuh2apk3JDA+dTpded6+qKk8//TRPP/20qNHxGSRVh87hRudwQ+kMktEQsY7zxFpPEW87QSrYRzLkh2QCgFQiQSoSJOHvQTaYkc2ZSMr1eWlXWFhIR0cHzc3NEz0U4RMMBgMGw1BL5Ozs7Ev+TDKZJB6PEwgERky04/E4iUQCnU5HdnY21dXVRKNRWltbGRwc5M033yQej+N2u9HpdDgcDlRVRZZlTCYTFoslHWzOyMigoKAgPRaAWCxGKpVCluUpGQiJx+McPHiQ/v7+Ea+LIEx1U+9oIAiCIAjjYDKZ8Pl8FBUVsWDBAk6dOsX27dvZtGkTr732GmazmUWLFrFmzRrq6+vTF+9TVWFhIXfffTfZ2dn87d/+LdFoFEmSWLBgwUQPbdKTNSP6/BL0ecWkUrcAIElyuvNKMuQncrqJ4J83ohXXY5q5EtV2fdY4sNls6UypH/7wh6JLxHVmuEWuTqcbEdQ1mUzcdNNNNDY2oigKzz//PG+++SY33XQTf/zjH8nMzKSzs5O+vj56enpoaWnh+PHjHD58mBMnTgAftxpetGgRDz30ECUlJcBQYKW3t5dYLIbRaJzS9T1yc3PJy8ub6GEIwqQhghyCIAiCcJkkSUJRFDIyMqioqMDpdNLQ0MDJkyc5fPgwTU1N/PSnP6W4uJgZM2bQ0NBATU0NDofjC7WLvJFIkpSu0fGTn/yEF198kccee4x4PM78+fOndADoC5EkkBQulQskaXp0znw0XwM6tw/F/HF2THygm2QogGw0o5htkz7Dw2azYTQa6e3tneihCONwqaw1WZaRJIloNEosFqOkpIRFixaRmZmJwWCguLiYWCxGLBYjGo2mu8MEAgH6+voIh8MkEol0/ZZh8XicrVu30tXVhc/n40tf+tK1/FUnXDwex+/3k0wmKSgoSNe1EQRBBDkEQRAEYcwURUmnU+fl5VFWVkZlZSVlZWXpFOL9+/ezZ88eioqKmDZtGlVVVXi93nTRvamwlOXiGh3BYJCjR4/y6quvomka1dXVokbHGEmqDiUzG0P5bGSzbUQHlnjHWSKn95EKd6HaC1Hs+Sj2PNTMHGSDKZ0NMlnodLopudxgqojH4/T39xOLxcjOzqaoqAidTveZhYhTqRSBQIBYLEY4HCYYDI5Y5ibLMgUFBdhsthFtb6eKWCzG4OAgiUQCs9l8yRbDgjBVibOJIAiCIIyTJEmoqorT6cTpdDJz5kw6Ojo4ePAgW7du5Y033qCpqYljx45RXV1NVVUVFRUV5ObmYrfbsVgsN3xGg06no6CggPvuu48333yTrVu3smXLFiRJoqamZsoXax0LSVaQDCa0PN/oB2NhEr3niZ3fQ1R3HCWrENXpRZfjRsl0oZjsSEYLssGEpOiGMkYE4SqJxWJ0dHQQjUY/tcjpJ0mS9JkTd1VVmT9//pUc5nUlFosxMDBAIpFAr9eLmhyCcBER5BAEQRCEK0xVVdxuNy6Xi4ULF/Kd73yH/fv38+abb/Laa6/x61//msrKSm655RYWL17MzJkzcTqdU6L1n8vlYvXq1Xg8Hh566CESiQTJZHJKT1auBkPlHPTF04n1dBD5cD/Rs4cJ7n+RRNchFHslWtFs9KUN6IunoWY6J/1yFuH6Fo1GaW9vJxqNTtnMiystFovR399PMpnE5XJRUFAw0UMShElDnNEEQRAE4SqQJAlJkjAYDLhcLubPn09VVRV/8Rd/wdGjR2lubmbnzp28+uqr5OXlsXDhQurr66moqCA/P/+GzeyQJAmz2UxNTQ1///d/z4svvsjmzZuJxWIsWLBALFm4UiQJSTOiZrtRTBYMZXUkg7eR6G8n3tdLvPM8wX2bCO74HYo5B9VVg76kAUP5zAkZ7sDAAEajkcLCwimxhGuqSaVSBINBkskkBoOBjIwM8T6PUzQapb+/n0QikT7fCIIwRFxJCIIgCMJVJMsyer0evV5PdnY2BQUFlJeXc+7cOfLz8zl27Bi9vb0cOHCApqYmbDYbXq+X2bNn4/F4cDqdN1y7VUVRyMzM5KabbqKvr4/9+/fz6quvotfrqaqqEjU6rhRZRtYMoBlQcJJKFpKKhEkMdBPvOku86wyJ3mYSoQiJcIhEcGDEP0/FIiQjIRRTxlWv4dHf34/JZBIdIm5QkUiElpYWQqEQBoNB1I+4AqLRKD09PSQSCaxWq1jyJwgXEUEOQRAEQbiGTCYTXq8Xr9fLzJkzaW1t5ciRI+zatYs9e/awf/9+NE2jpaWFkpISSkpKKCoqwm63Y7VaMRqNN0SWh6IoWK1WVqxYgaIovPLKK+mMjpqaGux2+5RYvnMtSbKCZDQjG83ocgtJxRtJhvzEOs6R8PeiWO0f/3AyQbz3AtGzR9AX16NYHUi6Ty8SOV4dHR0oiiIyOW5QoVCIEydOEAwGMZlMI7qkCGMTjUbp7u5OBznEayoIHxNBDkEQBEGYIEajEZ/Ph8/nY9WqVZw/f56mpibef/99XnnlFX7/+99jNBqpq6tjxYoVzJ49m/LycrKzsyd66FdMRkYGy5cvJzs7mx/96Ee0trayZs0aVq5cOeXa7V5rkqpDsdpHBjc+koyEiRzfzsCr/x+WpX+LadoiVIf7qo3l5MmTBINB7PbRYxGuf9FolHPnzhEOh8nIyCAnJ2eih3TdC4fDdHZ2Eo/HJ3oogjDpiCCHIAiCIEwSTqeThoYGysvLWb16NU1NTZw+fZpTp07xm9/8hscff5zy8nJmzpzJjBkzKCsrIzc3F7PZPNFDHxej0Uh1dTUPPvggzzzzDC+++CJ9fX2sW7cOo9EoMjomgKw3YKhajJLlQc32IVuGgg+peIxY13li7c0gyehyveic+UiyMqbnSSQSBAIBzpw5g81mE5PfG9TAwADvvfceBQUFFBYWTvRwbgihUIgLFy4Qi8Ww2+04HI6JHpIgTBoiyCEIgiAIk4SmaWiaht1ux+v1UlBQQHt7O83NzXg8Hrq6uggEAuzdu5f3338fl8tFSUkJZWVlFBUV4Xa7sdls110GhKIo2O32dI2O7du38/bbb2M0GlmwYAG5ubkoytgm0cIYyQqq3Y1izQZZGdF9JRWPEe9pI951msix11GzPCiZBSiZbpTMHJSMLCRVhyR9fnAqGo3S1tZGb28vubm5uFwusVzlBhMKheju7qarq4sZM2bcUJloE6mvr48DBw4QCoXQ6XRo2tVbTiYI1xsR5BAEQRCEScrpdOJ0OqmpqeHWW2/lwoULHDx4kJ07d7J9+3bOnj3L8ePHOXDgAHl5eZSXl1NUVEReXh6ZmZmYzWYMBsN1UcNjuEbH8uXLkWWZF198kWeffRZN02hsbMTlcomMjmtNVpC0TwSXJAnFaEXNdJLsPUOs7UPiHWeRrfkotmyUjCx0zjyUzDxkkx3ZYEEyGIcCHpcIXkQiEZqbm5EkKf15F24sg4ODdHV1AUMtpMWSpPFLJBL09fVx6tQpcnNzb7ji1IIwXiLIIQiCIAiTnCRJ6PV6iouLKS4u5rbbbmNgYIATJ06wY8cO3njjDZ588klSqRQVFRUsWLCA+fPnU11dTXFxMVlZWem745P9LrnNZmP58uU4HA4efPBB/vCHPxCNRlmzZg0Gg2GihzflSYqK6nChOlyYaheRDPqJnjtJpOUQkRNvEzvzLgBa6TL0pXPRCmvQ55eCwTQiG2RYOBzmxIkTOBwOCgsLRWedG1AgEKC7u5tUKkVhYaFYknQFRCIRQqEQer2elStXUlpaOtFDEoRJRQQ5BEEQBOE6oygKGRkZVFdX4/F4uOWWW/j2t7/N2bNnOXfuHKdOneKnP/0pJpMJj8dDTU0NjY2N+Hy+dJbHZM7uMJlMTJs2jYceeognn3ySl19+mXA4zJe//GU0TRMZHZOEJCvIJgt6byU6lwdTzRwS/V8j3nmeeF8P0TN/JrRvA7LegHXZd9GXNA61tL3I8PKrwsJCioqKJug3Ea6mcDhMf38/AA6HQ2QdXAGhUIhgMDjRwxCESUsEOQRBEAThOiNJEqqqYrVasVqtuFwuSktL6enpoa2tjebmZsrKyujq+v/Zu9PguO7zzvffc06f7kZv6AVobI2dxMoVJEFxlyiKFLU4ki1b8XiNa+44djKeupnJjGvqTnlUqXvt8njGc5dJomhGzkROHDuOVpOURA9FiSRIERQ3iQRJAASIfQcava/nvqAJS9FiSgTVAPh8qliSsPHpBrqh8/Tz/z0TxGIxent7OXv2LIWFhXg8HgKBAKtXr6asrAy/309+fv6COs99I6OjtbWV6elpjh49yuuvv47VamXbtm34/X7J6FgIFAVFM6HYHKg2B7gLMfzVZIqmSAfHSU9WkBmvIB2cQs3Lf084aWpymFQ0ykjXJd48cYLPfu5zFBcX5/DGiNtldnaWsbExDMPA5XJhs9lyXdKid6PJoaoqxcXFOByOXJckxIIiTQ4hhBBikVNVlby8PMrKyigrK6OlpYUHH3yQgYEBent7OXPmDK+++ipXr14lEongcDjo6+vD7/dTWlpKIBCguLgYl8uF0+nEZrNhtVpzOjFxI6PjvvvuA2D//v08++yzktGxkCkqitmKqaAUU0EpRvUKjHiU1PgQur8MxfTb6aH0xDDh4WuMvHOWK1cu4/V6rwdSGgZGJn39aMsCP1olbs7w8DAdHR0YhoHD4SAvLy/XJS160WiUSCSCqqpLYsOWEPNNmhxCCCHEEnMjw6O2tpba2lruvfde/uRP/oTu7m46Ojo4d+4cp0+f5he/+AXT09MUFxezceNG1qxZw4oVK6irq6OsrGxufauiKHN/Pm35+fns2bMHr9fL9773PX7+85+TSqV48MEH5RXhBU5RNRSbE0tl/fveZ2RSRIZ7CHaeQVNVysvLKSgowMikyISmUW0uVN0MHxJYKhYHwzC4fPkyr732Gqqq4na75XE7D2KxGOFwGFj4OUtC5II0OYQQQog7gPqbC0mfz0dLSwuf//znuXbtGsPDwwwNDdHX18cvfvELfvrTn5KXl4fD4WDr1q2sXr2a2tpaSkpK8Pv9OcnysNlsrFq1iieeeIJnnnmGAwcOEIvFePzxx9F1XSY6FiFrdTPn3nqHVwfifPaxx6ipqcGsQvLaeYIv/Z9ohSvQy1dhLm/C7C9HybO/57iLWByCwSDhcBifz8d9990nR5LmSSqVIplMomkagUAAl8uV65KEWFCkySGEEELcIaxWK1arFa/XC0B5eTmhUIjJyUmGhoaor69ndHSU6elpgsEgo6OjvPDCCxiGQX5+Pk6nk8bGRmpra/H7/Xi9XtxuNxaL5bbWfSOjY8OGDUxOTnLs2DFef/11LBYL27dvp6ioSBodi8xEKMo714bpGQ/yLx59/HrOikkna8vHVLYGI6WS7HuH1MA54lYzmm8ZpsJqTAUBtHwfim5Fke/5gjczM0M4HMZut7NmzRoJHZ0nwWCQqakpFEXBarViMsklnRDvJo8IIYQQ4g5lt9ux2+0UFxfT1NTE3XffzfT0NKOjowwNDdHb20t7ezvd3d309PQQiUTo7u6msrKS/Px8iouLKSwspKioCL/fP5fnYbFY5n0Lyo2Mjt27dwPwyiuv8Nxzz2GxWCSjYxExDINsNsvp06fp7OzEZrOxfv168vPzQTNh8pXj2PIVUmN9pIc7SI1cIjE+hDoxhTbaj+YtQvcWoOaXojkLUG35qDfW08rY/oIzPT1NKBTCYrFQUVEheRzzZGxsjKGhIRRFIS8vb0FvyxIiF6TJIYQQQggURUHXdfx+P36/n5UrVwLw5S9/mYmJCfr6+ujq6uL8+fOcPHmSM2fOYBgGhmHQ0NDAQw89RF1dHVVVVZSWluLz+cjLy0PTtHnN9cjPz+f+++/H4/HwxBNP8Mtf/pJ0Os3evXslfG8RyGazRKNRXnrpJQYGBti8eTNNTU1zF2mK2Yq5tAZzaQ2suZtsLExiqIdUXweJ7uPEO17GiI2jFbVgqdmIdVkL5vI6VHv+9UaHWFAmJiaYnZ3FbDZTUlKyoLY4LWaDg4Ncu3YNXdcleFSIDyC/DYQQQgjxofLy8iguLsbr9dLQ0MDOnTvnpj1GRkbo7+9nYmKCgYEBnn/+ebLZLGazGbfbzbZt22hoaCAQCOD3++dWHd7qq442m401a9bwZ3/2Zxw8eJATJ04QjUYlo2MRmJ6eZt++fbS3t9PY2Mijjz76keuAVYsNS6AWc2EpeSs2kg1NkZ4aIj05Rnqij+g7r2EoKtbqZpQ8WaO50PT09DA8PIzZbKa4uFiaHLfIMAxSqRRDQ0PE43E2btwo0zFCfABpcgghhBDiQ6mqisViwWKxzJ2nDwQC1NXVMTs7y/T0NDMzM0xMTLBy5UomJyeZmpoiHA4zPT3NCy+8QDKZxOl04nK5KC0tpbKykvLyctxuNz6fD5fLhc1mu+lz5TcyOtatW4fJZOLEiRNcuHCB559/nh07duD3+6XRsQDNzs7y9ttv88wzz1BWVsbdd99NXV3dR3+vVBXVYgOLDQ0fhqcUU2EVmdlJMjMjGNkMuq8UxXT94jmbiJGeHCZ17TymklrMZXUo+u3NjBEf7uzZs4yNjVFfX09hYeE8NDkM0pFxJq5d4p0zb3L88hTBaB6e0uU0bNrCplUlFNp09CV6cskwDGZnZ5mdncVisdDU1ITVas11WUIsONLkEEIIIcTHomkaNpsNm802ty3hxiuMU1NTjI2NMTw8zOjoKCdOnKCnp4dgMEgikaCrq4vi4mKKiorQNA2/34/P58Pj8VBUVITb7cZut2O1WrFYLHNHXj6oBqfTycaNGwF4/fXXOXToEHa7nZaWFsnoWGDC4TBnz55l37599Pb28u1vf5tt27Z97K0QiklHc3rQnB4oW/b+D8ikyYRmSFy7gGJ1QMnyuXdl41HIpEE3o+oWyfC4jbLZLLFYjO7ubtLpNMuWLcPlct1CQKYBRpZksJ+rp9/ibPtbtHd10zUZJxHKYO7o43JvArPzATbUFlCctzQf+4ZhMDk5STQaxeFwUFNTc9uDn4VYjKTJIYQQQohbpijK3Eh6cXExq1atAuCrX/0qwWCQoaEhxsbG6Orq4sqVK1y4cIHjx4+TTCbJZrO4XC42bNjA6tWrqampobi4GL/fT1lZGU6n8z3ZHu/+p67rbNy4EZfLxVNPPcVLL71EMplk9+7dOBxyfCHXbgSNdnZ28vd///e88MILfOYzn2Hnzp1UVlbO+9+nmK3oRRVkG7ZiKqpEsfz2Ve70xBCZ8BSay4fJ478+/aFq11fTSsNjXiWTSQYHB4nFYvj9fpYvX36LeTxZjHSYiXd+xfN/sY9XO/LwfOV/5/94Yg3Lsqd56+cv8qM/+wkHVjbhyXdSXL40j3C8u8lhs9koKyuTzSpCfAB5VAghhBDitnI4HFRXVxMIBGhubiYejxONRueyPcbGxhgfH2d0dJSOjg4OHjzI1NQUuq6j6zqNjY2sW7eOQCCA2+2emwTxer3ouo7JZKK2tpY//uM/5mc/+xltbW1EIhG+8IUvSEZHjsXjcbq7u/nRj35ET08Pn/vc5/jmN79JZWXlbbk4UzQTmtNNXl0Liv7eoxHJwUtEzx0gO9uHybMMvWwF5opmzGXLUZ3u680OMS8SiQQ9PT1Eo1FKSkqorq6+pSaHkZwmOXKS55/8GUeCVXgffYw//cpa6grzcGTLKKn2sbrwCm9c6mZjSyUbyvNYivMN2WyWYDBIPB7HarVSXFwsm1WE+ADS5BBCCCHEbaVpGpqmYbVa53I9DMMgk8kQDocJh8OEQiGmpqYYHx9nZGSE8fFxQqEQwWAQRVHo6enh7bffJhQKoes6DocDm83G8uXL8fv9eL1efD4fDQ0NXLhwgVOnTpFIJNi5cydlZWUy0v0py2QyDA0NcerUKZ577jmGh4fZuHEjjz32GMuWLcNsNt/ypp0PpCgomgnF5nzfu8yBOjBSpKeuYSQhHZwgffZl4u/sQ/NUYiqoQvOUorl8aO4CaXrcgmQySX9/P/F4HI/HQ1lZ2S18v5NEJ3q5eugFXjmtQOtatu7awIoSB3kKqCkNVTXAiDA8NsNkOE4SlmSTwzAMRkZGCIVCOJ1O3G73Rwb3CnGnkiaHEEIIIT51iqJgMplwu9243e73vC+VShGJRJiZmWFqaorh4WH6+vro6ekhHo8TDAYZHx8nEokwNjaGy+UiLy8Pm82Gy+VicHCQK1eucOrUKYLBIOvWraO8vHwuR8RsNs9NgIj5lc1mSSaT9Pb20tbWxqFDh+jo6OCee+7h4YcfprW1NWevPJvL6tD9VWQiQdIz46SGOkkPXyQzdZV0OE56agLF5kKz29D9FWj5pWj5fjSXNyf1LmaxWIyOjg7C4TBOpxO/3//Jv1g2RHC4i9MHDvNOciM7GlazaWUx9hs9k1SCZCxBMAzJVJasYWDMy61YeNLpNOfPn2dkZASfzydNDiE+hPx2F0IIIcSCouv6XPOjqqrqPe8Lh8PMzs4yMTFBX18fAwMDdHV18c4773Dy5Emy2excDoRhGHR2dnLXXXexadMmysvLqaysxOv14nK5cDgcmM1mNE2by/i4kfdx44+4eZlMhkgkwuDgIM8//zwHDhxgbGyMP/qjP2Lv3r1UVlbmfLRe0c2Y3IWY3IVYq5owUnvJhIMkB7uId7WTvNpGZvwSitWLuXY7tlW7yGu+67dfwDCu/5EjUB/qxgaQ48ePzzU53G73J388JSaZGeii/Wg/ifp/RmldGZWe317CGMkYiXCUqVkNl9OOy2pmqS6qTSaTvPbaa/T19dHa2orXKw04IT6INDmEEEIIsWjYbDYsFgsej4fKykpSqRSJRIJ4PE4kEpnL+JicnGR8fJzDhw9z6dIl3n77bQzDwGw2YzKZUFWVvLw87r//fqqqqvB6vXNj9Tc2vNhstlzf3EUjlUrR1dXFwYMH+Z//83+i6zotLS3s3r2bu+66C4/HsyAnZxSTjubyYM1bhaV8GdnoXjIz4yTHB8BQ4Z/kemTjETKRECZvEYo0Oj5QNBpleHiYy5cv09zczIoVK25hdWyW5PgAA1ev8VrQR9naeuorfPiUd71/epSR8QnOqz58xT58DsuSbHKkUilCoRDZbJbm5mZaWlpyXZIQC9bC+20jhBBCCPEhbkxb6LpOXt77NyiEw2EikQjRaJRIJMKaNWs4fPgwJ06cYHJyks2bN2Oz2YhGo8TjcUKhEK+++ioTExPk5eXhcrmwWq2YzWYcDgfr1q2joKAAh8OB0+nE5/PNrbj95BduS0M6nSYUCtHT08PZs2c5deoUly5doqSkhE2bNrF582ZWrlyJ1+tduOGvNzI8NBNY7WhOL5qnDK2wCiOdRLXa5z40G4+S6H6T2OWj2Fb/HubSWtQPyP6404VCIYaHh4lGo9TW1hIIBD7hFIcBxJke7KG38xLX4rPkH/kpPxs5xEmvZe5jMsFr9F7uZ0z1scLvwWO3sEB/2m7JjcdbJpMhEAhQUVGR65KEWLCkySGEEEKIJcPhcLxndWx9fT1+vx+32017ezvLli2joaEBj8dDIpEgGAxy5swZ0uk0qVSK6elpYrEYsVgMRVGIx+NzzRRN0ygqKpoLPbXb7ZSUlGC328nLyyMvL28u78NqtS65sFPDMOYutILBIP39/Vy8eJErV64wODhIKBSiuLiYhx56iI0bNxIIBBbffaBqqFYbqvUDpngMAyOdhGQEIxHFyGSuvzmbIRuLkI3OgqKi2pyolrw7djXtzMwMg4ODZLNZKioqbi2Pw4gwNTzIUN8UcWuAeoeBEp9mZASuN0ESzPR10t8XJ2m7i5pSGA5EjgAAIABJREFULz7n0mw+JhIJxsbGSKVSuN1uCgoKcl2SEAuWNDmEEEIIsWTpus5dd92F0+lkdnaWw4cP43Q6aW1tJRAIoKoqX/ziF0kmk3N5H4ODg4yMjMwdebl8+TIdHR309vaSzWbn8j5sNhv33nsvZWVl+P1+CgoK8Hg85OfnU1hYSGFhIZqmYTKZPjD348a/L0SGYcxlm2SzWdLpNPF4nKmpKbq7u7l8+TKHDx/m17/+Nbqus3fvXr761a+yZcsWSktLl2QYoppnJ6/pXizLNqHolrkVtUY6RWp8gGTPOxgK6MWVmAvKUGxOVJMFNNMd1fCYmpqip6cHwzAoLi6+tdwII0J4YpqZSRt62Wf45v/1B+xtKaPcrABZyA7x1jM/5u9+9hZPj65lRY0Pv2tprlSNRqP09fWRSqVwOBy4XK5clyTEgiVNDiGEEEIsaSaTieXLl/Otb32Lp59+mra2NoLBIH/4h3+I1+vFZDKh6zr5+fk4HA78fj+pVIpMJkM6nSaRSBCNRufW3E5MTDA1NUUwGJzb9HLy5Em6urrQNA1VVTGZTNjtdmpqaqivrycQCMxtQygsLJybOCkqKlqQjY54PE44HCYYDDIwMMDVq1c5ceIEb7zxBslkksLCQmpqavjud7/LunXrqKmpobCwELvdviQbHDcouo5mcl5vWCjXv2+KoqLqFoxMisTVNqLHLqKYTOjV2zGXr8VcthzdX4FiNt8Ra2kHBwc5c+YMmUyGwsLC921P+liMBInZWaKxJEp1CW6XBZvpN82ibIbsTC+9l3vpDWUp3LmG2kIbbn1pNpOSySRTU1Ok02l8Pt+tTcgIscRJk0MIIYQQS5qiKNhsNqqrq/nsZz/Lyy+/THd3N0899RRf+MIXqKiowGKxoGkamqZ9YNbGjaMasVhsLs8jFosxOztLJBJhcnKS0dFRpqenSSaTc5kguq4Tj8d55513mJqaYmZm5j3HWhwOB4qiUFlZSV1dHQDFxcXk5eWhadrc2tt3Nw6cTicWi+V9zZFkMsnMzMxH3heGYczdhmQyiWEYc8d0otEoiURibvVuMpkkkUgwOzuL0+lE13XWr19PWVkZy5Yto7q6mvLyckpKSrDZbAsyWHTeKQoo721UKJoJk7uQvIYN6IV+0pNryEyPYWQ0El1tJDr2o9nzMZWswuRfhslXisldCCZ9yW3wCYfD9PX1MTY2xsaNGyktLf3k2TWGAdEgMxMRxkMqysp8bBYNswpgYGTjTF85zZnuMP1KORs31FLisGBZWnfpnBuTHMlkEpvNhtMpeTBCfJg74LeREEIIIe50iqJgsVhYt24dqVSKV199lRMnTuD1etm+fTvLli37yPwIRVHQdR1d1z90TDydTjM1NTW36SUYDDI7O8vs7CwjIyNcu3YNVVWJRCLMzs6STqfp7e0lnU4zPj7OxMQEqVRq7jiLpmlz+R/vbiDcCEf9p02ORCLB9PT0R94PhmEQiUSIRCJzTY5kMjm3dSaZTHLu3DmSySQWi2Vuy0x1dTXLly+nurqaioqKuSwSAagqqt2F2e5CL60lm4iRnhwlPd5HevgdUiNTpCb6ySQ1UhODaDYbJm8xlmV3obmLltR0x9TUFCMjI6TTaXbs2EFhYeGtTSoZWbJZA0wmrB4HeSb1+sVLJkY61Mfbb7RxcdKCVrWOPauL8eSZlmToKFzPOjl9+jTRaBSr1Srbn4T4CNLkEEIIIcQd40ZGh91uZ3Z2ln/8x3+cO+MeCARu6aiFyWS6qRHy0dFRgsEg4XCYsbExotEo4+PjDA8PEw6HOXToECMjIxiGQeY34ZbvlslkMAzjfW+/kfPxu6YDPujjduzYQVNTE7qu09rait1ux+fzEQgEKCgomJssER9NUTW0PAdawIElUIuxahuZSIjUSA+pvkskeo4SP3cKMhk8j/8Q1eFFMV+/X410CjBA0VAW6X19I8vGbrfT0tJCfn7+J/9iigJ2L74iJ+UlOi6bGbOiomQzpCOjTF89yv4D55i072LVzh3cV+/AsUQ7HIZhMDY2xpEjR7BarTgcDqxWa67LEmLBkiaHEEIIIe4oJpOJ+vp6vvWtb/E//sf/4OjRo8zMzLwno+N28vl8eDwestksdXV1ZLPZufyPbDbLt7/97bmgz5HrayTeo7+/n1gs9r635+XlUVBQ8IFHWd7NbDbjdrvf80qwzWbDYrHMTayoqoqmaei6PpczIj4+RdPQHC60qiYsZbXY1m4nHRwjNXINPdCMqv92eijRfwUjnURz+TAXLc71oN3d3QwODmKxWKiqqvrANc8fi+aloLaKwuphJi9fZSi4gpBrlujFo+z/xS/4lb6VLfc9wD/bVY9PhcXZGvrdbuTj6LrO/fffP3e0TQjxwaTJIYQQQog7yo2MjqqqKh577DEOHDgwl9Hx+OOPU15efltXn95sEyWdTlNZWfm+tzc1NZFOp9/39hsZHjc2uXwYTdOwWCzo+tLcQrGwKNePo5g1FLP1+npZZwEmTwDN4X7PxpVsaIpMaBrSSXhXk8PIZjCScRRzHsoCbzYdP36ct99+m5KSEgKBwC02ORTARUnzZjZNxth74FV+8Z+O8xI6TosVW9E2Hnl8C9tbV7CyyLakL2pCoRAzMzNomsayZcvw+Xy5LkmIBW0pPx8IIYQQQnygd2d0JBIJDh8+zIULF/j1r389l9HxiQMT54nJZPrAcf9bOgIgcktRUc1WVPP7jxpoTg+oGqr1t1knRiZDZnqI+OUjaO4AWn4xmtOHanOimPQFs5Y2k8kQCoXo7OwknU7T2NiIx+OZh6koM87ylazaDF9JpDl4fpzJsI7ZW0PTtu1sWLGMqgI7LsvCbv7cqunpaSYmJlBVlUAgIM8BQvwO0uQQQgghxB1JURRMJhObN2+msLCQffv2sX//frLZLDabjfLycsmhEJ8aS/WK973NyKRIjXQy++r/g+ZrRi9fhaWiEb24EtXhQTXbUHQzimaaW2mbC4lEgu7ubiKRCE1NTdx///3z9thRrIX4G3fyUONOHpqXr7j4jI+PMzg4iKqqlJWVyWYVIX4HaXIIIYQQ4o6maRq1tbV86UtfwuFw8NZbbzE5Ock3v/lNfD6fNDpEzqi6BXP5SlyfeYL0SB+poQvMXj4ImQim4rWYq9ZhqVp5velhdeQssDQWi3HhwgVmZ2epqamhoqJCclzm0cDAAF1dXaiqitfrlc0qQvwO0uQQQgghxB1NURTMZjN+v5/77rsPVVW5fPkyTz31FF/84hcpKyu7rRkdQnwoRUG1u8lbvoFMyTKytStITw+SnugjG0uRHukmPXQBRU2gFdRjKq5D91dh8hSiWPJQbtN0x43jKTfyXWKxGGfPniUYDOLxeKiqqvqdW37EzUmn03R3dzM8PMyqVavw+/3yfCTE7yBNDiGEEEIIfjvRkUqlgOshigcPHmTr1q0sW7ZMLixETigmHc3lRXN5obSWbDJOemqUzOQg6Yl+MlO9pIP9ZMf6yIRCZGcnoXYtemEA9NuTK5PJZJienub06dOkUinS6TQnTpwgLy+PqqoqCgsLpckxDwzDIBgMMjw8TDKZZM2aNbhcLpkuE+J3kCaHEEIIIcS7NDQ0YLVayWQyHDhwgGw2i9VqJRAIYDab5eJN5JRqtmIuroTi65t3sqkEmZkJktcukuw5Q3qkC80XwOQtRtHNkM1ipJNkExFUcx6K2XrL+R3ZbJZoNMpf/MVf0NnZSWlpKe3t7WzevBm/38/s7CypVAqbzXbbVzIvZYZhMDo6SigUwul0snz5cmm2CnET5FlHCCGEEOKfCAQCPProoyiKQnt7O/39/fz+7/8+9fX1cpEhFhTVZEbxFqG5POQ1bABAMVtR9Os/p5lIkETvRWJn9pO38m6sjZvfs8Hlk9A0jfz8fEwmE0NDQ4yNjZHJZGhvb2dycpK2tjZ27NjBnj17KCsru+XbeKfKZrOMj48TiURwOBwsX74cq/X9m3mEEO8liUBCCCGEEP+EyWSioKCA3bt3s3HjRkZHR/nBD37AmTNnmJ2dzXV5QvyWoqBoJlSLDdXhRnW4fzOtcX3iSDGZ0fJ9aIXVqM6CueYHQHp6jNRoP5lIECObvem/UtM0vF4vFouFdDpNPB4HIB6P09PTw8WLF3G5XOi6Pr+39Q5jGAbXrl1jamoKq9VKSUmJ3KdC3ARpcgghhBBCfACTyURNTQ3btm2jubmZ4eFhfv7zn3P69GlpdIhFQzFb0H0l5DVswlRYfn3d7G+khruJvv2/iLY/S+zc/yJx9TzpyWGyiRgYxod+TVVV59Ys+/3+97yvpKSEDRs20NTUhMPhuG23606QyWQ4deoU/f390uQQ4mOQ4ypCCCGEEB+hsbERi8WCruv8t//231BVFYvFQktLi2R0iAVP0Uwo9nws1fnve18mOEai6wSZ6S40WwWm4nr0sjrMJZVoniIUPQ/FZEHRdRSTDrz3Z33lypWcPXuWsbExAHw+Hw888AB/9Ed/RF1dnayRvQWGYZBIJDh27Bijo6Ns2rTpfQ0lIcQHkyaHEEIIIcTvUFFRwWOPPQbAL3/5S4aHh/nud79LQ0MDZvPt2WAhxO1mb7kPa0MrmeAkqdE+Er1vE2n/JeFwP5q3Dr2kGVOgEXPZMszFVe+ZAgHwer24XK65//7mN7/J448/Tm1trTQ4blEymWRiYoJMJsPatWvZtm1brksSYtGQJocQQgghxO9wI6PjoYceIplM8uabb/KDH/yAf/Wv/hWNjY3vudATYrFQLDZMuhXN5kHL96MXV5ENricTHCYdjpKZGSd+/mXi56OY8svQK9dhqVyFXlQBXJ/c8Hg8FBcX8/Wvf51HHnmE2tpaOVIxD2KxGP39/SQSCWpqaigvL891SUIsGtLkEEIIIYS4CbquU11dzQMPPADA/v37+dnPfsYjjzxCS0uLNDrE4qSqKBYrJosVk8ePkanDiEdITY2SHukmPdZJZqaPTCiIMjmCyVcx1+Rwu92sWtGE02rmS1/6EtXV1djtt7a5RVwXj8fp7+8nmUzi9XopLi7OdUlCLBrS5BBCCCGE+BgaGxsxm81zGR0mkwmz2UxLSwsWi0UyOsSiNpfhYc/HUl6HkbqXbHiG5Egv2UQMRbdgGAbJZJJQKERdeQnbmqqpqwqg58l60/kSjUbp7e2da3JIHocQN0+aHEIIIYQQH1NlZSWf//znURSFX/ziF4yMjPDv/t2/o6GhQUb1xZKimHS0/AKsDjdggKqRTCa5evUq//W//leS3W/y5W31NJYU4Kxfhynfl+uSl4RgMMiZM2eIRCI4nU7cbneuSxJi0ZBEICGEEEKIj+ndGR2PPvooyWSS73//+5w5c4ZQKJTr8oSYP4py/UiLbkbRLSiaiXg8zqVLlxgcHARPBd7WR7CU1aJabQAYqQTJ0T4iZ18j+s4xUiN9GKkExkespRW/lclkGBsbo729nYqKCiorK7HZbLkuS4hFQyY5hBBCCCE+gXdndBiGwSuvvMJPf/pTPvvZz7J27Vry89+/slOIpSASifDmm28yNTXF8g0bqFh/L+aCMpTfbBoyslmysQip0V6ywRGSZhXN48dUUIvmKUPLL0Czy+Pjw4RCIYaHhxkdHWXDhg2UlJRgMsllmxA3Sx4tQgghhBC3oKGhAZPJhMlk4s///M+xWCyS0SGWrEwmw/T0NEePHiUWi1FcWkp5ZRWa+bc/64qqotrsaE4vmdGLxK+exUgl0QOt6FXrsNSskibHR5iYmGBoaAhVVampqcHnkyNAQnwc0uQQQgghhLhF1dXVfOELX0BVVf7u7/6OkZER/u2//beS0SGWnGAwSGdnJ5cuXWLlypWsXbsWu93+nmaeopvRC8rQ3UVkV20nE5okNdRDcqiLbDhIZnIEKhsBaQB+kHc3Oerq6iR0VIiPSZocQgghhBC3SNM0CgoKePjhh7Hb7Rw/fpzvf//7/Mmf/An19fU4nc5clyjEvJicnKSzs5NEIkFzczPLly//gGklBUXVwKyh6WZUiw3N7kUvWwaGgWp1IA2ODzc0NER3dzeKolBaWirrqYX4mCR4VAghhBBiHui6TlVVFffffz/btm0D4JlnnuGtt94iGAzmuDoh5sfw8DBnzpwhnU5TU1NDIBD46E9QFBTdgubyYi6uxlxSg8kjkwkfJhaL0dXVxcDAAE1NTZSUlJCXl5frsoRYVGSSQwghhBBiHpWWlvLAAw/g8Xj43ve+h81mQ9d1WlpasFqtktEhFq1kMklvby+nT5/G4XAQCAQkL2IeGYbB5OQk3d3dhMNhHnjgAfx+vxx5E+JjkkkOIYQQQoh55vV62b59Oz/60Y84deoUTz75JF1dXWQymVyXJsQnNjIywpUrV5iYmODee++lpqYGi8WS67KWDMMwGB4eJhgM4nK5aG5ulikOIT4BaXIIIYQQQswzVVVxOBysXbuWf/7P/zk2m43vf//7nD9/nnA4nOvyhPhE+vr6GBwcxGazce+991JcXCyTSfPIMAz6+vqYmprCZrNJE0mIT0iaHEIIIYQQt4GmaXg8Hu655x62bduGqqr85Cc/4Y033mB0dDTX5QnxsaTTaY4fP86ZM2fIy8tjzZo1uN3uXJe1pGSzWdra2rh69ao0OYS4BZLJIYQQQghxG/n9fvbs2YPD4eCJJ54gkUiQSqXYvn07brdbXgkXC14mkyEUCnHs2DG6urpobW2loqICm82W69KWjGw2SywW48iRI4yPj7Np0yZKS0tzXZYQi5I0OYQQQgghbjOfz8fdd99Nfn4+//E//kcGBgbIZDI8/PDDEiooFrxkMjkXhtnU1MTnPvc5nE4nqipD4fMlkUgwMDBAMplkw4YN7NmzJ9clCbFoyTOTEEIIIcRtpigKDoeDNWvW8K1vfYuioiL+6q/+ipdeeomxsbFclyfER4rFYrS3tzMxMUFJSQlr166V5tw8C4fDdHR0EI/HKS4uprKyMtclCbFoySSHEEIIIcSnQNM03G4399xzD+l0mpdeeolnnnmGdDrN1q1bZTRdLEiZTIbJyUleffVVotEoVVVVLFu2DE3Tcl3akhIKhbhw4QLRaBSfz0dJSUmuSxJi0ZJJDiGEEEKIT5Hf72f37t38/u//PteuXWPfvn0cO3aMqakpDMPIdXlCvEcsFqO/v5+jR49it9upr6/H7/fLUZV5lM1mmZ6e5tSpUyiKQlFREQUFBbkuS4hFS56dhBBCCCE+ZQUFBdxzzz38+Mc/pru7m5/85CccPnyYbDab69KEeI+JiQk6OjpIpVKsWbOGxsbGXJe05CQSCa5du8bLL79MZWUldXV15Ofn57osIRYtaXIIIYQQQnzKbmR0rF69mu985zv4/X7+6q/+ihdffFEyOsSCMjAwwLFjx0gmkzQ0NLBs2bJcl7TkzMzMMDo6Sjabpb6+npKSEtm6JMQtkEwOIYQQQogcuJHRcffdd5NMJtm/fz9//dd/TSqVkowOsSAEg0EuX77M+fPnqauro76+nsLCwlyXteRMTU0xMjKCqqpUV1fLURUhbpFMcgghhBBC5JDf72fPnj18/vOfp7+/n/3793Ps2DEmJydzXZq4ww0ODnLx4kVGRka4++67qa2txWq15rqsJWdkZITu7m4URaG8vByPx5PrkoRY1GSSQwghhBAixwoKCti5cycFBQX86Z/+KWNjY5hMJh555BEZWxc509XVxdWrV3E4HOzcuZPi4uJcl7QkdXZ28tZbb0mTQ4h5IpMcQgghhBA5diOjY9WqVfzrf/2vKSgo4Mknn+T5559nYmIi1+WJO0w2myUcDnPw4EEuXLgwd1TF6XTmurQlxTAMBgcHuXLlCtFolD179uD3+zGZ5HVoIW6FPIKEEEIIIRYATdPIz89nx44dJBIJDhw4wNNPP006nWbLli2S0SE+NalUit7eXrq6ulBVlQ0bNlBYWIjZbM51aUtOb28vAwMD5OXlsXPnTjwej0xvCXGLZJJDCCGEEGIBuZHR8bnPfY7R0VEOHz7MqVOnJKNDfGoSiQRnzpxhcnKSQCDA5s2bsdlsqKpcOsy3jo4OhoeHyc/PZ+PGjTItI8Q8kGcqIYQQQogFprCwkPvvv5+/+Zu/IRKJ8Ktf/YojR47kuixxh4hEIrz++usMDw9TXFxMS0uLTHHcBoZhcPLkSbq7u7Hb7dTX10uwqxDzQJocQgghhBALkNVqpaKigj/8wz+koqKC/fv389xzz8lEh7itpqenOX/+PG1tbQQCATZs2IDP55MjFPMskUjQ39/PlStXKCgoYPPmzTidTjRNy3VpQix6kskhhBBCCLEAqaqKzWZj5cqVxONxjhw5wv79+9E0jfXr10tGh7gtxsfHOXPmDCMjI2zcuJHVq1fLFMdtEI1G6ezsZGpqivLyclpaWiRwVIh5IpMcQgghhBALmN1up7W1ld27d5PJZDh69Cjt7e2ydUXMu1QqxbVr12hra8NkMrFy5Urq6upyXdaSFA6HOXv2LOFwmPLychobG3NdkhBLhjQ5hBBCCCEWOJvNxpo1a3jiiScYHx9n3759HD16FMMwcl2aWEJCoRDnzp3j1VdfpaysjObmZpkYuk1mZmZ44403CAaDFBQUEAgEcl2SEEuGNDmEEEIIIRYBXdfx+/1861vfIhAI8I//+I/85//8n+nt7SWTyeS6PLEEXLlyhc7OTpxOJ48++ihVVVW5LmlJikQi9Pb20tbWxsqVK1mxYgU2my3XZQmxZMjBLyGEEEKIRUBVVSwWCytWrCAajZJOpzly5Ag2m427776b+vp6CS0Un4hhGGQyGY4cOUJbWxt5eXls2bKFoqKiXJe2JE1MTNDd3c309DSrV6+mtrZWHrtCzCNpcgghhBBCLCI2m43W1lasVitDQ0McO3ZsrgFSXV2NoiiyCUN8LNlslvHxcU6ePEl/fz8bNmygrq4Ol8uV69KWpMHBQS5fvgwgR4KEuA3kuIoQQgghxCJjs9lYu3Yt/+E//Ad0Xefll1/mueeeIxqNks1mc12eWGQSiQRnzpxhfHyc5uZmvv71r+P1elFVuVS4HXp7ezl//jyaplFRUYHX6811SUIsKfLMJYQQQgixCOm6TlFREd/+9rdpbm7mxIkT/Pmf/zkDAwOS0SFuWjabZWpqiueff56enh5KSkrYvHkzFosl16UtSTMzM1y6dInh4WEefPBBAoGA3NdCzDM5riKEEEIIsQipqorVamXFihVEIhE0TaOtrQ2Hw8E999xDXV2dnPMXv1MoFKKzs5P29nZ8Ph8tLS2UlpbKz85tcu3aNfr7+9F1nZ07d+Lz+WRiRoh5Jk0OIYQQQohF7EZGh8ViYXR0lGPHjqFpGrquU11djaqqktEhPtTY2NhcFsfevXvnfpbE7XHp0iUGBgZwOp2sX78eh8OR65KEWHKkbSiEEEIIscjZ7XZaWlr47ne/i8lk4pVXXuHFF18kEolIRof4UIZh0NfXx8GDB0kmk6xevZpVq1bluqwlyzAMzp07R39/PzabjYqKCsxmc67LEmLJkSaHEEIIIcQSYDabKSkp4V/+y39JQ0MDbW1t/OVf/iWDg4OS0SE+0ODgIKdPn6ajo4Pdu3ezbt06PB5PrstakpLJJOPj45w+fRpFUVi7di2FhYXS5BDiNpDjKkIIIYQQS8CNjI6mpibC4TC6rnP8+HHJ6BAf6ty5c5w8eZJUKsWOHTuoqqpC1/Vcl7UkRSIRzpw5w/DwMCUlJaxfv14aHELcJtLkEEIIIYRYQmw2Gxs2bEDXdcbGxt6T0VFTU4OiKJLRcYfLZrOEQiFOnjzJpUuXKCsrY926dRQUFOS6tCVrZmaGw4cPMzMzQ0tLixwLEuI2kuMqQgghhBBLjN1uZ926dfybf/Nv0DSNV155hZdeeolQKCRHVwSpVIqOjg7a29sJhUJs3ryZ5cuX43Q6c13akmQYBpOTkxw8eJBQKERZWRm1tbW5LkuIJUuaHEIIIYQQS5DZbKasrIzvfOc71NXVcezYMZ588klGRkak0XGHi8Vi/OpXv+Lq1atUV1fz8MMPY7fbc13WkjU2NsaFCxe4dOkSO3fu5K677iIvLy/XZQmxZEmTQwghhBBiCXp3RseDDz7Ixo0b6enpYf/+/Vy5ckUaHXeocDhMZ2cnb7zxBqqqsmbNGtauXStrY2+j0dFRrly5QjQapbm5merqasnHEeI2kkwOIYQQQoglzGaz0draitfr5dVXX+Xtt99G13VMJhO1tbWoqrzmdSe5kdNy+fJl1q5dy8aNGykqKsp1WUtWOp2mq6uLs2fP4na7qa+vl/tbiNtMfqsJIYQQQixxFouFhoYGvva1r1FaWsrJkyd5+eWXmZ2dlYmOO0g2m6W3t5df/epXJBIJWltb2bBhQ67LWtLC4TDt7e0cPXqUpqYmGhsbJeBViNtMmhxCCCGEEHcAVVVxuVx8+ctfZvXq1XR2dvLUU08xOjoqjY47xODgIKdPn+bcuXM0NzfT0tJCIBDIdVlLWnd3N8PDw3g8Hnbv3o3X6811SUIsedLkEEIIIYS4AyiKgslkorS0lG3btrFq1aq5V/Ulo+POcP78ed58801SqRS7du2irq5Osjhus7Nnz9LT00N+fj47duwgPz8/1yUJseRJJocQQgghxB1E0zQaGhrQNI1wOMz58+fJZDLEYjGampqwWCwoipLrMsU8ymazzM7O0t7ezqVLl6isrGTHjh2UlpbmurQl68Zj6tSpU0xNTVFXV0dzc7NssRHiUyCTHEIIIYQQdxhN01i+fDlf/vKXKS0t5ZVXXuGZZ56hv7+fRCKBYRi5LlHMo3Q6zcWLFzl16hThcJjt27fT3NyM2+3OdWlLViKRoK+vj3PnzmG1Wtm6dSs+nw9d13NdmhBLnjQ5hBBCCCHuQKqqkp+fz1e+8hXuueceRkdH+cEPfkBnZyfxeDzgkNzJAAAgAElEQVTX5Yl5FI/H2b9/P93d3XPNLTk2cXtFIhFOnTpFMBiksrKStWvXyoSUEJ8SaXIIIYQQQtyBFEVB13VKS0vZtWsXW7duJRQK8bd/+7ecOnWKSCSS6xLFPJiZmeH06dO8/vrruFwutm7dSmNjI2azOdelLVnZbJbJyUkOHTrE1NQUJSUl1NXV5bosIe4YkskhhBBCCHEHu5HRoaoq8Xico0ePYrPZUFWVdevWSUbHIpbNZhkYGOCVV17h8uXL3HfffWzZsgWXy5Xr0pa0aDRKf38/J06cwOv1smzZMgoLC3NdlhB3DGlyCCGEEELc4TRNo66uDp/PRzwe5+TJkwSDQQoKCqisrJRGxyKVSCTo6upi3759pFIpVq1axYoVK3Jd1pI3MTFBR0cH3d3dfOMb32DdunWSxSHEp0iOqwghhBBCCDRNw+Px8LWvfY177rmHoaEhfvjDH9Ld3U0ikch1eeIT6O3t5fTp0wwMDHDfffexYcMGfD5frsta8q5evcqJEyfIZrM0NjZSXl6e65KEuKNIk0MIIYQQQgCg6zrFxcXs2rWLbdu2EQ6H+Zu/+RtOnTpFNBrNdXniJhmGQSwWo729nba2NgAeeOABGhoaMJlkkPt2isfjdHR0cO7cOVauXElzc7McVRHiUybPckIIIYQQYo6madTX16OqKolEgjfeeIPXXnsNRVEko2ORyGaz9Pb28uabbzI4OMj69etpbW2Vi+1PwcDAAJcuXWJ6eprHHnuMyspKbDZbrssS4o4iTQ4hhBBCCPEeJpOJuro6vF4v0WiU9vZ2gsEgPp+PqqoqaXQsYIZhEI1GeeONNzh79ixut5tvfOMblJWVSS7EbWYYBqdOneLKlSu43W527dqF1+vNdVlC3HHkuIoQQgghhHgfTdPwer38wR/8ATt27GBgYIAf/ehH9PT0EI/Hc12e+BCxWIzu7m5+8pOfMDo6yvr167n33ntxOBy5Lm1Jy2azJBIJnn32WY4dO4bD4aC1tZX8/PxclybEHUcmOYQQQgghxAfSdZ2ioiJ2796N2WzmyJEjPP300zzyyCOsXbtWxvAXoLGxMV5//XUGBgZYvXo127Ztw+v1omnaTX2+kQyTmB6g8+JbHD7yNlf6ZsnYiym/60H2bKuhSu2j/60j/PcDMzTsfYitrY2sLrLc5lu18MViMTo6OhgYGKCyspK9e/fi8XgkA0WIHJBHnRBCCCGE+FA3MjoURSGZTPL6669z6NAhDMNg3bp1WK1WObqyQITDYTo6Ojhw4AB5eXncddddrF+//qYbHCQnGbt8lvNHj3BsJMLgwDSx2RBGcJrB5zQ8+fcQMl2m/9cv8g+vF/P4ujAbjNt7mxaLUCjE0aNHmZqaYsWKFezatQtd1+WxIUQOSJNDCCGEEEJ8JJPJRH19PW63m2g0ypkzZ4jFYni9XmpqaiSjYwEwDIP+/n7a2to4fPgwe/bsYdOmTdTU1NzMZwMZ4qPneevlv+eppw7Re/d3+N++/C94uElDv3aE//ePf8L5oxl6mEK7HKHk3s+wdcNyGmWKg0wmw/j4OIcOHSIajVJdXU1TU5M8JoTIEcnkEEIIIYQQv5OmaRQWFvKNb3yDz3/+88RiMf7Lf/kvXLt2jUQikevy7miGYZBKpWhvb+fo0aNYLBYeeeQRGhsbb/IrZCA7yPlfPceBA52cdT3Cl7/0MDvXVFBS4McRqGfHTo2ug3/NU395mOcHVvPY721kVbkHu1zHMz4+zrlz5zh69CirV69m06ZNuN1uaXIIkSPS5BBCCCGEEDdF13X8fj9bt25l+/btuFwunn76aU6fPk00Gs11eXesTCbD5cuXOX78OOPj4+zZs4d169ZRUFBwE59tYKRixLtP8PqbXZxPFLD8ofu5p76YcpcZk2ZC1S3Y7ArJcAp85ZTvuY97m3yUOHW5mAD6+vo4ceIE4XCY5uZmamtrb/6IkBBi3slxFSGEEEIIcdM0TaOsrIzW1lYMw2Dfvn0cOXIEwzBoaWmRjI5PWSaTIRgM8tJLL9HW1obVauXRRx+lvLwci+VmjpIYZFIRpq+c5p3eCEFbHXu2rKDKbcGmKUCGbDpOZDpK2lZFVf0mdn9mPfUFVhwm+T5Ho1EuXrzIqVOnKC0tZdWqVQQCgVyX9RtZMCKMXjhH52iCIVcDO1cV4bGYkBaMWMqkySGEEEIIIT62srIydu3aRSaT4eWXXyYUCuF2u1m2bBlms1kaHZ+SaDRKV1cXzzzzDIODgzz88MPs3LkTp9N5k18hQyYVYqS3i4lZE3mVpTQG3Jg1FQUw0jGSoTH6uiZJ+O6jadM2PtNahsukyhQHMDIywvnz5+nq6mLPnj2sWLECn8+X67J+IwPpQS68+N955niItlXfpq7Wi0OaHGKJk+cmIYQQQgjxiTgcDh544AEefPBBQqEQP/7xj+nr65OMjk/R8PAwL774IjMzMzzwwAN87Wtfo6Cg4GMcl0iRSc8y0TdOLGzDZi3A79HRVAUwyARHmLx8hsNvjZEsKKFieRkVVhVNelgAdHZ20t/fj8fj4eGHH6aoqCjXJf1WJgPBQfouh4kGHaxpDFCoa5hzXZcQt5k0OYQQQgghxCeiqip2u51NmzaxY8cO8vLy+Pf//t9z4MABxsbGcl3ekjcyMkJbWxsvvPACJSUlbNmyhVWrVqFp2seYpDHAyJJJZzCyKoqiod3oYKTGGLjYzqFnf83JGR3sLrx2K7o0OMhms0QiEfbv38+lS5eoq6ujpaUFl8uV69J+w8DIJImP9NA9k2ba7KGm2I3VpMkFoFjy5GdcCCGEEELckpKSEjZu3MiWLVuYmZlh3759HDp0iMnJSbLZbK7LW5IymQzvvPMOhw4doru7m7vuuutjhI2+m4aq2cj3+zDnQSodIxJNYKRmGL5wlo53rtAd0bAaVpwmDVNigvFr5zl4aoDB6TiZ23LrFr5EIsHVq1c5e/YsmUyGtWvXUlZWdpM5KJ8Gg2wmQXikn6GImYStmJpiB7oml39i6ZNMDiGEEEIIccvKysrYu3cvmqbx5JNP8uyzz5Kfn8+WLVuw2+2ybWIeGYbB9PQ0x44d48SJExQVFbF3714aGhowmT7u/97rmMxeypsbKSq+Qlf4Gh1vX6QmnKL/6HkGwxqebbvYfuJv6Y1MMtp9lnPBIP/Qs4avuWwUeKx3XL6DYRiEQiGOHTvG5OQkVVVVbNq0CYvFgqrmqolgYBhZ0ok4yXiUcCTE1MQQwxe7GZzJkDAraNFRRiY9ZFw27FYzZjlzdFMMw8h1CeJjkiaHEEIIIYSYF06nkwcffBDDMPiHf/gHvve97/HDH/6QNWvW4Ha7c13ekpFOp/n1r3/N0aNH0TSNr3/967dwH2uYLC6K1tzLrparjO97hv/07Wf5/1b9Hl/8vV383r2VLDMPcPydl/m/3/h7nu1tZfJzX+Crj62mudh+R+Y7ZDIZxsfHefHFFxkZGWHbtm20trbmuJGXJpMOMXLhHFfOvcbLrx/lb1+9QCYR/v/Zu9PwqusD/f/vs5+cnJCNsIQEgmRhRyBsYU3YwhJQVJZaRa3amdaltp2rV2fsTNVO63TqdHNGZepaUdFKWAph38GEPYTdEEhCApKEkD1n/z9wyL/+XOoCOVnu1zMwJncMOZe5+XzvD7UNAfzGfTz5YQ7DFyzhthmTSB/al8QYexDztg9+vx+3243P51NR246o5BARERGRG8JoNOJwOJg4cSJer5f169fzy1/+kocffphJkybRrVu3YEds95qamigtLeW9997j4sWLDBkyhKysLKKjo7/+KQKTHXPX4aR/+wckTF5MeYMBIvuQeEs8Cd3DCDdGk/YPTxOR1UiDJZpuffrRv2coYVYTnfEswNWrVzl58iQFBQUMGzaMsWPHEhEREbwbhQKN1JYUcHJbDi+tuUpY327Eps7msf6DOPKnN8lPGk+vW4eRleDi7PF1rP39SQrGZHD7vTMYF2vHrhMdn1JdXU1tbS1NTU3k5+czYsQIIiMjgx1LviSVHCIiIiJyQ/Xs2ZNJkyZhNBp5+eWX2bBhA16vl+nTpxMVFaXrZb8mv9/PRx99xJYtWzh06BBxcXFMmTKFAQMGYLd/g7+VN5gw2GOIHxJD/JDPeoMQYodPJXb41/8QHcnFixfJy8ujsrKSJUuWMGzYMCwWS5DSeKgvK+Dozq2sePcQH5qHk540ivFjI+nuLqBq+V+50m8kI6bPYdGtDRyxVPKnPx8gt8GIdfitDOraC2uIWUON/48PP/yQkpISampq2LhxI7GxsYSHhwfxcST5KvRVEhEREZEbLi4ujpkzZ/Lwww9z4cIFVq1aRV5eHnV1dfh8nXWu8ptpbGzkzJkzvPfee/j9ftLS0khPT8fhcOiHr1bicrk4e/Ys+/btIywsjCFDhtC7d+8gpfGDp4ri3E1sXLubtwt7MfG+hdx1x0TS+oYTWldBcU0Uji496BOfQPc+o8lcOJ+JSUaMVWfYeayMax4f3iClb4sCgQBut5vc3FyOHz/eMqRcWFhIU1NTsOPJl6RXQxERERG5KcLDw5k7dy4PP/wwHo+Hp556iiNHjlBXVxfsaO1SUVERu3bt4sCBA6SlpTFt2jSSkpKCHatTKSkp4dChQxQXF3P77bczbNiw4O3N+Dz4Lx9kb84+9px20XPhHcwf24fErjY89de4UlLMEW9fYuL6MDAuHKPJhDEihu7RIYSbPVRfa6DJH+i0N+R8Fo/HQ3l5OZs3b+bIkSMtpdbhw4cpKSkJdjz5klRyiIiIiMhNYTQaCQkJYeLEidxxxx0kJyfz9NNPs3XrVioqKoIdr90IBAJUVlayfv161q9fT0JCAllZWQwePPhr3KYi38QHH3zA4cOHCQkJITMzk549ewbpFE2AgN9NXVkhpyr9VDsTmJiaRGyYHbvRTUNtBeVFxTSFxBDeNYKoMAsEAuBx4Wrw0dwUwO8PoHtDPqmuro5t27ZRWlqKx+MhEAjg9XrZuXMnhw8fxuPxBDuifAkqOURERETkprq+0TF79myMRiPr169n69atVFVV6XrGvyMQCODxeMjNzWX37t1UV1eTmZnJqFGjiImJCXa8TsPr9fLRRx/xwQcfUFVVxYgRIxg+fDjh4eFByxQI+HDX11DttuJ3dCOxVyQOixFjoIH6inJKTpZgvqU3PXtFEhNiIOD34Ll6mfI6Hw2WLvTqHk6oydjprgD+PC6Xi4sXL7JmzRrKy8s/8c+OHz/OkSNHKCsr02tWO6CSQ0RERERuur/d6CguLmbNmjXk5uZSX1+vjY4v4PF4uHLlCmvXruX8+fP079+fu+66i9jY2CCOXXY+jY2NHDp0iCNHjuB0OsnMzCQ2NharNZiX6BowGk2YDIZPFhWea9RcLqfo5FW6DLmFuLgook1evI1XKT91gjO1Jnzd+jB6cC+iLCb0p+hj1dXVFBQUsG3btk+dNKuoqODYsWMcPnwYr9eroqONU8khIiIiIq0iIiKCefPm8fDDD9PU1MQzzzxDfn4+9fX1wY7WZlVXV7Njxw727NlDdHQ08+fPZ8SIEYSGhgY7Wqdy7do1Vq5cSVlZGX379mXixIlBf1TIYDBhdYQSbmnAXV/G0QtVNLl9+K9VUFV+jZOV0XTvFk1UqA2ru4q6iwdY9d5GCj6KpkfSGOaN7kFoJ70G+LNcuHCB3bt3f+4jKadOnWLDhg00Njbi9/tbOZ18FSo5RERERKRVGI1GbDYbkyZN4q677iIpKYknn3xSGx2fo7q6mtzcXH7729/i8/mYPHky6enpWCwWXcPbiqqrqzlx4gS7d++mX79+jB8/nl69egX5a2DAYLIQkjCMkQO6kdhUSO7/vMGKHafJP3eRy7Uuyo29SInvgqXmQw5veI83/+d1lhf05JaZmdy1cCxDwkxY9dMg8PHX+ODBg2zYsOFzS47KysqW0xy1tbWtnFC+CtPPf/7znwc7hIiIiIh0Hk6nk8jISJxOJxcvXuTixYsEAgF69OiBw+EIdrw2wefzcfDgQVauXElOTg7p6enMmzePESNGBP0EQWfz4Ycfsm7dOjZv3szs2bPJzMwkISGhDRRNRoy2EOxGP3ajj8aqCq6WFHLu5AEOHjtD/oWrWENdfFRUQklJFQ1GB6H9p5GZNYFJI3oTG6JTHNcdO3aMnJwctm/f/rmPolx/TMVut5OUlER0dHQb+DMgn0WvkCIiIiLS6uLi4pg1axbJyck888wzbNy4EafTyZQpUwgJCcFk6txziJWVlezcuZMdO3bQo0cPZs2axdChQ7HZbMGO1qm4XC5OnTrFjh07CAsLY/jw4SQmJgY71scMRrD2JHnybXRN7E/yvl389bU17Dt1ljO1HmrNURTlbeJy5AiGpKYxb8FY7h2cTK8uVkJN+uEcaLk9JS8vj2PHjv3dt6+urmbdunWkp6fTu3dvPTbWRqnkEBEREZGgcDgcDBo0iJ/85Cf87//+L7/4xS+Iiopi8ODBdOnSJdjxgiYQCLB9+3Z2796N2+1m0aJFTJw4kZ49ewY7WqdTUlLCoUOHOHfuHFOnTmXw4MFEREQEO9YnWSOJ7DOa8b2GMmruHPa98Bve3FzOhui7+a+nZzAiNpwIsxmL1YzJZMKofqOF1+ulsrKS7du3c/jw4b/79s3NzZw9e5aCggJSUlLo169fK6SUr0olh4iIiIgEhcFgwGQykZKSwqJFi4iMjOQnP/kJP/zhD5kwYUKnvCK1sbGR8+fP895771FcXMzIkSO599576dGjB0ajBhRaW25uLocOHcJutzN16lR69OjRBh9RMGAwmjFbbJh9XpprG/B4DUT1i6dXdATRXRzYgx2xjTKZTERGRvLTn/6UBx54oOX3t23bxtatWykoKADgZz/7GaNGjWr55/3796dHjx6tnle+HJUcIiIiIhJUYWFhjBw5EqPRSGlpKRs3bsTtdjN16lS6du0a7Hitxu12U1xczMqVKzl8+DB9+vRh9uzZDBw4UDscrez63/B/8MEHlJeXk5KSwpgxY4iKigp2tM8X8BOor6KywkuzvwuJ/boTYdUVsV/EaDRit9sZPXr0J37/6tWr5Ofnt/x69OjRzJ07t7XjydekOlhEREREgi48PJxRo0bxk5/8hMrKSjZt2sSePXu4cuXK59520NFUVFRw4MAB3nnnHQwGA1OmTGHGjBm6TSUImpqaOHjwIEePHsVkMjFp0iT69evXtodxfV48VZcoq7bSbIljWL9udLGY6dzrNtIZqeQQERERkTbB4XAwePBgfvrTnwIfHxHPzs6msrIyyMlaR35+PitXruTMmTPMmTOHzMxMevXqFexYnVJtbS3Z2dmUlpaSnJxMZmYmVqs12LG+QAC/z0XtxXOcqbNRHdqbgfFdsFn04550Pjr3JiIiIiJtgsFgwGAwkJyczN13301kZCR//OMfcbvdZGZmkpSUFOyIN83hw4fZsGEDp0+fZvr06cyZM4fk5GSd4AiC6upqCgoK2Lt3L5GRkaSmppKSktLGb/wxYLCG0eXWu/nRLxppNIaTEGslxKw/P9L5qOQQERERkTbl+kaHwWDg8uXL7NixA7/fz+zZsztc0eHxeKiurmblypXs37+frl27snjxYoYMGdL2bvHoJEpLS9mxYwdlZWVkZWWRmpraLm77MRgtWLsmMazzzNiIfCaVHCIiIiLS5lzf6IiKiuKZZ55hx44dGI1GunTpQlRUFBZL+59T9Pv9VFdXs3fvXlavXo3f7+e2225j1qxZREZG6jaVIGhsbOTUqVPs2LGDsLAw0tLSGDRoULBjichXoFdOEREREWmTnE4nQ4YM4V/+5V/o0qULL730EqtWreLq1avBjnZDuFwuzpw5w3PPPUdJSQmjR49m4cKFxMTEdIgSpz06d+4cubm5nD17lilTpjB69GhiY2ODHUtEvgKd5BARERGRNstoNJKUlMTSpUuJiYnpUBsdR48e5d133+XEiRNMnz6drKws+vXrpx2OIAgEAng8HrZt28bevXtxOp3cdttt9O7dW18PkXZGJYeIiIiItGlOp5MRI0YAH1+zum3bNnw+H3PmzGm3RcfZs2fZsmULH3zwAQkJCcyZM4fU1FScTmewo3VKHo+H8+fPc+DAAWpraxkzZgwjR44kMjIy2NFE5CtSySEiIiIibV5ERASjR48mMjKSf//3f2fXrl2YTCbCwsKIjo5uN493+Hw+Ghoa2LRpE9u2baOhoYHFixczYcIEPRYRJH6/n5qaGjZu3EhBQQHR0dHMnz+fnj17YrPZgh1PRL4ibXKIiIiISLvgdDoZNmwYTz75JKGhoSxbtozVq1dTXV0d7GhfWmNjIydOnODNN9/kww8/ZNSoUSxdupTevXtjNuvvH4PB4/FQUlLCr3/9awoKCkhKSmLu3LnY7fZgRxORr0GvpCIiIiLSbhiNRhITE3nggQdYt24dzz//PB6Ph8zMTBITE4Md7ws1NjZy5swZXnjhBYqLixk1ahSLFi2ie/fu7eYkSkdUXl7Ovn37aGpqYsaMGcycOROn06ktDpF2SiWHiIiIiLQrTqeT4cOH4/f7qaqqYsuWLbhcLjIzM9vsdZ8+n4/Tp0+zdu1adu7cyYABA5g1axapqanY7Xb9QB0k9fX1HDlyhDVr1hAWFkZGRgajR4/WqRqRdkzfvSIiIiLS7lzf6IiIiODJJ59k06ZNNDY24nK5iImJITw8nJCQkDZzQqK8vJydO3eSk5MDQFZWFtOmTaN79+5BTta5Xbx4kby8PHJzc5k0aRKjR4+mT58+wY4lIt+ANjlEREREpF0KCwtj2LBh3HPPPbjdbn7zm9/w3e9+lxUrVnDixAlqa2uDHbHF5s2bWbVqFWVlZdx5553MnTu33d4M05Hk5+dz7NgxwsLCuP322+nXr59OcYi0c/oOFhEREZF2y2g0Mm7cODZv3szu3btbNi+WL19OfHw8I0aMYOjQofTv35+4uDi6dOnSqvmqq6vZvXs3K1asoKqqimnTpnH//ffrJpUg83g8lJWVsXnzZoqLixk/fjxjx46la9euwY4mIt+QSg4RERERabeMRiOxsbEMGjSIvn37UlhYSF1dHQCFhYWcO3eOvLw8YmNj6dOnD/3796dnz5706NGDmJgYIiIiblq22tpajh8/ziuvvEJJSQlDhw5lwYIFJCUlYbVab9rHlb+vqamJrVu3kp+fT1hYGDNmzCAuLk43qoh0ACo5RERERKRds9lsDBkyhNTUVAoLC1t+v76+npMnT3Ly5EkAoqOjGTx4MElJSaSlpTF27NibVnK4XC5OnjzJ6tWrycnJYeLEicyaNYvJkydjtVo1NBpELpeLsrIy/vrXv1JbW8uECROYPHmyblQR6SC0ySEiIiIi7V5KSgojRoz4wrepqqpi586dvPLKK2zZsoWLFy/etDwVFRVkZ2fzX//1X/h8Pm6//XZmzJhBRESEfpAOssrKSvbv38++ffuIjY1l8uTJJCcna4tDpIPQd7KIiIiItHsxMTFfaufC4XBw1113sXjxYkaNGnXDc3i9Xq5du8af//xntmzZQlxcHN///veZOnWq9h7aAI/Hw6lTp1ixYgX19fWMGzeO0aNHBzuWiNxAOskhIiIiIu1eSEgICQkJZGRkEBYW9plv07VrVyZNmsTChQsZOXLkDX9Uxe/3U11dzebNm9myZQt+v5+srCzmz59P7969tcPRBly8eJFDhw5x4sQJhg0bRmpqKvHx8cGOJSI3kEoOEREREWn3jEYjvXr1Yu7cuYSHh3/m29hsNnr06EFCQsINv2XF7/dTUVHBgQMHePfdd7l06RLDhg1j0aJFJCYm4nA4bujHk68mEAjgcrnIy8tj586dNDQ0MGfOHAYNGkRoaGiw44nIDaSSQ0REREQ6hC5dujB48GBCQkI+8ftGoxGDwUBZWRmrVq1i7969XL58Gb/ff8M+ttvt5uDBgyxbtoyNGzfSt29fsrKymDRpkrYe2gC/309lZSXZ2dls3LiRiIgIsrKySEhICHY0EbnBVHKIiIiISIfgdDpJTEz8xDWgFouF4cOH07NnT+DjG1eeffZZli1bxpEjR27Yxz58+DDr1q0jPz+fjIwMvvOd7zBx4sQb9v7lm2lqamLjxo1cuHCBW2+9lR/96EfExcVhsViCHU1EbjDVyiIiIiLSIVgsFqKjo5k4cSK1tbW43W4mTpzIzJkzOXPmDNu3b+fAgQMUFRWxevVqXC4XPp+PIUOGfOr0x+fxeDxcvnyZqKgoQkNDaWxs5Pjx46xYsYL9+/fTvXt37rrrLkaNGqWh0Tairq6OkydPkp2djcvlYsKECWRmZhIWFobRqL/zFeloVHKIiIiISIdgMBiw2+2kp6dz7do1vF4vDzzwAGlpaVy4cIHw8HBqa2u5cOECJ06coLm5mUAggNlsJikp6XMHS68LBALU1NSwdu1ahg4dSkJCAtXV1axYsYJt27bhcDiYNWsWU6dOpVu3bvoBug0IBAKUlZWxefNmcnNzGT16NJMmTaJv377BjiYiN4lKDhERERHpMEwmE8nJySxYsACn08nMmTMBGDJkCKGhoVitVv7whz9QXl7OuXPn+NOf/oTJZGLJkiUMHToUk8n0ue/b6/VSWlrKU089xcyZM0lLS6O2tpZly5YRHx/PvHnzeOihh+jatasKjjbC5XJx6tQp3nvvPZqbm5k8eTKTJ08OdiwRuYlUcoiIiIhIh2E0GklMTCQuLu5ThUWvXr2488478Xq9vPPOO+Tn59PQ0MCbb76Jx+Nh4cKFjBs37nPfd01NDRcuXMDn85GTk8Pu3bvx+Xw0NTUxf/585s6dS2RkpAqONuTQoUNs3ryZS5cucfvttzN27FiioqKCHUtEbiKVHCIiIiLSYRgMBhwOx2de2Wqz2YiLi2P+/Pn4fD4sFgsHDx7k0qVL5GfApvQAACAASURBVOTkEAgEMBqNDBs27BPjpdfV1tZSXFyM1+ulpqaGyspK7HY7SUlJDB8+nISEBA1ZthF+v59r166xbds2cnNz6dWrF7fddhspKSn6Gol0cCo5RERERKTTMJvNDBgwgPnz5wMf37ZSVFTEmTNn8Pl8mEwmLBbLZ250VFRUcOLECbxeb8vvGY1GQkNDqampobq6WmOWbUAgEKC5uZnDhw+zZ88erl27RlZWFmPGjCEmJibY8UTkJlPJISIiIiKdzuDBg7Hb7dhsNp5//nnKysooLCzklVdeadnoGDJkCGbzx/+7HAgEuHjxIvv27cPtdre8n6amJo4fP86qVatwOp307NkTq9WKwWAI1qfW6fl8Pq5evcqKFSsoLCwkJSWFRYsWERUVpQJKpBNQySEiIiIinVJ8fDyLFi2ie/fuvPjii+zbt4+6ujreeOONT2101NbWUlpaSlFR0SdOckRFRbVsPQwZMkQFRxtQVVVFbm4u+/btIz4+njlz5jB06FBsNluwo4lIK1DJISIiIiKdks1mIzY2lqlTp+JyuXA6nWzatImPPvroExsdt956K2VlZZSWlgIwYsQIkpKSiI+PJz4+npEjR9KjRw+6du2qgiPI3G43BQUFvPTSS5SUlJCens748eNxOp3BjiYirUQlh4iIiIh0WiaTidjYWObMmYPZbKampob8/HzOnDmD3+/HZDJhtVqprq4mKiqKuXPnkpaWxtChQ7nlllvo3r07ISEhKjfaiLKyMnJzc9m5cyfJycmMGTOGpKSkYMcSkVakkkNEREREOr2ePXsyd+5coqOj+dGPfsSFCxf48MMPef311zGbzYwaNYrZs2fz0EMPER0d/anraSX4vF4veXl57Nu3j4iICL7zne8wbtw4neIQ6WS0vCMiIiIiAkRERDBu3Dh+9atfMWbMGACuXbvGa6+9xo4dO6ipqdF4ZRvl8/koLCxk06ZNfPjhh4wfP57JkycTGxsb7Ggi0sp0kkNEREREhI+vl42MjGTixInU1NTgcDjYtGkTV65cYcuWLVgsFux2OyNGjMBqtQY7rvwfv99PXV0dq1ev5vDhw0RERLBgwQL69OmD3W4PdjwRaWUqOURERERE/o/JZKJbt27MmjULg8FAbW0tR44c4cyZMwQCAQwGA1arlaSkJMLCwoIdV4CamhqOHj3Khg0bcLvdpKWlMWXKFLp06aJTNyKdkEoOEREREZH/x/WNjqioKP7pn/6J4uJizp49S1VVFQaDgSVLlujK2DbA5/NRVFTE8uXLOXnyJFOmTGHu3LnEx8cHO5qIBImqTRERERGRzxAZGcn48eN59tlnSU1NBT7e6HjjjTd46aWX2LFjBx6Ph0AgEOSknVdxcTHbt29nzZo1REVFkZGRwdixY4MdS0SCSCc5REREREQ+w/WNjgkTJnDt2jWcTiebNm2isrKSLVu20NTURG1tLZmZmYSGhurRiFYUCARobm4mLy+PrVu30tjYyD/8wz8wbtw4IiIigh1PRIJIJYeIiIiIyOf4240OgPr6eg4ePMiFCxdobm6msbGR0NBQUlNT6dq1q4qOVuLz+SgoKGDHjh2UlJSQlpbGnDlzSExM1NdApJPTK4CIiIiIyN9xfaPjxz/+Mb1798Zms3H58mW2bNnCf//3f3Po0CHq6+v16Eor8Pl81NXVsXLlSvbu3UtUVBTf//736d+/Pw6HI9jxRCTIVHKIiIiIiHwJ0dHRTJgwgV//+tcMHz4cgIaGBnbt2sWyZcvYtGmTNjpawdWrV9m5cyc5OTkYjUYmTpzIhAkTCA0NDXY0EWkD9LiKiIiIiMiXYDKZWjY6qqurCQsLY/PmzdTX15Obm4vFYsHv9zNnzhxCQkL02MRN0NTUxNGjR/n973/P+fPnmT9/PjNmzCAiIkL/vUUEUMkhIiIiIvKlmc1mYmJimDVrFoFAgMbGRvbv38/ly5fZs2cPXq+XsLAwRowYQUxMjH7wvsGKi4vZs2cPe/bsYdiwYWRkZDBs2DBMJlOwo4lIG6FXXRERERGRr6hnz55kZWXxxBNP0LdvX5xOJ1euXGHbtm08//zzHD58mLq6Oj26cgM1NTWRm5vL7t27iYyM5MEHHyQjI4PIyMhgRxORNkQnOUREREREvobo6GimTJnCH//4R1599VV27tzJRx99xM6dO7FarTQ2NpKVlYXVag121HbP5/ORm5vL+vXrKS0tZc6cOUyZMoXY2NhgRxORNkYlh4iIiIjI12AymYiIiGDUqFEAREZGsnr1ai5fvswHH3yAxWLB5/Mxd+5c7Ha7Hl35mlwuF5cvX+b1119n3759xMXFsXjxYmJjY7FYLMGOJyJtjEoOEREREZGv6foYaVpaGgaDAZfLRU5ODlVVVezZswefz4fT6SQ1NZWuXbuq6PiK/H4/FRUVbNu2jV27dhESEsKkSZMYM2aMblMRkc+kkkNERERE5BtyOp2MHz+e8PBwampqyMvL4/Lly2zbto3m5mYeffRRxo4dS3h4OAaDIdhx243GxkZOnTrF8uXLcblcLFiwgMWLFxMRERHsaCLSRqlKFhERERG5AUJCQhg4cCD/+q//ytSpU4mJiaG2tpYdO3bw4osvsnXrVjweT7BjtiunT59m06ZN7N+/n7S0NGbPns2gQYOCHUtE2jCd5BARERERuQEMBgMOh4OkpCTuueceHA4Ha9asoby8nNzcXGw2Gz6fj3nz5mGz2XSi4wsEAgEuXrxITk4OW7ZsIS4ujqysLIYMGYLNZgt2PBFpw1RyiIiIiIjcIEajkZCQEMaMGYPP58Pj8bBu3bpPbHSEhYWRmppKdHS0Njo+g8/no6GhgdWrV7N+/XpqampYuHAh48aNo3v37sGOJyJtnEoOEREREZEb7PpGR5cuXbh27Rq5ubmf2Oh45JFHGD16NBERESo6/kYgEKC+vp7Tp0+zbNkyzp8/T0ZGBvfffz9xcXG6TUVE/i69ooqIiIiI3AQOh4PBgwfzb//2b2RkZBATE0NNTQ3btm1r2ehoaGgIdsw2xefzUVRUxPPPP8+lS5dIT0/n/vvv55ZbbsFutwc7noi0AzrJISIiIiJyE1zf6OjXrx9Lly4lNDT0Exsdzc3NlJaWcu+99xIeHq5TCsCZM2fIyclh586dJCUlkZmZybhx4/TfRkS+NJUcIiIiIiI3yfWNjtGjR+P1evF6vaxdu5arV6+yb98+ampqcDgczJgxg7i4OKxWa7AjB01FRQW7du1i06ZNeL1epk+fzoQJE7TDISJfiUoOEREREZGb7PpGR1hYGNXV1S0bHUePHqWiogKr1crUqVOJi4vDZDIFO26rCgQCeDwe8vLyWLduHSdPnmTSpEnMnz+flJSUYMcTkXZGmxwiIiIiIq3A4XAwdOhQnnrqKaZMmUJMTAwul4vi4mJ++9vfkp2dzbVr14Ids9V5PB4qKir43e9+x9atW7nlllv46U9/SnJycqc+2SIiX49OcoiIiIiItAKDwUBISAh9+/blgQcewOl0snbtWsrKyigqKuK9997D7Xbzne98hy5dunSKHQqfz8e5c+d48cUXOX36NKmpqSxZsoSUlBRCQkIwGAzBjigi7YxKDhERERGRVnJ9o2PUqFG43W58Ph9r1qzh6tWrHDt2DJ/PR1hYGDNnzuwUGx2lpaXs3LmT1atXExUVxcyZM5k5cyZOpzPY0USknVLJISIiIiLSyv52o+PatWscPHiQy5cvk5+fz3PPPYfNZiMjI4P4+PgOu9HR2NjI/v37Wbt2LRUVFWRlZTF9+nT69esX7Ggi0o5pk0NEREREJAhCQ0NbNjq+9a1vkZSUhMvl4sKFCzz33HOsWbOmQ290HDt2jL/+9a/k5eUxYMAA7rzzToYOHRrsWCLSzukkh4iIiIhIEBgMBhwOBwkJCSxevJjQ0FAsFguHDh3iwoULrFixgubmZh588EG6dOmC2dwx/tfd7XZTWVnJyy+/zPbt2+nevTs//OEPSUlJwW63BzueiLRzHeOVUkRERESkHbq+0dG/f3+8Xi+BQIDm5mbOnz/PsWPH8Pv9OJ1OZs2aRa9evdr9RofX66W8vJy1a9eyc+dOnE4nWVlZTJs2jcjISA2Nisg3ppJDRERERCTIzGYzQ4YMweFw4HK5yM7OprCwkPz8fK5evYrdbicjI4O4uLh2e6IjEAhw9epVDh48yLJly2hubuaOO+7g3nvvpVu3bsGOJyIdhDY5RERERETaAJPJRN++fXnssce44447SExMpLm5maKiIn7zm9+wdu1aampqgh3za3O73ezfv5933nmH06dPk56ezty5c0lJSQl2NBHpQFRyiIiIiIi0EWazmYiICO666y4WL17MiBEj8Hq9FBcX88477/Dyyy9TVVWF1+sNdtSv7IMPPmDNmjWcOHGC9PR0br/9doYOHdphb48RkeBon2fdREREREQ6IIPBgMlkIjk5mVmzZgHgcrkoKiri2LFjBAIBQkNDmT17drvZ6GhoaKCwsJDs7GwOHjxIVFQUS5cuZfTo0URHRwc7noh0MCo5RERERETamL/d6HC73bz//vucO3eO/Px8qqurcTgcTJ48mfj4eCwWS7Djfi63201paSkrVqxg06ZN2O12pk2bxh133IHVasVo1MFyEbmx9KoiIiIiItIGmc1m+vXrxyOPPNKy0dHU1ERhYSG//vWvWbNmDZWVlcGO+YUqKirYu3cvf/zjHwkEAtx55508/PDD2O12FRwiclPolUVEREREpI0ymUxERESwaNEiFi9ezPDhw/H5fJSUlPDSSy/xq1/9itOnT9Pc3BzsqJ9SVVXFqlWr+N3vfkdDQwOzZ89m6tSpxMTEBDuaiHRgelxFRERERKSNMhgMmM1mkpKSmDVrFoFAALfbzblz51rKDZPJxD333ENycjJOpzPYkfH5fDQ1NbFt2zZycnIoLy8nKyuLmTNn0r9//3axIyIi7ZdKDhERERGRNu76Rofdbsfj8fD+++9TVFTEhQsXeOmllwgLC2P+/PkMHDiQkJCQoOUMBAI0NjZy+vRp3n//fc6ePcvw4cN59NFHGTlyJBEREUHLJiKdgx5XERERERFpB8xmM4mJiTzyyCMsWLCAW265BYCmpiaeffZZ3n77bUpKSoKa0efzcenSJd58801yc3Pp06cPDz74IJMmTVLBISKtQic5RERERETaCbPZTEREBEuWLMFqtZKdnc2hQ4fweDz85S9/obGxkccee4y+fftis9laPd/JkydZuXIla9euJS4ujszMTCZMmIDFYsFgMLR6HhHpfFRyiIiIiIi0E9c3OhITE5k9ezYGgwG3201hYSHFxcVs2LABm83GvffeS1JSUqtudBQWFrJ582Y2btyI1WolMzOTqVOn0qNHDxUcItJqVHKIiIiIiLQz1zc6bDYbbrebVatWce7cOc6fP8+f/vQnwsLCmDdvHoMGDbrpGx0+n4/Gxka2bt3Khg0b+Oijj5g7dy7z5s1j4MCBmM36kUNEWo82OURERERE2iGz2UxycjKPPvoo3/72t0lOTgagvr6eX/7yl6xYsYLS0tKbnqO5uZmTJ0+yfPlyTpw4wZgxY3jkkUdISkpSwSEirU6vOiIiIiIi7ZTJZCI8PJyFCxcSGRnJypUrWb9+PT6fj3fffZfGxkYeffTRm7bRUVVVRV5eHs8++ywFBQVMmDCBpUuX0qtXr6BsgoiIqOQQEREREWmnrm909O7dm2nTpmEymXC5XOTl5VFSUsKGDRuwWCzcd999JCYm3tCNjrq6Ovbu3ctrr71GXl4eEydO5Pbbb2fUqFE4HA7tcIhIUKjkEBERERHpAPr06cOMGTMwm800Nzdz/PhxioqKePXVVwkPDycrK+uGbHQEAgE8Hg8nT55k7dq15OTk0KdPH7797W+TmZlJdHT0DfqMRES+Om1yiIiIiIh0ELGxsdx5551873vfY+jQoQDU1tbyzDPP8O67796QjQ6v10tlZSVvvvkmmzZtonv37vzwhz9k2rRp9OjR4xu/fxGRb0InOUREREREOhCr1cq0adNwu92EhYWxfv16AoEA77zzDg0NDTz66KPccsstWK3Wv/u+fD4fPp8Pi8WCwWCgqamJwsJCXnrpJbZu3UpsbCxZWVnMnj2bmJiYVvjsRES+mEoOEREREZEOxGg00q1bN9LT0wFaNjpKS0tbNjruv/9++vXr93c3Os6dO8exY8cYPnw4ERERnD17ljVr1rBhwwZ69OjBjBkzmDdvHr169cJkMrXGpyci8oVUcoiIiIiIdEB9+vRh+vTpn9roeP3111s2OgYOHIjD4fjMf9/j8VBQUMDLL79MRkYGSUlJHDlyhOzsbABmzpzJbbfdxuDBg1vz0xIR+UIqOUREREREOqhevXqxYMECjEYjL7zwAnv37uXatWs8/fTTLY+zJCcnf+ZNKHV1dRQWFrJhwwY2bNhAamoqbrebmpoaHnzwQRYuXEhKSkoQPisRkc+nkkNEREREpAOz2+1Mnz69pdTIyckBYPny5ZSVlbFkyRImT578qRMdZWVlXLp0qeXXp0+fpkePHkyZMoU777yTuLi4Vv08RES+DJUcIiIiIiIdmNFoJCYmhvT09JbrX/ft20dpaSlbt27F5XJhMBgYOXLkJ8ZDL1y4QElJScuv6+vrqayspLKykvr6erxebzA+HRGRL6SSQ0RERESkE7i+0WEymWhqauL48eOUl5eTk5OD3W4nEAgwZswYIiMj8fl8nDhxgg8//PAT7+PatWucPHmS/fv30717d5xOpwZHRaRNUckhIiIiItJJxMXFsWDBAkwmEy+++CL79u2jrq6ON954A5/Ph9lsZsqUKdTX13Pw4EGOHz8OfHwaxGAwYDQa8fl8FBQUMGrUKGJjYz93uFREJBhUcoiIiIiIdCIhISHMmDEDr9eL0+lkw4YNAGzatAmPx0NjYyOxsbE0NDS0vP2wYcO49dZbGTp0KAMGDKBXr150794du90ezE9FRORTVHKIiIiIiHQiJpOJmJgYpkyZgt/vx+fzsXfvXioqKti7dy9NTU3ceuut9OzZk7vvvpv4+HiGDRtGnz59iIuLo1u3bthstmB/GiIin0klh4iIiIhIJ9SnTx+mTZuG2WzG5XJRUFBAWVkZlZWVlJSUkJGRweTJkxkxYgSxsbHa3hCRdsEY7AAiIiIiIhIc8fHx3H777TzxxBPceuutWCwWXC4X+fn5XLp0CavVSs+ePVVwiEi7oZMcIiIiIiKdmMPhYPLkyTgcDt566y1ef/11ADZv3ozX68Xv9zN16lTtb4hIu6CSQ0RERESkEzMajURGRjJq1Ci8Xi8+n4/s7GyqqqrYt29fy60qqampxMTEBDuuiMgXUskhIiIiIiJERkaSlpZGaGgo1dXV7N+/n/LycjZt2oTFYsHv9zNmzBi6du0a7KgiIp9LmxwiIiIiIgJAREQEY8aM4emnn2bs2LFYrVZqamp46623WL58OQcOHMDj8QQ7pojI59JJDhERERERaWG1Wunfvz+PP/44kZGRvPHGGwBs3LgRj8eD3+9n+vTpWK3WICcVEfk0lRwiIiIiItLCaDTicDgYMWIELpcLv9/PypUruXr1astGh8lkIjU1VY+uiEibo5JDREREREQ+5fpGR0hIyCc2OrZs2YLVasXv9zN69GgVHSLSpmiTQ0REREREPlNERATjxo3j6aefZsyYMdjtdqqrq1m+fDnLly9n//79NDc3EwgEgh1VRATQSQ4REREREfkC1zc6nnjiCaKiolo2OnJycrh27RpXrlzhjjvuIDQ0FKNRf4cqIsGlkkNERERERD7X9Y2O4cOHt5zaeO+996iurm65bcXj8TB9+nTi4+MxmUzBjiwinZhKDhERERER+bsiIyMZN24cdrudq1evkpeXR0VFBR988AHNzc2YTCbS09Pp06ePTnSISNDo1UdERERERL6U60XHU089xejRowkJCaG+vp7du3fz+uuvs2XLFmpqarTRISJBo5McIiIiIiLypdlsNgYOHMiPf/xjoqOj+fOf/wzAoUOHMBgMuFwuli5disPh0KMrItLqVHKIiIiIiMiXZjQaCQkJYfjw4TQ2NmIwGHjnnXdoaGigoKAAg8GA1WplxowZ2ugQkVankkNERERERL6yiIgI0tLSsNvtVFVVkZeXR2VlJYcOHcLn82E2m5kyZQoJCQna6BCRVqOSQ0REREREvpbrGx0RERH8/Oc/Z9euXTQ2NrJ7924MBgM+n48FCxYQFRWFwWAIdlwR6QRUcoiIiIiIyNdmt9sZNGgQv/jFL3j//fdZvnw5Fy5c4ODBgwQCARoaGnjooYcICQnRiQ4RuelUcoiIiIiIyNdmNBqx2+2kpKQwf/58rFYrr7/+OmVlZRw/fhwAq9XK7NmztdEhIjedSg4REREREfnGrp/osNvt1NfXk5OTQ2FhIUePHsXj8WCxWMjIyKBv37460SEiN41KDhERERERuSHsdjvJycn84Ac/wOfz4Xa7KSwsJDc3F6PRiN/v54477iA6OlobHSJyU6jkEBERERGRG8ZsNtO1a1ceeughwsLCeOONNygqKuLIkSMYjUaam5t5+OGHsdlsOtEhIjecSg4REREREblhDAYDZrOZ3r17M3fuXIxGI6+++iqXLl3i+PHjGI1GzGYzc+fOJT4+XkWHiNxQKjlEREREROSGs9vtDBw4EKvVSn19PevXr+fcuXMcOXIEl8uF1WolIyODhIQEjZGKyA2jkkNERERERG6K67eu/OAHP8Dr9bJu3TrOnTtHXl4eZrMZn8/HbbfdRkxMDEajUTsdIvKNqeQQEREREZGbxmw2ExMTw3e/+91PbHQcOnSI5uZmLl++zHe/+12io6OxWq3Bjisi7ZxKDhERERERuWkMBgMmk4nevXuTlZWFyWTilVde4dKlS5w9e5bVq1dTX1/PPffcQ0pKCna7PdiRRaQdU8khIiIiIiI3nc1mY8CAAZjN5k9sdJw6dYqrV68SFhbGnDlzGDx4sIoOEfnaVHKIiIiIiEirCAkJoX///vzgBz/A4/Hg9XopLCykpKSEV199Fa/XS1hYGP369cNkMmmjQ0S+Mt3XJCIiIiIircZisRATE8M//uM/snDhQuLj4wEoKytjxYoVvPDCC1RWVuL1eoOcVETaI53kEBERERGRVnN9oyM+Pp558+ZhNpt5+eWXuXz5MhcvXmTz5s2YTCaWLl1KcnKyHl0Rka9EJYeIiIiIiLQ6m83GwIEDMZlMNDQ0tFwvW1RUxMqVK1s2OoYMGaKiQ0S+NJUcIiIiIiISFHa7nQEDBvDYY4/h9XrZvHkzhYWFFBcX89prr+H3+3E6nSQlJWmjQ0S+FG1yiIiIiIhI0FgsFrp168bjjz/O9773PcaMGUMgEODixYu8/fbbLFu2TBsdIvKl6SSHiIiIiIgEzfWNju7duzNt2jTsdjt+v58jR45QVlbG5s2bMRqN3HfffSQmJhISEhLsyCLShqnkEBERERGRoLNYLPTp0wez2YzX68VkMnH06FHOnTtHdnY2TqeTOXPmMHToUG10iMjnUskhIiIiIiJtgslkIi4ujkWLFuF2uwHIy8ujuLiYV155pWWjIzk5WRsdIvKZVHKIiIiIiEibYTQacTgcLF68GJvNht/vZ/v27Vy6dInly5dTU1PDP//zPxMdHY3FYgl2XBFpY1RyiIiIiIhIm2IwGOjSpQvp6emYTCYADh48SHl5OVu2bMFgMPDQQw+RmJioR1dE5BNUcoiIiIiISJtjNBqJj49nypQp+Hw+jEYjR48epaioiNWrV9OlSxfmzZvHkCFDVHSISAuVHCIiIiIi0iZd3+i46667cLlcwMcbHaWlpbz66qsYDAbsdjtJSUnYbDZtdIiISg4REREREWm7jEYjoaGhLFmyBJvNhs/nY8eOHVy6dIk33niDK1eu8Pjjj3PLLbdgs9mCHVdEgkwlh4iIiIiItGkGg4GwsDAyMjIwGo0YDAYOHjzI5cuXWb9+PWVlZTzxxBMMHz6cyMjIYMcVkSBSySEiIiIiIm2e0WgkLi7uUxsdpaWlVFRUEB4ezuLFixk/fryKDpFOTCWHiIiIiIi0CyaTifj4eO644w7cbjeBQIADBw5QV1fH8uXLMRqN2O12xo0bR0hICEajMdiRRaSVqeQQEREREZF2w2g0EhYWxt13343VaiUQCLB9+3YAVqxYQVVVFZGRkQwcOJCQkJAgpxWR1qZqU0RERERE2pXrY6RTp05l6dKlpKen43Q6cbvd7N+/nyeffJLc3Fyqq6uDHVVEWplOcoiIiIiISLtzfaNj8uTJ+Hw+DAYD+fn5VFZWsmvXLqKioliyZIk2OkQ6GZUcIiIiIiLSLplMJnr37s2CBQtwu93YbDYOHDhAZWUlb731FiaTCZvNRlpamjY6RDoJlRwiIiIiItJuGY1GunTpwre//W0SEhJ46623+POf/wzA22+/zdWrV4mKimLQoEHY7fYgpxWRm01VpoiIiIiItGtGoxGHw8GoUaO4++67Wbp0KREREXi9XvLy8lo2Oq5duxbsqCJyk+kkh4iIiIiItHtGo5Ho6GhGjhyJ0WjE7Xaze/duLl68yO7du4mKiuJb3/oWaWlp2ugQ6cBUcoiIiIiISIfRtWtXJk6ciN/vJxAIsHXrVioqKnjrrbcwm81YrVbGjRuHw+HQRodIB6SSQ0REREREOhS73c706dMxmUxYLJaWjY7ly5e3bHQMHjwYm80W5KQicqOpuhQRERERkQ7HaDQyYsQI7r77bu677z7Cw8Px+Xzk5ubys5/9TBsdIh2UTnKIiIiIiEiHFBUVxciRIzEYDLhcLnbt2kVZWRl79uwhIiKCu+++WxsdIh2MSg4REREREemwrm90BAIB/H4/27dv58qVK7z99ttYrVbMZjPjxo3D8aepSwAAGjRJREFU6XRqo0OkA1DJISIiIiIiHVpISAgzZszAZDJhNptZvnw5AG+88QZXrlzB6XSSmpqqjQ6RDkAlh4iIiIiIdHgGg4GRI0fi8/mwWCy8//771NXVkZeXx89+9jPuv/9+0tPTiYuLC3ZUEfkGVHKIiIiIiEinEBkZ+ZkbHfv378dgMODxeMjIyCAhISHYUUXka1LJISIiIiIinUbXrl2ZMGECgUCAQCDA9u3b+eijj9i2bRtWqxWDwcDs2bOJiYnRRodIO6SSQ0REREREOhWHw8HMmTMxmUyYTCbeeustAoEAGzZsoK6uDovFwoIFC3A4HMGOKiJfkUoOERERERHplFJTU/F6vVgsFt577z0aGhooKCjgf/7nf/D7/UydOpVevXoFO6aIfAUqOUREREREpFOKiIggNTUVg8FAc3Mzu3btory8nGPHjvHaa6/h9Xq10SHSzqjkEBERERGRTuv6RgeAyWRix44dlJWVsX379pYrZWfPnk23bt200SHSDqjkEBERERGRTi00NJSZM2cSHR1NeHg4L730Ej6fjw0bNtDQ0IDVamXBggWEhIRgMBiCHVdEvoBKDhEREREREaB///7cd999dOvWjeeee466ujry8/N54YUXCAQCTJ06ldjY2GDHFJEvoJJDREREREQEcDqdDBw4EKvVSm1tLatWraKoqIhjx47x6quv4vF4tNEh0sap5BAREREREfk/oaGhDBgwgIcffhiXy8W6deu4cOFCy0aHwWBg1qxZ2ugQaaNUcoiIiIiIiPwNq9VKSkoKjz32GA6Hg9///ve43W42bNhAY2MjFotFGx0ibZRKDhERERERkc/Qu3dvFi9eTGhoKP/5n/9JQ0MDR48ebdnomDZtGj179gx2TBH5Gyo5REREREREPoPdbiclJQWj0UhdXR3Z2dkUFRVRUFDAK6+8gtfrJT09XRsdIm2ISg4REREREZHPcX2j46GHHqK5ubllo2PHjh2EhIQQCATIzMykZ8+eenRFpA1QySEiIiIiIvIFbDZby0ZHSEgIzz//PC6Xi5ycHOrr6zEajdx5552EhIRgMpmCHVekU9McsIiIiIiIyJfQu3dvlixZwk9+8hPsdjsAR48e5Q9/+AP/8R//wZkzZ/B6vUFOKdK56SSHiIiIiIjIl2C320lOTmb+/PnU19ezcuVKzp8/z+nTp2lubsZisTBnzhyGDRuG2awftUSCQd95IiIiIiIiX5LT6fzERsf69es5f/48p06dIjs7G/j/B0tNJpN2OkRamUoOERERERGRr+B6ifHYY49ht9t54YUXaGxs5OjRo7jdbtxuN48//jgRERFYLJZgxxXpVFRyiIiIiIiIfA29e/fm7rvvJjQ0lGeffRa3201RURHZ2dn4/X7uvfdeEhMT9eiKSCvSd5uIiIiIiMjXYLfbSUpKYv78+TQ2NvKXv/yFCxcucP78ebKzs7Hb7droEGll+k4TERERERH5mpxOJwMHDuTBBx+kqamJbdu2UVpayunTp1m5ciUGgwGbzcaAAQMwGo3a6BC5yVRyiIiIiIiIfAPXNzoeffRR4uLiWLFiBSdOnODYsWN4vV7cbjePPfaYNjpEWoEx2AFEREREREQ6goSEBBYtWsQTTzxBcnIyDoeDc+fOsfL/a+9eg6Mq7P+Pf86ePZvd7CWbTUAiJFxNuBUECwoFBIVyD4hNqFNapbReppG2PujYsePYaR2Zjq1tB2rpdLQdvHSmExChUiRQlJSLNVzDRVAuCgTYJA3ZbEL2lt+D/z/56/xs/4CQk2zer6c8+cxw9kE++z2fXbtWL7zwgk6ePKlkMml3TCCtcckBAAAAADdARkaG+vXrpylTpqi1tVVr1qzRgQMHdPr06Y6Njnnz5mnUqFFsdAA3CZ8sAAAAALhBLMtSv379dP/996upqUkOh0NVVVU6duyY1q1bJ8MwZFmWhg8fzkYHcBNQcgAAAADADeR0OhUKhfStb31LLpdLjY2NOnTokA4cOKBEIqF4PK6ysjIFg0G5XC674wJphZIDAAAAAG6CYDCo+fPny+/3a8WKFTpz5oxOnDih8vJyJRIJLV26VIMGDZJpmnZHBdIGJQcAAAAA3ASmaapPnz6aPHmyYrEYGx1AJ+CTBAAAAAA3icvlUr9+/bRo0SJFo1GZpqn3339fH3zwQcdGh9Pp1IgRI9joAG4ASg4AAAAAuIksy1IoFNKSJUtkWZaampq0f/9+HThwQMlkUrFYTNnZ2crNzZXb7aboAL4Ah90BAAAAAKAnaN/oePzxx1VYWCiPx6Pjx49rzZo1+uEPf6j9+/erubnZ7phAt8YlBwAAAAB0gvaNjkmTJikej+tPf/qTDh48qPPnz2vHjh3y+/0qLS3V5MmT5fP57I4LdEuUHAAAAADQSSzLUn5+vhYsWKBIJCKn06mqqiqFw2Ft2rRJTqdTpmlq0qRJcrvdcjg4vgeuBSUHAAAAAHQip9OpnJwcffOb35TT6VQ0GtX+/ft16dIlvfnmm4pGo+rdu7cGDx4sr9dL0QFcAz4tAAAAAGCDrKwsLViwQN/73vc6Njrq6uq0fft2Pf3006qurlZLS4vdMYFuhZIDAAAAAGxgmqZ69+6tyZMn64knntDYsWPl8/lUW1urPXv2aPXq1dqxY4eamprsjgp0G7yuAgAAAAA2cblc6tevn+bNm6fGxkZlZmZq3759CofD2rx5s1wulxwOBxsdwFWi5AAAAAAAG1mWpdzcXC1ZskTBYFBOp1PvvvuuwuFwx0ZHr169dNtttykzM5OiA/gvKDkAAAAAwGaGYSg7O1vFxcXKy8uT2+3WP/7xD9XW1mrbtm2KRCJ66qmnNHLkSHm9XrvjAl0WFSAAAAAAdAEOh0NZWVkaM2aMHn30Uc2cOVN5eXmqq6vTe++9p9/97ndsdAD/H1xyAAAAAEAX4XA4lJOTo6985StqamqSw+HQ9u3bdeHCBW3evFlut1uGYWjy5MlsdACfg5IDAAAAALoQh8OhzMxMzZ07Vw6HQ4lEQps2bVJtba3Wr1+v5uZm5ebmqrCwUF6vl6ID+BRKDgAAAADogizL0rRp0+T1ehWPxzs2OioqKtTY2Kif/OQnGj58OBsdwKdQ+QEAAABAF2QYhnw+n0aPHq3HHntMM2fOVJ8+fTo2OlauXKnKyko2OoBP4ZIDAAAAALqo9o2OiRMnKhqNyjRNvfPOO6qpqenY6JDERgfwf1FyAAAAAEAX1r7RMWfOHElSMpnU3//+946NjpaWFuXk5Gjw4MHy+/1yOvkzDz0XTz8AAAAAdHGGYciyLN17773y+/1KJpOqqKhQOBzWli1bVF9fr8cee0zjx49Xr1697I4L2IaSAwAAAAC6AcMw5PV6NWrUKD366KOyLEvvvvuuLl26pD179qi+vl7Lli3TnDlzlJeXZ3dcwBaUHAAAAADQTbRvdNx5552KRqNyOBx65513dPbsWdXW1srr9aqtrU3FxcXKycmRaZp2RwY6FSUHAAAAAHQjDodDXq9Xs2bNUltbm1KplDZt2qRIJKKKigo1NzcrGAxqypQpCoVCbHSgR2F6FwAAAAC6GcMw5HK5NH36dH3729/WjBkz5PV6JUn/+te/9OSTT2rnzp1qaGiwOSnQuSg5AAAAAKCb8ng8Gj16tB5++GHNmTNHffv2VTwe19mzZ/Xcc89p/fr1qqmpsTsm0Gm4WwIAAACAburTGx3Nzc1yOp3avn27zp49q/fee0+BQICNDvQolBwAAAAA0I05HA75fL6OjQ7DMDp+XraiokItLS3KysrS1KlTlZ2dzUYH0hqvqwAAAABAN9e+0TFnzhw98cQTWrZsmbKysiRJe/bs0Y9//GPt2rWLjQ6kPUoOAAAAAEgTlmVpyJAhKikp0Xe+8x0VFRUpkUjo3Llz+tnPfqYNGzaw0YG0xp0SAAAAAKQRn8+noqIilZSUKJlMyuFw6OjRo3r//ff1+uuvK5lMav78+crNzWWjA2mHkgMAAAAA0kxGRobuuOMOpVIpGYahy5cv6+LFi9qyZYtaWlrk9/t1zz33sNGBtMPTDAAAAABpauzYsXK73XK5XFq1apUaGhq0a9cu1dTU6Ne//rXuuusu5ebm2h0TuGHY5AAAAACANGWapgYOHKiSkhI98sgjKiwsVDKZ1Llz5/TMM89o48aNbHQgrXDJAQAAAABpzOfzaejQoSopKVEikdCmTZt05MgRVVVV6dVXX1UikdD8+fPVq1cvORx8D47ujZIDAAAAANJc+0ZH+xBpY2OjampqVFFRoXg8Lq/Xq6lTpyonJ0cul8vuuMB1o+QAAAAAgB7iy1/+sjwejyzL0qpVq3T58mXt2LFDH3/8sZ555hlNnz5dt956q90xgetGyQEAAAAAPYTD4dDAgQNVWlqqZDKptWvX6sSJE6qpqdEvfvELnTt3TvPmzdOXvvQlu6MC14WSAwAAAAB6EJ/Pp6Kiov+10XH48GGVl5crkUjI4XBo6NChMk3T7rjANaHkAAAAAIAexu12d2x0GIahSCSi8+fPq6qqSslkUqZpKjMzU3l5eXK73XbHBa4aJQcAAAAA9FDjxo2T2+2WZVlauXKlIpGIDhw4oNraWrlcLi1atEiDBg2yOyZw1Sg5AAAAAKCHMgxDgwcP1uLFi5VKpVReXq4PP/xQ4XBYq1evVmtrq4qLi9noQLdByQEAAAAAPZjX61VhYaFKS0s/s9Hx4Ycfat26dUqlUmx0oNug5AAAAACAHs7j8Wjs2LFKJBJyuVxKpVI6ceKEqqqqlEql2OhAt0HJAQAAAACQJI0fP175+fkaOnSoysrKFIlEtG/fPoXDYblcLn3ta1/TgAED7I4J/EcOuwMAAAAAALqOnJwc3X333frlL3+p0aNHS5LC4bBefPFFvfbaa6qurrY5IfCfcckBAAAAAOjgcrl06623as6cOWpsbJTH49Hu3bt18uRJrV27VqlUSoZhaNiwYXI4+N4cXQslBwAAAADgMyzLUt++fVVSUiLDMHT58mUdP35cVVVVamtrk2ma8nq96tOnDxsd6FIoOQAAAAAAn6ugoEBf//rXFQqFtHz5cjU1NWnv3r2qq6uTy+XS/fffr/79+8swDLujApLY5AAAAAAA/Be5ubmaNm2afvWrX2nkyJGSpAsXLmjVqlV6/fXXdfjwYZsTAv8PlxwAAAAAgP+ofaNj9uzZamhoUHl5uXbv3q1Tp06pvLxcyWRSkjRixAguOmA7Sg4AAAAAwH/VvtFRWloqwzAUiUR09OjRjo0OwzDkdruVl5enzMxMyg7YhpIDAAAAAHBVCgoK9MADDygUCun73/++otGo9u7dq3A4rFgsptLSUg0ZMkQZGRl2R0UPxSYHAAAAAOCq5ebm6p577tELL7ygYcOGSZIuXbqkl156SStXrlRlZaXi8bjNKdFTcckBAAAAALhqLpdLeXl5HRsdf/3rX7Vnzx6dPXtWb7/9thyO//Nd+pQpU+R0Onl1BZ2KkgMAAAAAcE3ax0hLSkrU1tamaDSqw4cP6+TJk9q8ebNSqZSCwaBuu+02+f1+ig50GkoOAAAAAMB1ad/oyM7O1g9+8AM1Nzfro48+UlNTk65cuaKysjKNHDmSjQ50GjY5AAAAAADXrVevXpo+fbp++9vfqqioSJJUX1+vjRs36g9/+IN27typWCxmc0r0FFxyAAAAAACuW/tGx8yZM1VfX9+x0VFbW6uKigo5nU4lk0ndfffdbHTgpqPkAAAAAAB8IZ/e6DAMQ6lUSh988IE+/vhjvf3220qlUsrKylJRUREbHbipKDkAAAAAADdEQUGBHnroIRUVFenZZ5/VsWPH9NFHHykajXZsdIwYMUJut9vuqEhTbHIAAAAAAG6YQCCg8ePHa8WKFZo0aZJCoZBqa2u1ceNG/f73v2ejAzcVlxwAAAAAgBvG6XQqFApp7NixevDBB5WZmamtW7d+ZqMjkUho2rRpbHTghqPkAAAAAADcUKZpyufzacaMGUomk4rFYtq2bZs++eSTz2x0DBs2jI0O3FCUHAAAAACAmyIQCGj27NkKBoO6dOmSjhw5otOnT2vDhg26cuWKli9fruHDh8vj8dgdFWmCTQ4AAAAAwE3j9Xp1xx136LnnntPEiRMVDAZVW1urt956Sy+++KJ2796teDxud0ykCS45AAAAAAA3jcPhUDAY1O23366lS5fK6/Vq27Ztqqur09atW+VyuZRIJDR16lQ2OvCFUXIAAAAAAG4q0zTl9/s1ffp0JZNJxePx/7XR4ff7VVRUpEAgINM07Y6MboqSAwAAAADQKbKysjRr1iwFAgHV1taqurpap06d0oYNG9TS0qLvfve7GjlypAKBgBwO1hVw7XhqAAAAAACdxufzady4cXr22Wc1YcIEBYNBhcNhbdy4UT/96U/11ltvqbGx0e6Y6Ka45AAAAAAAdJr2jY7Ro0dr2bJl8vl8HRsdVVVV8ng8am1t1aJFi+Tz+Xh1BdeEkgMAAAAA0Kk+vdERj8eVSCS0bds2NTY26p///KeSyaT8fr8mTZqk3NxcOZ386Yqrw5MCAAAAAOh0hmEoEAho9uzZ8vv9qq2t1cGDB9XQ0KDKykrV19fL4/Fo/PjxysnJYaMDV4WnBAAAAABgG5/PpzvvvFM///nPdddddykYDKqpqUnV1dV6/vnntWXLFjY6cNUoOQAAAAAAtmnf6Bg1apQefvhhzZgxQzk5OYpGozpw4ID+8pe/aN26dWpoaFAymbQ7Lro4XlcBAAAAANjKNE0FAgHde++9isfjcjgc2rVrl86fP6+dO3cqlUrJ5/Np8uTJbHTgv+LJAAAAAADYrn2jY9asWcrLy1MoFNKGDRtUU1OjyspK/fvf/1ZmZqbGjRun3NxcNjrwuXgqAAAAAABdhs/n05gxY7R8+XItWLBA/fv3VyQS0cGDB/X88893/AoL8Hm45AAAAAAAdBkOh0Ner1cFBQVasmSJXC6X/va3v+n48ePav3+/XnvtNV25ckULFy5UIBDgogOfQckBAAAAAOhSDMNQRkaGxo4dq9bWVrW1tam1tVXnzp3r2OjweDyaOnWqcnJy2OhAB54EAAAAAECXYxiGnE6nJkyYoMzMTLW2turNN9/UhQsXtGPHDtXV1cnr9Wr8+PFsdKADTwEAAAAAoMsyTVPDhw/X8uXLtXDhQhUUFKipqUnV1dVasWKFtm7dykYHOnDJAQAAAADosgzDkNvt/tyNjurqar366qu6cuWK7rvvPvn9fpmmaXdk2IiSAwAAAADQpbVvdIwZM6ZjoyMWi+mTTz7Rzp07JUkej0fTpk1jo6OH438eAAAAANDlGYYhy7I0YcIEeTwexWIxrV+/XhcuXFBlZaXq6+uVkZGhcePG6ZZbbpFlWXZHhg3Y5AAAAAAAdBumaWrEiBF6/PHHVVxcrPz8fEUiEe3du1ePPPKIXnnlFZ09e9bumLAJJQcAAAAAoNto3+jIz8/Xgw8+qIULF6qwsFCtra0Kh8N65ZVX9NJLL+nUqVOKx+N2x0Un43UVAAAAAEC30l503H777WppaZGkjo2Ow4cPd/x7aWmp8vPz5Xa7bU6MzkLJAQAAAADodto3OiZOnCi3292x0XHx4kVVV1frN7/5jQKBgGbOnKkBAwbI5XLZHRmdgNdVAAAAAADdltPp1KhRo1RWVqbi4mL17dtXklRXV6enn35aa9eu1blz52xOic5CyQEAAAAA6NYyMjJUUFCghx56SPfdd5+GDh2qVCqlhoYGrVmzRi+//LJOnTqlRCJhd1TcZLyuAgAAAADo1to3OEaPHq3m5mZZliWXy6Vjx47pyJEjMk1TGRkZWrx4sfr168dGRxqj5AAAAAAAdHvtGx0TJkxQKBRSIBDQmjVrdObMGR06dEjhcJiNjh6AkgMAAAAAkDYsy9LQoUOVm5urYDCoP/7xj9q3b58uXbqkp556Ss3NzVq8eLEGDBhgd1TcBJQcAAAAAIC04nQ6lZOTo7lz5yoWi8nr9aqyslKRSER//vOfFY1GtXTpUhUUFMg0Tbvj4gai5AAAAAAApB3LstS/f3/Nnj1bkhSLxbR//34dPXpUb7zxhlwulx544AH17duXjY40QskBAAAAAEhbRUVFsixLTqdTkUhEp0+f1qFDh1RXV6dgMKivfvWrbHSkEX5CFgAAAACQ1vr376+SkhKVlZWpqKhIknThwgU9+eSTeuONN3T+/HmbE+JG4ZIDAAAAAJDWTNNUKBTSvHnzFIvF5PP5VFlZqWg0qpdffllNTU0dGx3o3ig5AAAAAABpz7IsFRQUaPbs2Wpra1M8HtfevXt17NgxrV+/XpZl6Rvf+IauXLlid1R8AZQcAAAAAIAeo6ioSE6nU06nU42NjTpz5owOHjyo+vp6ZWdn6+LFi4rH43bHxHWi5AAAAAAA9CgDBw5UaWmpTNPU6tWrdfDgQZ0/f14/+tGPNGrUKEUiEbsj4jpRcgAAAAAAehSHw6FQKKT58+crFoupvLxclZWVamlp0bFjx5RMJu2OiOtEyQEAAAAA6HEsy1J+fn7HRkcikVBVVZUuX75sdzR8AZQcAAAAAIAeq6ioSKZpyul06vLlyzpz5oyam5vldDqVnZ2tjIwMuyPiGjjsDgAAAAAAgJ0GDRqk0tJSlZWVadCgQZKkrKwszZ07V7fccovN6XAtuOQAAAAAAPRo7RsdxcXFMgxDkUhEQ4YMUWFhofr37293PFwDo62trc3uEAAAAAAAdAUnT56UJPXu3Vter1eGYdicCNeCkgMAAAAAAKQFNjkAAAAAAEBaoOQAAAAAAABpgZIDAAAAAACkBUoOAAAAAACQFig5AAAAAABAWqDkAAAAAAAAaYGSAwAAAAAApAVKDgAAAAAAkBYoOQAAAAAAQFqg5AAAAAAAAGmBkgMAAAAAAKQFSg4AAAAAAJAWKDkAAAAAAEBa+B8XJjP9GBiczQAAAABJRU5ErkJggg==;" vertex="1" parent="1">
          <mxGeometry x="181" y="20" width="556.8" height="410" as="geometry" />
        </mxCell>
        <mxCell id="k4ere-3MM8fGe5aid2qk-2" value="" style="rounded=0;whiteSpace=wrap;html=1;shadow=0;strokeColor=#FFFFFF;" vertex="1" parent="1">
          <mxGeometry x="579" y="258" width="17" height="20" as="geometry" />
        </mxCell>
        <mxCell id="k4ere-3MM8fGe5aid2qk-3" value="" style="rounded=0;whiteSpace=wrap;html=1;shadow=0;strokeColor=#FFFFFF;" vertex="1" parent="1">
          <mxGeometry x="630" y="258" width="20" height="20" as="geometry" />
        </mxCell>
        <mxCell id="k4ere-3MM8fGe5aid2qk-4" value="" style="rounded=0;whiteSpace=wrap;html=1;shadow=0;strokeColor=#FFFFFF;" vertex="1" parent="1">
          <mxGeometry x="596" y="215" width="20" height="20" as="geometry" />
        </mxCell>
        <mxCell id="k4ere-3MM8fGe5aid2qk-5" value="" style="rounded=0;whiteSpace=wrap;html=1;shadow=0;strokeColor=#FFFFFF;" vertex="1" parent="1">
          <mxGeometry x="596" y="190" width="20" height="10" as="geometry" />
        </mxCell>
        <mxCell id="k4ere-3MM8fGe5aid2qk-6" value="" style="rounded=0;whiteSpace=wrap;html=1;shadow=0;strokeColor=#FFFFFF;" vertex="1" parent="1">
          <mxGeometry x="470" y="72" width="20" height="20" as="geometry" />
        </mxCell>
        <mxCell id="k4ere-3MM8fGe5aid2qk-7" value="" style="rounded=0;whiteSpace=wrap;html=1;shadow=0;strokeColor=#FFFFFF;" vertex="1" parent="1">
          <mxGeometry x="626" y="308" width="20" height="20" as="geometry" />
        </mxCell>
        <mxCell id="k4ere-3MM8fGe5aid2qk-8" value="" style="rounded=0;whiteSpace=wrap;html=1;shadow=0;strokeColor=#FFFFFF;" vertex="1" parent="1">
          <mxGeometry x="472" y="158" width="23" height="22" as="geometry" />
        </mxCell>
        <mxCell id="k4ere-3MM8fGe5aid2qk-9" value="" style="rounded=0;whiteSpace=wrap;html=1;shadow=0;strokeColor=#FFFFFF;" vertex="1" parent="1">
          <mxGeometry x="380" y="142" width="13" height="16" as="geometry" />
        </mxCell>
        <mxCell id="k4ere-3MM8fGe5aid2qk-10" value="\begin{equation}&lt;br&gt;\phi&lt;br&gt;\end{equation}" style="text;html=1;strokeColor=none;fillColor=none;align=center;verticalAlign=middle;whiteSpace=wrap;rounded=0;shadow=0;" vertex="1" parent="1">
          <mxGeometry x="453.5" y="67" width="60" height="30" as="geometry" />
        </mxCell>
        <mxCell id="k4ere-3MM8fGe5aid2qk-11" value="\begin{equation}&lt;br&gt;D&lt;br&gt;\end{equation}" style="text;html=1;strokeColor=none;fillColor=none;align=center;verticalAlign=middle;whiteSpace=wrap;rounded=0;shadow=0;" vertex="1" parent="1">
          <mxGeometry x="356.5" y="128" width="60" height="30" as="geometry" />
        </mxCell>
        <mxCell id="k4ere-3MM8fGe5aid2qk-12" value="\begin{equation}&lt;br&gt;F_T&lt;br&gt;\end{equation}" style="text;html=1;strokeColor=none;fillColor=none;align=center;verticalAlign=middle;whiteSpace=wrap;rounded=0;shadow=0;" vertex="1" parent="1">
          <mxGeometry x="390.5" y="23" width="60" height="30" as="geometry" />
        </mxCell>
        <mxCell id="k4ere-3MM8fGe5aid2qk-13" value="\begin{equation}&lt;br&gt;\alpha&lt;br&gt;\end{equation}" style="text;html=1;strokeColor=none;fillColor=none;align=center;verticalAlign=middle;whiteSpace=wrap;rounded=0;shadow=0;" vertex="1" parent="1">
          <mxGeometry x="555" y="249" width="60" height="30" as="geometry" />
        </mxCell>
        <mxCell id="k4ere-3MM8fGe5aid2qk-14" value="\begin{equation}&lt;br&gt;\theta&lt;br&gt;\end{equation}" style="text;html=1;strokeColor=none;fillColor=none;align=center;verticalAlign=middle;whiteSpace=wrap;rounded=0;shadow=0;" vertex="1" parent="1">
          <mxGeometry x="572" y="204" width="60" height="30" as="geometry" />
        </mxCell>
        <mxCell id="k4ere-3MM8fGe5aid2qk-15" value="\begin{equation}&lt;br&gt;\tau\end{equation}" style="text;html=1;strokeColor=none;fillColor=none;align=center;verticalAlign=middle;whiteSpace=wrap;rounded=0;shadow=0;" vertex="1" parent="1">
          <mxGeometry x="577" y="177" width="60" height="30" as="geometry" />
        </mxCell>
        <mxCell id="k4ere-3MM8fGe5aid2qk-16" value="\begin{equation}&lt;br&gt;F_Q&lt;br&gt;\end{equation}" style="text;html=1;strokeColor=none;fillColor=none;align=center;verticalAlign=middle;whiteSpace=wrap;rounded=0;shadow=0;" vertex="1" parent="1">
          <mxGeometry x="460" y="154" width="60" height="30" as="geometry" />
        </mxCell>
        <mxCell id="k4ere-3MM8fGe5aid2qk-17" value="\begin{equation}&lt;br&gt;\phi&lt;br&gt;\end{equation}" style="text;html=1;strokeColor=none;fillColor=none;align=center;verticalAlign=middle;whiteSpace=wrap;rounded=0;shadow=0;" vertex="1" parent="1">
          <mxGeometry x="604" y="248" width="60" height="30" as="geometry" />
        </mxCell>
        <mxCell id="k4ere-3MM8fGe5aid2qk-18" value="\begin{equation}&lt;br&gt;L&lt;br&gt;\end{equation}" style="text;html=1;strokeColor=none;fillColor=none;align=center;verticalAlign=middle;whiteSpace=wrap;rounded=0;shadow=0;" vertex="1" parent="1">
          <mxGeometry x="547" y="65" width="60" height="30" as="geometry" />
        </mxCell>
        <mxCell id="k4ere-3MM8fGe5aid2qk-19" value="chord" style="text;html=1;strokeColor=none;fillColor=none;align=center;verticalAlign=middle;whiteSpace=wrap;rounded=0;shadow=0;" vertex="1" parent="1">
          <mxGeometry x="208" y="147" width="60" height="30" as="geometry" />
        </mxCell>
        <mxCell id="k4ere-3MM8fGe5aid2qk-20" value="" style="endArrow=classic;html=1;rounded=0;" edge="1" parent="1">
          <mxGeometry width="50" height="50" relative="1" as="geometry">
            <mxPoint x="241" y="154" as="sourcePoint" />
            <mxPoint x="260" y="128" as="targetPoint" />
          </mxGeometry>
        </mxCell>
        <mxCell id="k4ere-3MM8fGe5aid2qk-21" value="\begin{equation}&lt;br&gt;v(1-a)&lt;br&gt;\end{equation}" style="text;html=1;strokeColor=none;fillColor=none;align=center;verticalAlign=middle;whiteSpace=wrap;rounded=0;shadow=0;" vertex="1" parent="1">
          <mxGeometry x="690" y="288" width="60" height="30" as="geometry" />
        </mxCell>
        <mxCell id="k4ere-3MM8fGe5aid2qk-22" value="\begin{equation}&lt;br&gt;V&lt;br&gt;\end{equation}" style="text;html=1;strokeColor=none;fillColor=none;align=center;verticalAlign=middle;whiteSpace=wrap;rounded=0;shadow=0;" vertex="1" parent="1">
          <mxGeometry x="514" y="295" width="60" height="30" as="geometry" />
        </mxCell>
        <mxCell id="k4ere-3MM8fGe5aid2qk-23" value="\begin{equation}&lt;br&gt;\Omega \, r (1+a&#39;)&lt;br&gt;\end{equation}" style="text;html=1;strokeColor=none;fillColor=none;align=center;verticalAlign=middle;whiteSpace=wrap;rounded=0;shadow=0;" vertex="1" parent="1">
          <mxGeometry x="596" y="147" width="60" height="30" as="geometry" />
        </mxCell>
        <mxCell id="k4ere-3MM8fGe5aid2qk-24" value="Rotor plane" style="text;html=1;strokeColor=none;fillColor=none;align=center;verticalAlign=middle;whiteSpace=wrap;rounded=0;shadow=0;" vertex="1" parent="1">
          <mxGeometry x="226" y="180" width="140" height="30" as="geometry" />
        </mxCell>
      </root>
    </mxGraphModel>
  </diagram>
</mxfile>
